SplineFontDB: 3.0
FontName: NovaSquareSlim-Book
FullName: Nova Square Slim Book
FamilyName: Nova Square Slim
Weight: Book
Copyright: Copyright (c) 2020-2024 by Wojciech Kalinowski "wmk69" with Reserved Font Name "NovaSquareSlim-Book".\nThis Font Software is licensed under the SIL Open Font License, Version 1.1.
Version: 3.1.0; 2021-05-23
ItalicAngle: 0
UnderlinePosition: -80
UnderlineWidth: 200
Ascent: 1638
Descent: 410
InvalidEm: 0
LayerCount: 2
Layer: 0 1 "Warstwa t+AUIA-a" 1
Layer: 1 1 "Plan pierwszy" 0
XUID: [1021 783 23647091 8360855]
StyleMap: 0x0040
FSType: 0
OS2Version: 3
OS2_WeightWidthSlopeOnly: 0
OS2_UseTypoMetrics: 1
CreationTime: 1260698820
ModificationTime: 1621762647
PfmFamily: 33
TTFWeight: 400
TTFWidth: 5
LineGap: 200
VLineGap: 0
Panose: 2 12 5 4 4 5 3 6 2 4
OS2TypoAscent: 2000
OS2TypoAOffset: 0
OS2TypoDescent: -500
OS2TypoDOffset: 0
OS2TypoLinegap: 200
OS2WinAscent: 2000
OS2WinAOffset: 0
OS2WinDescent: 500
OS2WinDOffset: 0
HheadAscent: 2000
HheadAOffset: 0
HheadDescent: -500
HheadDOffset: 0
OS2SubXSize: 1434
OS2SubYSize: 1331
OS2SubXOff: 0
OS2SubYOff: 287
OS2SupXSize: 1434
OS2SupYSize: 1331
OS2SupXOff: 0
OS2SupYOff: 977
OS2StrikeYSize: 102
OS2StrikeYPos: 512
OS2CapHeight: 1530
OS2XHeight: 1120
OS2Vendor: '    '
OS2CodePages: 20000093.00000000
OS2UnicodeRanges: 8000002f.4000204b.00000000.00000000
Lookup: 258 0 0 "'kern' Horizontal Kerning lookup 0" { "'kern' Horizontal Kerning lookup 0-1 subtable" [307,0,4] } ['kern' ('DFLT' <'dflt' > 'grek' <'dflt' > 'latn' <'dflt' > ) ]
MarkAttachClasses: 1
DEI: 91125
KernClass2: 65 55 "'kern' Horizontal Kerning lookup 0-1 subtable"
 134 A M N Agrave Aacute Acircumflex Atilde Adieresis Aring Ntilde Amacron Abreve Aogonek Nacute Ncommaaccent Ncaron Eng Aringacute uni1E40
 28 B germandbls uni1E02 uni1E9E
 47 C Ccedilla Cacute Ccircumflex Cdotaccent Ccaron
 122 D O Q Eth Ograve Oacute Ocircumflex Otilde Odieresis Oslash Dcaron Dcroat Omacron Obreve Ohungarumlaut Oslashacute uni1E0A

StartChar: .notdef
Encoding: 65536 -1 0
Width: 994
Flags: W
HStem: 0 68<260 734> 1442 68<260 734>
VStem: 150 110<68 1442> 734 110<68 1442>
LayerCount: 2
Fore
SplineSet
150 0 m 1,0,-1
 150 1510 l 1,1,-1
 844 1510 l 1,2,-1
 844 0 l 1,3,-1
 150 0 l 1,0,-1
260 68 m 1,4,-1
 734 68 l 1,5,-1
 734 1442 l 1,6,-1
 260 1442 l 1,7,-1
 260 68 l 1,4,-1
EndSplineSet
Validated: 1
EndChar

StartChar: exclam
Encoding: 33 33 4
Width: 600
GlyphClass: 2
Flags: W
HStem: -20 245<216.097 383.903> 1510 20G<347.778 400>
VStem: 180 240<17.1285 187.871> 200 200<490 1440>
LayerCount: 2
Fore
SplineSet
300 -20 m 128,-1,1
 250 -20 250 -20 215 16 c 128,-1,2
 180 52 180 52 180 102.5 c 128,-1,3
 180 153 180 153 215 189 c 128,-1,4
 250 225 250 225 300 225 c 128,-1,5
 350 225 350 225 385 189 c 128,-1,6
 420 153 420 153 420 102.5 c 128,-1,7
 420 52 420 52 385 16 c 128,-1,0
 350 -20 350 -20 300 -20 c 128,-1,1
390 1530 m 1,8,-1
 400 1530 l 1,9,-1
 400 490 l 1,10,-1
 210 400 l 1,11,-1
 200 400 l 1,12,-1
 200 1440 l 1,13,-1
 390 1530 l 1,8,-1
EndSplineSet
Validated: 1
EndChar

StartChar: quotedbl
Encoding: 34 34 5
Width: 453
GlyphClass: 2
Flags: W
HStem: 1140 440
VStem: 50 120<1192 1528> 283 120<1192 1528>
LayerCount: 2
Fore
SplineSet
393 1580 m 1,0,-1
 403 1580 l 1,1,-1
 403 1192 l 1,2,-1
 293 1140 l 1,3,-1
 283 1140 l 1,4,-1
 283 1528 l 1,5,-1
 393 1580 l 1,0,-1
160 1580 m 1,6,-1
 170 1580 l 1,7,-1
 170 1192 l 1,8,-1
 60 1140 l 1,9,-1
 50 1140 l 1,10,-1
 50 1528 l 1,11,-1
 160 1580 l 1,6,-1
EndSplineSet
Validated: 1
EndChar

StartChar: numbersign
Encoding: 35 35 6
Width: 1368
GlyphClass: 2
Flags: W
HStem: 520 120<202 448 568 800 920 1166> 872 120<202 448 568 800 920 1166>
VStem: 448 120<274 520 640 872 992 1238> 800 120<274 520 640 872 992 1238>
LayerCount: 2
Fore
SplineSet
558 1290 m 1,0,-1
 568 1290 l 1,1,-1
 568 992 l 1,2,-1
 800 992 l 1,3,-1
 800 1238 l 1,4,-1
 910 1290 l 1,5,-1
 920 1290 l 1,6,-1
 920 992 l 1,7,-1
 1218 992 l 1,8,-1
 1218 982 l 1,9,-1
 1166 872 l 1,10,-1
 920 872 l 1,11,-1
 920 640 l 1,12,-1
 1218 640 l 1,13,-1
 1218 630 l 1,14,-1
 1166 520 l 1,15,-1
 920 520 l 1,16,-1
 920 274 l 1,17,-1
 810 222 l 1,18,-1
 800 222 l 1,19,-1
 800 520 l 1,20,-1
 568 520 l 1,21,-1
 568 274 l 1,22,-1
 458 222 l 1,23,-1
 448 222 l 1,24,-1
 448 520 l 1,25,-1
 150 520 l 1,26,-1
 150 530 l 1,27,-1
 202 640 l 1,28,-1
 448 640 l 1,29,-1
 448 872 l 1,30,-1
 150 872 l 1,31,-1
 150 882 l 1,32,-1
 202 992 l 1,33,-1
 448 992 l 1,34,-1
 448 1238 l 1,35,-1
 558 1290 l 1,0,-1
800 872 m 1,36,-1
 568 872 l 1,37,-1
 568 640 l 1,38,-1
 800 640 l 1,39,-1
 800 872 l 1,36,-1
EndSplineSet
Validated: 1
EndChar

StartChar: dollar
Encoding: 36 36 7
Width: 1140
GlyphClass: 2
Flags: W
HStem: 0 90<309.17 516 616 799.973> 799 90<382.688 516 616 799.973> 1110 21G<752 804.391> 1430 80<390.964 516 616 719.036>
VStem: 60 215<154.178 358> 153 200<916.188 1392.81> 516 100<-78 0 90 799 889 1430 1510 1588> 752 205<1202 1389.69> 830 210<150.732 738.268>
LayerCount: 2
Fore
SplineSet
690 0 m 2,0,-1
 616 0 l 1,1,-1
 616 -78 l 1,2,-1
 526 -120 l 1,3,-1
 516 -120 l 1,4,-1
 516 -0 l 1,5,-1
 410 0 l 2,6,7
 60 0 60 0 60 358 c 1,8,-1
 265 455 l 1,9,-1
 275 455 l 1,10,-1
 275 230 l 2,11,12
 275 90 275 90 415 90 c 2,13,-1
 516 90 l 1,14,-1
 516 799 l 1,15,-1
 453 799 l 2,16,17
 153 799 153 799 153 1099 c 2,18,-1
 153 1210 l 2,19,20
 153 1510 153 1510 453 1510 c 2,21,-1
 516 1510 l 1,22,-1
 516 1588 l 1,23,-1
 606 1630 l 1,24,-1
 616 1630 l 1,25,-1
 616 1510 l 1,26,-1
 657 1510 l 2,27,28
 957 1510 957 1510 957 1202 c 1,29,-1
 762 1110 l 1,30,-1
 752 1110 l 1,31,-1
 752 1295 l 2,32,33
 752 1428 752 1428 616 1430 c 1,34,-1
 616 889 l 1,35,-1
 690 889 l 2,36,37
 1040 889 1040 889 1040 539 c 2,38,-1
 1040 350 l 2,39,40
 1040 0 1040 0 690 0 c 2,0,-1
516 889 m 1,41,-1
 516 1430 l 1,42,-1
 493 1430 l 2,43,44
 353 1430 353 1430 353 1290 c 2,45,-1
 353 1029 l 2,46,47
 353 889 353 889 493 889 c 2,48,-1
 516 889 l 1,41,-1
616 799 m 1,49,-1
 616 90 l 1,50,-1
 690 90 l 2,51,52
 830 90 830 90 830 230 c 2,53,-1
 830 659 l 2,54,55
 830 799 830 799 690 799 c 2,56,-1
 616 799 l 1,49,-1
EndSplineSet
Validated: 1
EndChar

StartChar: percent
Encoding: 37 37 8
Width: 1547
GlyphClass: 2
Flags: W
HStem: -20 21G<444.032 504.341> 0 66<947.062 1246.94> 544 66<947.062 1246.94> 900 66<300.062 599.938> 1444 66<300.062 599.938> 1510 20G<1042.67 1103.29>
VStem: 150 145<968.393 1441.61> 605 145<968.393 1441.61> 797 145<68.3926 541.607> 1252 145<68.3926 541.607>
DStem2: 358 42 495 -20 0.423185 0.906043<1.80173 1641.88>
LayerCount: 2
Fore
SplineSet
992 66 m 2,0,-1
 1202 66 l 2,1,2
 1252 66 1252 66 1252 116 c 2,3,-1
 1252 494 l 2,4,5
 1252 544 1252 544 1202 544 c 2,6,7
 992 544 l 2,8,9
 942 544 942 544 942 494 c 2,10,-1
 942 116 l 2,11,12
 942 66 942 66 992 66 c 2,0,-1
1201 0 m 2,13,-1
 993 0 l 2,14,15
 797 0 797 0 797 194 c 2,16,-1
 797 416 l 2,17,18
 797 610 797 610 993 610 c 2,19,-1
 1201 610 l 2,20,21
 1397 610 1397 610 1397 416 c 2,22,-1
 1397 194 l 2,23,24
 1397 0 1397 0 1201 0 c 2,13,-1
555 1444 m 2,25,-1
 345 1444 l 2,26,27
 295 1444 295 1444 295 1394 c 2,28,-1
 295 1016 l 2,29,30
 295 966 295 966 345 966 c 2,31,-1
 555 966 l 2,32,33
 605 966 605 966 605 1016 c 2,34,-1
 605 1394 l 2,35,36
 605 1444 605 1444 555 1444 c 2,25,-1
346 1510 m 2,37,-1
 554 1510 l 2,38,39
 750 1510 750 1510 750 1316 c 2,40,-1
 750 1094 l 2,41,42
 750 900 750 900 554 900 c 2,43,-1
 346 900 l 2,44,45
 150 900 150 900 150 1094 c 2,46,-1
 150 1316 l 2,47,48
 150 1510 150 1510 346 1510 c 2,37,-1
485 -20 m 1,49,-1
 358 42 l 1,50,-1
 1052 1530 l 1,51,-1
 1062 1530 l 1,52,-1
 1190 1468 l 1,53,-1
 495 -20 l 1,54,-1
 485 -20 l 1,49,-1
EndSplineSet
Validated: 1
EndChar

StartChar: ampersand
Encoding: 38 38 9
Width: 1624
GlyphClass: 2
Flags: W
HStem: -20 21G<1276.37 1345.22> 0 90<390.027 997.992> 791 90<459.668 625> 1430 80<462.253 813.121>
VStem: 150 210<150.732 762.149> 240 190<928.262 1376.49> 845 204<1223.2 1377.66> 1247 209<612.007 827>
DStem2: 805 881 625 791 0.632157 -0.774841<0 598.481 790.763 1006.62>
LayerCount: 2
Fore
SplineSet
1089 226 m 1,0,1
 625 791 l 1,2,-1
 500 791 l 2,3,4
 360 791 360 791 360 651 c 2,5,-1
 360 230 l 2,6,7
 360 90 360 90 500 90 c 2,8,-1
 843 90 l 2,9,10
 1003 90 1003 90 1089 226 c 1,0,1
833 0 m 2,11,-1
 500 0 l 2,12,13
 150 0 150 0 150 350 c 2,14,-1
 150 576 l 2,15,16
 150 824 150 824 326 884 c 1,17,18
 240 952 240 952 240 1096 c 2,19,-1
 240 1200 l 2,20,21
 240 1510 240 1510 590 1510 c 2,22,-1
 700 1510 l 2,23,24
 1031 1510 1031 1510 1049 1230 c 1,25,-1
 855 1138 l 1,26,-1
 845 1138 l 1,27,-1
 845 1290 l 2,28,29
 845 1430 845 1430 705 1430 c 2,30,-1
 570 1430 l 2,31,32
 430 1430 430 1430 430 1290 c 2,33,-1
 430 1021 l 2,34,35
 430 881 430 881 570 881 c 2,36,-1
 805 881 l 1,37,-1
 1183 417 l 1,38,39
 1247 613 1247 613 1247 827 c 1,40,-1
 1442 919 l 1,41,-1
 1456 914 l 1,42,43
 1456 595 1456 595 1274 306 c 1,44,-1
 1474 61 l 1,45,-1
 1303 -20 l 1,46,-1
 1293 -20 l 1,47,-1
 1155 146 l 1,48,49
 1043 0 1043 0 833 0 c 2,11,-1
EndSplineSet
Validated: 1
EndChar

StartChar: quotesingle
Encoding: 39 39 10
Width: 220
GlyphClass: 2
Flags: W
HStem: 1140 440
VStem: 50 120<1192 1528>
LayerCount: 2
Fore
SplineSet
160 1580 m 1,0,-1
 170 1580 l 1,1,-1
 170 1192 l 1,2,-1
 60 1140 l 1,3,-1
 50 1140 l 1,4,-1
 50 1528 l 1,5,-1
 160 1580 l 1,0,-1
EndSplineSet
Validated: 1
EndChar

StartChar: parenleft
Encoding: 40 40 11
Width: 756
GlyphClass: 2
Flags: W
HStem: -240 90<431.055 706> 1660 90<431.055 706>
VStem: 200 200<-89.2676 1599.27>
LayerCount: 2
Fore
SplineSet
706 -240 m 1,0,-1
 550 -240 l 2,1,2
 200 -240 200 -240 200 110 c 2,3,-1
 200 1400 l 2,4,5
 200 1750 200 1750 550 1750 c 2,6,-1
 706 1750 l 1,7,-1
 706 1660 l 1,8,-1
 540 1660 l 2,9,10
 400 1660 400 1660 400 1520 c 2,11,-1
 400 -10 l 2,12,13
 400 -150 400 -150 540 -150 c 2,14,-1
 706 -150 l 1,15,-1
 706 -240 l 1,0,-1
EndSplineSet
Validated: 1
EndChar

StartChar: parenright
Encoding: 41 41 12
Width: 756
GlyphClass: 2
Flags: W
HStem: -240 90<50 324.945> 1660 90<50 324.945>
VStem: 356 200<-89.2676 1599.27>
LayerCount: 2
Fore
SplineSet
50 -240 m 1,0,-1
 50 -150 l 1,1,-1
 216 -150 l 2,2,3
 356 -150 356 -150 356 -10 c 2,4,-1
 356 1520 l 2,5,6
 356 1660 356 1660 216 1660 c 2,7,-1
 50 1660 l 1,8,-1
 50 1750 l 1,9,-1
 206 1750 l 2,10,11
 556 1750 556 1750 556 1400 c 2,12,-1
 556 110 l 2,13,14
 556 -240 556 -240 206 -240 c 2,15,-1
 50 -240 l 1,0,-1
EndSplineSet
Validated: 1
EndChar

StartChar: asterisk
Encoding: 42 42 13
Width: 748
GlyphClass: 2
Flags: W
HStem: 900 680
VStem: 314 120<952 1136 1344 1528>
DStem2: 155 1436 50 1358 0.865681 -0.500596<0 183.698 391.704 575.402> 50 1122 155 1044 0.865681 0.500596<51.85 235.548 443.554 627.252>
LayerCount: 2
Fore
SplineSet
424 1580 m 1,0,-1
 434 1580 l 1,1,-1
 434 1344 l 1,2,-1
 593 1436 l 1,3,-1
 693 1367 l 1,4,-1
 698 1358 l 1,5,-1
 494 1240 l 1,6,-1
 698 1122 l 1,7,-1
 693 1113 l 1,8,-1
 593 1044 l 1,9,-1
 434 1136 l 1,10,-1
 434 952 l 1,11,-1
 324 900 l 1,12,-1
 314 900 l 1,13,-1
 314 1136 l 1,14,-1
 155 1044 l 1,15,-1
 55 1113 l 1,16,-1
 50 1122 l 1,17,-1
 254 1240 l 1,18,-1
 50 1358 l 1,19,-1
 55 1367 l 1,20,-1
 155 1436 l 1,21,-1
 314 1344 l 1,22,-1
 314 1528 l 1,23,-1
 424 1580 l 1,0,-1
EndSplineSet
Validated: 1
EndChar

StartChar: plus
Encoding: 43 43 14
Width: 1200
GlyphClass: 2
Flags: W
HStem: 680 150<216 525 675 984>
VStem: 525 150<371 680 830 1139>
LayerCount: 2
Fore
SplineSet
525 1139 m 1,0,-1
 665 1205 l 1,1,-1
 675 1205 l 1,2,-1
 675 830 l 1,3,-1
 1050 830 l 1,4,-1
 1050 820 l 1,5,-1
 984 680 l 1,6,-1
 675 680 l 1,7,-1
 675 371 l 1,8,-1
 535 305 l 1,9,-1
 525 305 l 1,10,-1
 525 680 l 1,11,-1
 150 680 l 1,12,-1
 150 690 l 1,13,-1
 216 830 l 1,14,-1
 525 830 l 1,15,-1
 525 1139 l 1,0,-1
EndSplineSet
Validated: 1
EndChar

StartChar: comma
Encoding: 44 44 15
Width: 389
GlyphClass: 2
Flags: W
HStem: -276 554
VStem: 184 155<-122.682 121.561>
LayerCount: 2
Fore
SplineSet
220 278 m 1,0,-1
 230 278 l 1,1,2
 339 171 339 171 339 34 c 0,3,4
 339 -163 339 -163 114 -276 c 1,5,-1
 107 -269 l 1,6,7
 184 -139 184 -139 184 -10 c 128,-1,8
 184 119 184 119 50 198 c 1,9,-1
 220 278 l 1,0,-1
EndSplineSet
Validated: 1
EndChar

StartChar: hyphen
Encoding: 45 45 16
Width: 1200
GlyphClass: 2
Flags: W
HStem: 680 150<216 984>
LayerCount: 2
Fore
SplineSet
216 830 m 5,0,-1
 1050 830 l 5,1,-1
 1050 820 l 5,2,-1
 984 680 l 5,3,-1
 150 680 l 5,4,-1
 150 690 l 5,5,-1
 216 830 l 5,0,-1
EndSplineSet
Validated: 1
EndChar

StartChar: period
Encoding: 46 46 17
Width: 340
GlyphClass: 2
Flags: W
HStem: -20 245<86.0974 253.903>
VStem: 50 240<17.1285 187.871>
LayerCount: 2
Fore
SplineSet
170 -20 m 128,-1,1
 120 -20 120 -20 85 16 c 128,-1,2
 50 52 50 52 50 102.5 c 128,-1,3
 50 153 50 153 85 189 c 128,-1,4
 120 225 120 225 170 225 c 128,-1,5
 220 225 220 225 255 189 c 128,-1,6
 290 153 290 153 290 102.5 c 128,-1,7
 290 52 290 52 255 16 c 128,-1,0
 220 -20 220 -20 170 -20 c 128,-1,1
EndSplineSet
Validated: 1
EndChar

StartChar: slash
Encoding: 47 47 18
Width: 1019
GlyphClass: 2
Flags: W
DStem2: 10 -138 147 -200 0.422724 0.906258<1.72523 2038.73>
LayerCount: 2
Fore
SplineSet
137 -200 m 1,0,-1
 10 -138 l 1,1,-1
 871 1710 l 1,2,-1
 881 1710 l 1,3,-1
 1009 1648 l 1,4,-1
 147 -200 l 1,5,-1
 137 -200 l 1,0,-1
EndSplineSet
Validated: 1
EndChar

StartChar: zero
Encoding: 48 48 19
Width: 1330
GlyphClass: 2
Flags: W
HStem: 0 90<391.055 938.945> 1420 90<391.055 938.945>
VStem: 160 200<150.732 1359.27> 970 200<150.732 1359.27>
LayerCount: 2
Fore
SplineSet
500 90 m 2,0,-1
 830 90 l 2,1,2
 970 90 970 90 970 230 c 2,3,-1
 970 1280 l 2,4,5
 970 1420 970 1420 830 1420 c 2,6,-1
 500 1420 l 2,7,8
 360 1420 360 1420 360 1280 c 2,9,-1
 360 230 l 2,10,11
 360 90 360 90 500 90 c 2,0,-1
510 0 m 2,12,13
 160 0 160 0 160 350 c 2,14,-1
 160 1160 l 2,15,16
 160 1510 160 1510 510 1510 c 2,17,-1
 820 1510 l 2,18,19
 1170 1510 1170 1510 1170 1160 c 2,20,-1
 1170 350 l 2,21,22
 1170 0 1170 0 820 0 c 2,23,-1
 510 0 l 2,12,13
EndSplineSet
Validated: 1
EndChar

StartChar: one
Encoding: 49 49 20
Width: 714
GlyphClass: 2
Flags: W
HStem: -20 21G<264 316.222> 1510 20G<412.068 464>
VStem: 264 200<70 1342>
DStem2: 20 1323 20 1228 0.902591 0.430499<0 228.412>
LayerCount: 2
Fore
SplineSet
264 -20 m 1,0,-1
 264 1342 l 1,1,-1
 20 1228 l 1,2,-1
 20 1323 l 1,3,-1
 454 1530 l 1,4,-1
 464 1530 l 1,5,-1
 464 70 l 1,6,-1
 274 -20 l 1,7,-1
 264 -20 l 1,0,-1
EndSplineSet
Validated: 1
EndChar

StartChar: two
Encoding: 50 50 21
Width: 1233
GlyphClass: 2
Flags: W
HStem: 0 179<309 1023> 1420 90<350.797 838.973>
VStem: 109 215<1134 1356.8> 869 210<867.662 1359.27>
DStem2: 160 180 309 179 0.766069 0.642758<113.502 878.358>
LayerCount: 2
Fore
SplineSet
80 0 m 1,0,-1
 80 10 l 1,1,-1
 160 180 l 1,2,-1
 657 597 l 2,3,4
 869 775 869 775 869 1039 c 2,5,-1
 869 1280 l 2,6,7
 869 1420 869 1420 729 1420 c 2,8,-1
 464 1420 l 2,9,10
 324 1420 324 1420 324 1280 c 2,11,-1
 324 1134 l 1,12,-1
 119 1036 l 1,13,-1
 109 1036 l 1,14,-1
 109 1160 l 2,15,16
 109 1510 109 1510 489 1510 c 2,17,-1
 729 1510 l 2,18,19
 1079 1510 1079 1510 1079 1160 c 2,20,-1
 1079 1037 l 2,21,22
 1079 817 1079 817 774 564 c 2,23,-1
 309 179 l 1,24,-1
 1103 180 l 1,25,-1
 1103 170 l 1,26,-1
 1023 0 l 1,27,-1
 80 0 l 1,0,-1
EndSplineSet
Validated: 1
EndChar

StartChar: three
Encoding: 51 51 22
Width: 1223
GlyphClass: 2
Flags: W
HStem: 0 90<349.17 842.973> 861 90<696 842.973> 1420 90<251 755>
VStem: 100 215<154.178 358> 873 210<150.732 800.268>
DStem2: 484 911 696 951 0.496808 0.867861<140.038 576.376>
LayerCount: 2
Fore
SplineSet
450 0 m 2,0,1
 100 0 100 0 100 358 c 1,2,-1
 305 455 l 1,3,-1
 315 455 l 1,4,-1
 315 230 l 2,5,6
 315 90 315 90 455 90 c 2,7,-1
 733 90 l 2,8,9
 873 90 873 90 873 230 c 2,10,-1
 873 721 l 2,11,12
 873 861 873 861 733 861 c 2,13,-1
 524 861 l 1,14,-1
 484 911 l 1,15,-1
 755 1420 l 1,16,-1
 213 1420 l 1,17,-1
 213 1430 l 1,18,-1
 251 1510 l 1,19,-1
 1016 1510 l 1,20,-1
 696 951 l 1,21,-1
 733 951 l 2,22,23
 1083 951 1083 951 1083 601 c 2,24,-1
 1083 350 l 2,25,26
 1083 0 1083 0 733 0 c 2,27,-1
 450 0 l 2,0,1
EndSplineSet
Validated: 1
EndChar

StartChar: four
Encoding: 52 52 23
Width: 1232
GlyphClass: 2
Flags: W
HStem: -20 21G<782 834.222> 340 90<179 782 982 1094> 1510 20G<929.778 982>
VStem: 782 200<70 340 430 1281>
DStem2: 10 350 179 430 0.577976 0.816054<162.962 1205.94>
LayerCount: 2
Fore
SplineSet
179 430 m 1,0,-1
 782 430 l 1,1,-1
 782 1281 l 1,2,-1
 179 430 l 1,0,-1
782 -20 m 1,3,-1
 782 340 l 1,4,-1
 10 340 l 1,5,-1
 10 350 l 1,6,-1
 782 1440 l 1,7,-1
 972 1530 l 1,8,-1
 982 1530 l 1,9,-1
 982 430 l 1,10,-1
 1132 430 l 1,11,-1
 1132 420 l 1,12,-1
 1094 340 l 1,13,-1
 982 340 l 1,14,-1
 982 70 l 1,15,-1
 792 -20 l 1,16,-1
 782 -20 l 1,3,-1
EndSplineSet
Validated: 1
EndChar

StartChar: five
Encoding: 53 53 24
Width: 1223
GlyphClass: 2
Flags: W
HStem: 0 90<349.17 842.973> 861 90<386.516 842.973> 1420 90<509 988>
VStem: 100 215<154.178 358> 873 210<150.732 800.268>
DStem2: 166 808 342 723 0.231433 0.972851<0 88.5816 166.222 674.766>
LayerCount: 2
Fore
SplineSet
450 0 m 2,0,1
 100 0 100 0 100 358 c 1,2,-1
 305 455 l 1,3,-1
 315 455 l 1,4,-1
 315 230 l 2,5,6
 315 90 315 90 455 90 c 2,7,-1
 733 90 l 2,8,9
 873 90 873 90 873 230 c 2,10,-1
 873 721 l 2,11,12
 873 861 873 861 733 861 c 2,13,-1
 500 861 l 2,14,15
 371 861 371 861 342 723 c 1,16,-1
 166 808 l 1,17,-1
 333 1510 l 1,18,-1
 1026 1510 l 1,19,-1
 1026 1500 l 1,20,-1
 988 1420 l 1,21,-1
 509 1420 l 1,22,-1
 384 927 l 1,23,24
 452 951 452 951 510 951 c 2,25,-1
 733 951 l 2,26,27
 1083 951 1083 951 1083 601 c 2,28,-1
 1083 350 l 2,29,30
 1083 0 1083 0 733 0 c 2,31,-1
 450 0 l 2,0,1
EndSplineSet
Validated: 1
EndChar

StartChar: six
Encoding: 54 54 25
Width: 1300
GlyphClass: 2
Flags: W
HStem: 0 90<391.055 909.973> 864 90<387.686 909.973> 1420 90<391.055 900.83>
VStem: 160 200<150.732 837.203 908 1359.27> 940 210<150.732 803.268 1152 1355.82>
LayerCount: 2
Fore
SplineSet
360 724 m 2,0,-1
 360 230 l 2,1,2
 360 90 360 90 500 90 c 2,3,-1
 800 90 l 2,4,5
 940 90 940 90 940 230 c 2,6,-1
 940 724 l 2,7,8
 940 864 940 864 800 864 c 2,9,-1
 500 864 l 2,10,11
 360 864 360 864 360 724 c 2,0,-1
800 0 m 2,12,-1
 510 0 l 2,13,14
 160 0 160 0 160 350 c 2,15,-1
 160 1160 l 2,16,17
 160 1510 160 1510 510 1510 c 2,18,-1
 800 1510 l 2,19,20
 1150 1510 1150 1510 1150 1152 c 1,21,-1
 945 1055 l 1,22,-1
 935 1055 l 1,23,-1
 935 1280 l 2,24,25
 935 1420 935 1420 795 1420 c 2,26,-1
 500 1420 l 2,27,28
 360 1420 360 1420 360 1280 c 2,29,-1
 360 908 l 1,30,31
 420 954 420 954 510 954 c 2,32,-1
 800 954 l 2,33,34
 1150 954 1150 954 1150 604 c 2,35,-1
 1150 350 l 2,36,37
 1150 0 1150 0 800 0 c 2,12,-1
EndSplineSet
Validated: 1
EndChar

StartChar: seven
Encoding: 55 55 26
Width: 967
GlyphClass: 2
Flags: W
HStem: -20 21G<162 214.167> 1420 90<48 720>
DStem2: 162 -20 425 100 0.361321 0.932441<206.92 1544.33>
LayerCount: 2
Fore
SplineSet
162 -20 m 1,0,-1
 720 1420 l 1,1,-1
 10 1420 l 1,2,-1
 10 1430 l 1,3,-1
 48 1510 l 1,4,-1
 957 1510 l 1,5,-1
 957 1500 l 1,6,-1
 425 100 l 1,7,-1
 172 -20 l 1,8,-1
 162 -20 l 1,0,-1
EndSplineSet
Validated: 1
EndChar

StartChar: eight
Encoding: 56 56 27
Width: 1210
GlyphClass: 2
Flags: W
HStem: 0 90<350.027 859.973> 791 90<419.668 790.332> 1430 80<422.253 787.747>
VStem: 110 210<150.732 745.914> 200 190<932.987 1376.49> 820 190<932.987 1376.49> 890 210<150.732 745.914>
LayerCount: 2
Fore
SplineSet
460 90 m 2,0,1
 750 90 l 2,2,3
 890 90 890 90 890 230 c 2,4,-1
 890 651 l 2,5,6
 890 791 890 791 750 791 c 2,7,-1
 460 791 l 2,8,9
 320 791 320 791 320 651 c 2,10,-1
 320 230 l 2,11,12
 320 90 320 90 460 90 c 2,0,1
530 881 m 2,13,-1
 680 881 l 2,14,15
 820 881 820 881 820 1021 c 2,16,-1
 820 1290 l 2,17,18
 820 1430 820 1430 680 1430 c 2,19,-1
 530 1430 l 2,20,21
 390 1430 390 1430 390 1290 c 2,22,-1
 390 1021 l 2,23,24
 390 881 390 881 530 881 c 2,13,-1
750 0 m 2,25,-1
 460 0 l 2,26,27
 110 0 110 0 110 350 c 2,28,-1
 110 576 l 2,29,30
 110 810 110 810 332 862 c 1,31,32
 200 922 200 922 200 1096 c 2,33,-1
 200 1200 l 2,34,35
 200 1510 200 1510 550 1510 c 2,36,-1
 660 1510 l 2,37,38
 1010 1510 1010 1510 1010 1200 c 2,39,-1
 1010 1096 l 2,40,41
 1010 922 1010 922 878 862 c 1,42,43
 1100 810 1100 810 1100 576 c 2,44,-1
 1100 350 l 2,45,46
 1100 0 1100 0 750 0 c 2,25,-1
EndSplineSet
Validated: 1
EndChar

StartChar: nine
Encoding: 57 57 28
Width: 1300
GlyphClass: 2
Flags: W
HStem: 0 90<399.17 908.945> 556 90<390.027 912.314> 1420 90<390.027 908.945>
VStem: 150 210<154.178 358 706.732 1359.27> 940 200<150.732 602 672.797 1359.27>
LayerCount: 2
Fore
SplineSet
940 786 m 2,0,-1
 940 1280 l 2,1,2
 940 1420 940 1420 800 1420 c 2,3,-1
 500 1420 l 2,4,5
 360 1420 360 1420 360 1280 c 2,6,-1
 360 786 l 2,7,8
 360 646 360 646 500 646 c 2,9,-1
 800 646 l 2,10,11
 940 646 940 646 940 786 c 2,0,-1
790 0 m 2,12,-1
 500 0 l 2,13,14
 150 0 150 0 150 358 c 1,15,-1
 355 455 l 1,16,-1
 365 455 l 1,17,-1
 365 230 l 2,18,19
 365 90 365 90 505 90 c 2,20,-1
 800 90 l 2,21,22
 940 90 940 90 940 230 c 2,23,-1
 940 602 l 1,24,25
 880 556 880 556 790 556 c 2,26,-1
 500 556 l 2,27,28
 150 556 150 556 150 906 c 2,29,-1
 150 1160 l 2,30,31
 150 1510 150 1510 500 1510 c 2,32,-1
 790 1510 l 2,33,34
 1140 1510 1140 1510 1140 1160 c 2,35,-1
 1140 350 l 2,36,37
 1140 0 1140 0 790 0 c 2,12,-1
EndSplineSet
Validated: 1
EndChar

StartChar: colon
Encoding: 58 58 29
Width: 340
GlyphClass: 2
Flags: W
HStem: -20 245<86.0974 253.903> 632 245<86.0974 253.903>
VStem: 50 240<17.1285 187.871 669.129 839.871>
LayerCount: 2
Fore
SplineSet
170 877 m 128,-1,1
 220 877 220 877 255 841 c 128,-1,2
 290 805 290 805 290 754.5 c 128,-1,3
 290 704 290 704 255 668 c 128,-1,4
 220 632 220 632 170 632 c 128,-1,5
 120 632 120 632 85 668 c 128,-1,6
 50 704 50 704 50 754.5 c 128,-1,7
 50 805 50 805 85 841 c 128,-1,0
 120 877 120 877 170 877 c 128,-1,1
170 -20 m 128,-1,9
 120 -20 120 -20 85 16 c 128,-1,10
 50 52 50 52 50 102.5 c 128,-1,11
 50 153 50 153 85 189 c 128,-1,12
 120 225 120 225 170 225 c 128,-1,13
 220 225 220 225 255 189 c 128,-1,14
 290 153 290 153 290 102.5 c 128,-1,15
 290 52 290 52 255 16 c 128,-1,8
 220 -20 220 -20 170 -20 c 128,-1,9
EndSplineSet
Validated: 1
EndChar

StartChar: semicolon
Encoding: 59 59 30
Width: 389
GlyphClass: 2
Flags: W
HStem: 632 245<106.097 273.903>
VStem: 70 240<669.129 839.871> 184 155<-122.682 121.561>
LayerCount: 2
Fore
SplineSet
190 877 m 128,-1,1
 240 877 240 877 275 841 c 128,-1,2
 310 805 310 805 310 754.5 c 128,-1,3
 310 704 310 704 275 668 c 128,-1,4
 240 632 240 632 190 632 c 128,-1,5
 140 632 140 632 105 668 c 128,-1,6
 70 704 70 704 70 754.5 c 128,-1,7
 70 805 70 805 105 841 c 128,-1,0
 140 877 140 877 190 877 c 128,-1,1
220 278 m 1,8,-1
 230 278 l 1,9,10
 339 171 339 171 339 34 c 0,11,12
 339 -163 339 -163 114 -276 c 1,13,-1
 107 -269 l 1,14,15
 184 -139 184 -139 184 -10 c 128,-1,16
 184 119 184 119 50 198 c 1,17,-1
 220 278 l 1,8,-1
EndSplineSet
Validated: 1
EndChar

StartChar: less
Encoding: 60 60 31
Width: 1315
GlyphClass: 2
Flags: W
DStem2: 300 781 150 680 0.942662 -0.33375<0 848.114> 216 830 300 781 0.937476 0.348051<61.6934 928.024>
LayerCount: 2
Fore
SplineSet
216 830 m 1,0,-1
 1086 1153 l 1,1,-1
 1115 1093 l 1,2,-1
 1115 1083 l 1,3,-1
 300 781 l 1,4,-1
 1115 505 l 1,5,-1
 1115 495 l 1,6,-1
 1051 361 l 1,7,-1
 150 680 l 1,8,-1
 150 690 l 1,9,-1
 216 830 l 1,0,-1
EndSplineSet
Validated: 1
EndChar

StartChar: equal
Encoding: 61 61 32
Width: 1200
GlyphClass: 2
Flags: W
HStem: 480 150<216 984> 880 150<216 984>
LayerCount: 2
Fore
SplineSet
216 1030 m 1,0,-1
 1050 1030 l 1,1,-1
 1050 1020 l 1,2,-1
 984 880 l 1,3,-1
 150 880 l 1,4,-1
 150 890 l 1,5,-1
 216 1030 l 1,0,-1
216 630 m 1,6,-1
 1050 630 l 1,7,-1
 1050 620 l 1,8,-1
 984 480 l 1,9,-1
 150 480 l 1,10,-1
 150 490 l 1,11,-1
 216 630 l 1,6,-1
EndSplineSet
Validated: 1
EndChar

StartChar: greater
Encoding: 62 62 33
Width: 1315
GlyphClass: 2
Flags: W
DStem2: 264 1149 200 1005 0.942662 -0.33375<0 848.114> 200 427 229 357 0.937476 0.348051<2.8232 869.154>
LayerCount: 2
Fore
SplineSet
1099 680 m 1,0,-1
 229 357 l 1,1,-1
 200 417 l 1,2,-1
 200 427 l 1,3,-1
 1015 729 l 1,4,-1
 200 1005 l 1,5,-1
 200 1015 l 1,6,-1
 264 1149 l 1,7,-1
 1165 830 l 1,8,-1
 1165 820 l 1,9,-1
 1099 680 l 1,0,-1
EndSplineSet
Validated: 1
EndChar

StartChar: question
Encoding: 63 63 34
Width: 1270
GlyphClass: 2
Flags: W
HStem: -20 245<511.097 678.903> 1420 90<391.797 879.973>
VStem: 150 215<1134 1356.8> 475 240<17.1285 187.871> 498 203<399 521.716> 910 210<908.556 1359.27>
LayerCount: 2
Fore
SplineSet
530 1510 m 2,0,1
 770 1510 l 2,2,3
 1120 1510 1120 1510 1120 1160 c 2,4,-1
 1120 1115 l 2,5,6
 1120 801 1120 801 791 636 c 0,7,8
 701 591 701 591 701 399 c 1,9,-1
 508 306 l 1,10,-1
 498 306 l 1,11,12
 498 583 498 583 708 688 c 0,13,14
 910 789 910 789 910 1017 c 2,15,-1
 910 1280 l 2,16,17
 910 1420 910 1420 770 1420 c 2,18,-1
 505 1420 l 2,19,20
 365 1420 365 1420 365 1280 c 2,21,-1
 365 1134 l 1,22,-1
 160 1036 l 1,23,-1
 150 1036 l 1,24,-1
 150 1160 l 2,25,26
 150 1510 150 1510 530 1510 c 2,0,1
595 -20 m 128,-1,28
 545 -20 545 -20 510 16 c 128,-1,29
 475 52 475 52 475 102.5 c 128,-1,30
 475 153 475 153 510 189 c 128,-1,31
 545 225 545 225 595 225 c 128,-1,32
 645 225 645 225 680 189 c 128,-1,33
 715 153 715 153 715 102.5 c 128,-1,34
 715 52 715 52 680 16 c 128,-1,27
 645 -20 645 -20 595 -20 c 128,-1,28
EndSplineSet
Validated: 1
EndChar

StartChar: at
Encoding: 64 64 35
Width: 1380
GlyphClass: 2
Flags: W
HStem: -410 80<393.623 723> 0 80<730.021 1010> 589 80<730.021 1017> 1020 80<393.623 986.238>
VStem: 180 180<-259.268 949.268> 538 180<103.975 565.025> 1020 180<90 589 669 949.268>
LayerCount: 2
Fore
SplineSet
808 589 m 2,0,1
 718 589 718 589 718 499 c 2,2,-1
 718 170 l 2,3,4
 718 80 718 80 808 80 c 2,5,-1
 1020 80 l 1,6,-1
 1020 589 l 1,7,-1
 808 589 l 2,0,1
1010 0 m 1,8,-1
 818 0 l 2,9,10
 538 0 538 0 538 280 c 2,11,-1
 538 389 l 2,12,13
 538 669 538 669 818 669 c 2,14,-1
 1017 669 l 1,15,-1
 1017 880 l 2,16,17
 1017 1020 1017 1020 877 1020 c 2,18,-1
 500 1020 l 2,19,20
 360 1020 360 1020 360 880 c 2,21,-1
 360 -190 l 2,22,23
 360 -330 360 -330 500 -330 c 2,24,-1
 756 -330 l 1,25,-1
 756 -340 l 1,26,-1
 723 -410 l 1,27,-1
 530 -410 l 2,28,29
 180 -410 180 -410 180 -60 c 2,30,-1
 180 750 l 2,31,32
 180 1100 180 1100 530 1100 c 2,33,-1
 850 1100 l 2,34,35
 1200 1100 1200 1100 1200 750 c 2,36,-1
 1200 90 l 1,37,-1
 1010 0 l 1,8,-1
EndSplineSet
Validated: 1
EndChar

StartChar: A
Encoding: 65 65 36
Width: 1370
GlyphClass: 2
Flags: W
HStem: -20 21G<180 232.222 990 1042.22> 710 90<380 990> 1420 90<411.055 958.945>
VStem: 180 200<70 710 800 1359.27> 990 200<70 710 800 1359.27>
LayerCount: 2
Fore
SplineSet
190 -20 m 1,0,-1
 180 -20 l 1,1,-1
 180 1160 l 2,2,3
 180 1510 180 1510 530 1510 c 2,4,-1
 840 1510 l 2,5,6
 1190 1510 1190 1510 1190 1160 c 2,7,-1
 1190 70 l 1,8,-1
 1000 -20 l 1,9,-1
 990 -20 l 1,10,-1
 990 710 l 1,11,-1
 380 710 l 1,12,-1
 380 70 l 1,13,-1
 190 -20 l 1,0,-1
380 800 m 1,14,-1
 990 800 l 1,15,-1
 990 1280 l 2,16,17
 990 1420 990 1420 850 1420 c 2,18,-1
 520 1420 l 2,19,20
 380 1420 380 1420 380 1280 c 2,21,-1
 380 800 l 1,14,-1
EndSplineSet
Validated: 1
EndChar

StartChar: B
Encoding: 66 66 37
Width: 1250
GlyphClass: 2
Flags: W
HStem: 0 90<400 929.973> 791 90<400 852.812> 1420 90<400 848.945>
VStem: 200 200<90 791 881 1420> 880 200<928.262 1376.49> 960 210<150.732 762.149>
LayerCount: 2
Fore
SplineSet
400 90 m 1,0,-1
 820 90 l 2,1,2
 960 90 960 90 960 230 c 2,3,-1
 960 651 l 2,4,5
 960 791 960 791 820 791 c 2,6,-1
 400 791 l 1,7,-1
 400 90 l 1,0,-1
200 0 m 1,8,-1
 200 1440 l 1,9,-1
 348 1510 l 1,10,-1
 730 1510 l 2,11,12
 1080 1510 1080 1510 1080 1200 c 2,13,-1
 1080 1096 l 2,14,15
 1080 952 1080 952 994 884 c 1,16,17
 1170 824 1170 824 1170 576 c 2,18,-1
 1170 350 l 2,19,20
 1170 0 1170 0 820 0 c 2,21,-1
 200 0 l 1,8,-1
400 881 m 1,22,-1
 740 881 l 2,23,24
 880 881 880 881 880 1021 c 2,25,-1
 880 1280 l 2,26,27
 880 1420 880 1420 740 1420 c 2,28,-1
 400 1420 l 1,29,-1
 400 881 l 1,22,-1
EndSplineSet
Validated: 1
EndChar

StartChar: C
Encoding: 67 67 38
Width: 1230
GlyphClass: 2
Flags: W
HStem: 0 90<400.027 900.83> 1420 90<400.027 900.83>
VStem: 160 210<150.732 1359.27> 935 215<150.732 376 1152 1355.82>
LayerCount: 2
Fore
SplineSet
510 0 m 2,0,1
 160 0 160 0 160 350 c 2,2,-1
 160 1160 l 2,3,4
 160 1510 160 1510 510 1510 c 2,5,-1
 800 1510 l 2,6,7
 1150 1510 1150 1510 1150 1152 c 1,8,-1
 945 1055 l 1,9,-1
 935 1055 l 9,10,-1
 935 1280 l 2,11,12
 935 1420 935 1420 795 1420 c 2,13,-1
 510 1420 l 2,14,15
 370 1420 370 1420 370 1280 c 2,16,-1
 370 230 l 2,17,18
 370 90 370 90 510 90 c 2,19,-1
 795 90 l 2,20,21
 935 90 935 90 935 230 c 2,22,-1
 935 376 l 1,23,-1
 1140 474 l 1,24,-1
 1150 474 l 1,25,-1
 1150 350 l 2,26,27
 1150 0 1150 0 800 0 c 2,28,-1
 510 0 l 2,0,1
EndSplineSet
Validated: 1
EndChar

StartChar: D
Encoding: 68 68 39
Width: 1350
GlyphClass: 2
Flags: W
HStem: 0 90<400 949.973> 1420 90<400 949.973>
VStem: 200 200<90 1420> 980 210<150.732 1359.27>
LayerCount: 2
Fore
SplineSet
400 90 m 1,0,-1
 840 90 l 2,1,2
 980 90 980 90 980 230 c 2,3,-1
 980 1280 l 2,4,5
 980 1420 980 1420 840 1420 c 2,6,-1
 400 1420 l 1,7,-1
 400 90 l 1,0,-1
200 0 m 1,8,-1
 200 1440 l 1,9,-1
 348 1510 l 1,10,-1
 840 1510 l 2,11,12
 1190 1510 1190 1510 1190 1160 c 2,13,-1
 1190 350 l 2,14,15
 1190 0 1190 0 840 0 c 2,16,-1
 200 0 l 1,8,-1
EndSplineSet
Validated: 1
EndChar

StartChar: E
Encoding: 69 69 40
Width: 1060
GlyphClass: 2
Flags: W
HStem: 0 90<400 972> 710 90<400 922> 1420 90<400 922>
VStem: 200 200<90 710 800 1420>
CounterMasks: 1 e0
LayerCount: 2
Fore
SplineSet
200 0 m 1,0,-1
 200 1440 l 1,1,-1
 348 1510 l 1,2,-1
 960 1510 l 1,3,-1
 960 1500 l 1,4,-1
 922 1420 l 1,5,-1
 400 1420 l 1,6,-1
 400 800 l 1,7,-1
 960 800 l 1,8,-1
 960 790 l 1,9,-1
 922 710 l 1,10,-1
 400 710 l 1,11,-1
 400 90 l 1,12,-1
 1010 90 l 1,13,-1
 1010 80 l 1,14,-1
 972 0 l 1,15,-1
 200 0 l 1,0,-1
EndSplineSet
Validated: 1
EndChar

StartChar: F
Encoding: 70 70 41
Width: 1010
GlyphClass: 2
Flags: W
HStem: -20 21G<200 252.222> 710 90<400 922> 1420 90<400 922>
VStem: 200 200<70 710 800 1420>
LayerCount: 2
Fore
SplineSet
200 -20 m 1,0,-1
 200 1440 l 1,1,-1
 348 1510 l 1,2,-1
 960 1510 l 1,3,-1
 960 1500 l 1,4,-1
 922 1420 l 1,5,-1
 400 1420 l 1,6,-1
 400 800 l 1,7,-1
 960 800 l 1,8,-1
 960 790 l 1,9,-1
 922 710 l 1,10,-1
 400 710 l 1,11,-1
 400 70 l 1,12,-1
 210 -20 l 1,13,-1
 200 -20 l 1,0,-1
EndSplineSet
Validated: 1
EndChar

StartChar: G
Encoding: 71 71 42
Width: 1310
GlyphClass: 2
Flags: W
HStem: 0 90<400.027 918.945> 710 90<660 950> 1420 90<400.027 900.83>
VStem: 160 210<150.732 1359.27> 935 215<1152 1355.82> 950 200<150.732 710>
CounterMasks: 1 e0
LayerCount: 2
Fore
SplineSet
510 0 m 2,0,1
 160 0 160 0 160 350 c 2,2,-1
 160 1160 l 2,3,4
 160 1510 160 1510 510 1510 c 2,5,-1
 800 1510 l 2,6,7
 1150 1510 1150 1510 1150 1152 c 1,8,-1
 945 1055 l 1,9,-1
 935 1055 l 1,10,-1
 935 1280 l 2,11,12
 935 1420 935 1420 795 1420 c 2,13,-1
 510 1420 l 2,14,15
 370 1420 370 1420 370 1280 c 2,16,-1
 370 230 l 2,17,18
 370 90 370 90 510 90 c 2,19,-1
 810 90 l 2,20,21
 950 90 950 90 950 230 c 2,22,-1
 950 710 l 1,23,-1
 622 710 l 1,24,-1
 622 720 l 1,25,-1
 660 800 l 1,26,-1
 1150 800 l 1,27,-1
 1150 350 l 2,28,29
 1150 0 1150 0 800 0 c 2,30,-1
 510 0 l 2,0,1
EndSplineSet
Validated: 1
EndChar

StartChar: H
Encoding: 72 72 43
Width: 1400
GlyphClass: 2
Flags: W
HStem: -20 21G<200 252.222 1000 1052.22> 710 90<400 1000> 1510 20G<347.778 400 1147.78 1200>
VStem: 200 200<70 710 800 1440> 1000 200<70 710 800 1440>
LayerCount: 2
Fore
SplineSet
200 -20 m 1,0,-1
 200 1440 l 1,1,-1
 390 1530 l 1,2,-1
 400 1530 l 1,3,-1
 400 800 l 1,4,-1
 1000 800 l 1,5,-1
 1000 1440 l 1,6,-1
 1190 1530 l 1,7,-1
 1200 1530 l 1,8,-1
 1200 70 l 1,9,-1
 1010 -20 l 1,10,-1
 1000 -20 l 1,11,-1
 1000 710 l 1,12,-1
 400 710 l 1,13,-1
 400 70 l 1,14,-1
 210 -20 l 1,15,-1
 200 -20 l 1,0,-1
EndSplineSet
Validated: 1
EndChar

StartChar: I
Encoding: 73 73 44
Width: 600
GlyphClass: 2
Flags: W
HStem: -20 21G<200 252.222> 1510 20G<347.778 400>
VStem: 200 200<70 1440>
LayerCount: 2
Fore
SplineSet
200 -20 m 1,0,-1
 200 1440 l 1,1,-1
 390 1530 l 1,2,-1
 400 1530 l 1,3,-1
 400 70 l 1,4,-1
 210 -20 l 1,5,-1
 200 -20 l 1,0,-1
EndSplineSet
Validated: 1
EndChar

StartChar: J
Encoding: 74 74 45
Width: 1150
GlyphClass: 2
Flags: W
HStem: 0 90<279.17 758.945> 1420 90<163 790>
VStem: 30 215<154.178 358> 790 200<150.732 1420>
LayerCount: 2
Fore
SplineSet
380 0 m 2,0,1
 30 0 30 0 30 358 c 1,2,-1
 235 455 l 1,3,-1
 245 455 l 1,4,-1
 245 230 l 2,5,6
 245 90 245 90 385 90 c 2,7,-1
 650 90 l 2,8,9
 790 90 790 90 790 230 c 2,10,-1
 790 1420 l 1,11,-1
 125 1420 l 1,12,-1
 125 1430 l 1,13,-1
 163 1510 l 1,14,-1
 990 1510 l 1,15,-1
 990 350 l 2,16,17
 990 0 990 0 640 0 c 2,18,-1
 380 0 l 2,0,1
EndSplineSet
Validated: 1
EndChar

StartChar: K
Encoding: 75 75 46
Width: 1330
GlyphClass: 2
Flags: W
HStem: -20 21G<200 252.222 970 1022.22> 900 90<592 938.945> 1510 20G<347.778 400 1042.75 1117.82>
VStem: 200 200<70 873.203 957 1440> 970 200<70 839.268>
DStem2: 400 957 592 990 0.75805 0.652196<167.068 878.57>
LayerCount: 2
Fore
SplineSet
210 -20 m 1,0,-1
 200 -20 l 1,1,-1
 200 1440 l 1,2,-1
 390 1530 l 1,3,-1
 400 1530 l 1,4,-1
 400 957 l 1,5,-1
 1066 1530 l 1,6,-1
 1076 1530 l 1,7,-1
 1168 1486 l 1,8,-1
 592 990 l 1,9,-1
 820 990 l 2,10,11
 1170 990 1170 990 1170 640 c 2,12,-1
 1170 70 l 1,13,-1
 980 -20 l 1,14,-1
 970 -20 l 1,15,-1
 970 760 l 2,16,17
 970 900 970 900 830 900 c 2,18,-1
 540 900 l 2,19,20
 400 900 400 900 400 760 c 2,21,-1
 400 70 l 1,22,-1
 210 -20 l 1,0,-1
EndSplineSet
Validated: 1
EndChar

StartChar: L
Encoding: 76 76 47
Width: 1020
GlyphClass: 2
Flags: W
HStem: 0 90<400 972> 1510 20G<347.778 400>
VStem: 200 200<90 1440>
LayerCount: 2
Fore
SplineSet
200 0 m 1,0,-1
 200 1440 l 1,1,-1
 390 1530 l 1,2,-1
 400 1530 l 1,3,-1
 400 90 l 1,4,-1
 1010 90 l 1,5,-1
 1010 80 l 1,6,-1
 972 0 l 1,7,-1
 200 0 l 1,0,-1
EndSplineSet
Validated: 1
EndChar

StartChar: M
Encoding: 77 77 48
Width: 2180
GlyphClass: 2
Flags: W
HStem: -20 21G<180 232.222 990 1042.22 1800 1852.22> 1420 90<411.055 959.895 1220.11 1768.95>
VStem: 180 200<70 1359.27> 990 200<70 1393.2> 1800 200<70 1359.27>
CounterMasks: 1 38
LayerCount: 2
Fore
SplineSet
190 -20 m 1,0,-1
 180 -20 l 1,1,-1
 180 1160 l 2,2,3
 180 1510 180 1510 530 1510 c 2,4,-1
 840 1510 l 2,5,6
 1003 1510 1003 1510 1090 1434 c 1,7,8
 1177 1510 1177 1510 1340 1510 c 2,9,-1
 1650 1510 l 2,10,11
 2000 1510 2000 1510 2000 1160 c 2,12,-1
 2000 70 l 1,13,-1
 1810 -20 l 1,14,-1
 1800 -20 l 1,15,-1
 1800 1280 l 2,16,17
 1800 1420 1800 1420 1660 1420 c 2,18,-1
 1330 1420 l 2,19,20
 1190 1420 1190 1420 1190 1280 c 2,21,-1
 1190 70 l 1,22,-1
 1000 -20 l 1,23,-1
 990 -20 l 1,24,-1
 990 1280 l 2,25,26
 990 1420 990 1420 850 1420 c 2,27,-1
 520 1420 l 2,28,29
 380 1420 380 1420 380 1280 c 2,30,-1
 380 70 l 1,31,-1
 190 -20 l 1,0,-1
EndSplineSet
Validated: 1
EndChar

StartChar: N
Encoding: 78 78 49
Width: 1370
GlyphClass: 2
Flags: W
HStem: -20 21G<180 232.222 990 1042.22> 1420 90<411.055 958.945>
VStem: 180 200<70 1359.27> 990 200<70 1359.27>
LayerCount: 2
Fore
SplineSet
190 -20 m 1,0,-1
 180 -20 l 1,1,-1
 180 1160 l 2,2,3
 180 1510 180 1510 530 1510 c 2,4,-1
 840 1510 l 2,5,6
 1190 1510 1190 1510 1190 1160 c 2,7,-1
 1190 70 l 1,8,-1
 1000 -20 l 1,9,-1
 990 -20 l 1,10,-1
 990 1280 l 2,11,12
 990 1420 990 1420 850 1420 c 2,13,-1
 520 1420 l 2,14,15
 380 1420 380 1420 380 1280 c 2,16,-1
 380 70 l 1,17,-1
 190 -20 l 1,0,-1
EndSplineSet
Validated: 1
EndChar

StartChar: O
Encoding: 79 79 50
Width: 1330
GlyphClass: 2
Flags: W
HStem: 0 90<400.027 929.973> 1420 90<400.027 929.973>
VStem: 160 210<150.732 1359.27> 960 210<150.732 1359.27>
LayerCount: 2
Fore
SplineSet
510 90 m 2,0,-1
 820 90 l 2,1,2
 960 90 960 90 960 230 c 2,3,-1
 960 1280 l 2,4,5
 960 1420 960 1420 820 1420 c 2,6,-1
 510 1420 l 2,7,8
 370 1420 370 1420 370 1280 c 2,9,-1
 370 230 l 2,10,11
 370 90 370 90 510 90 c 2,0,-1
510 0 m 2,12,13
 160 0 160 0 160 350 c 2,14,-1
 160 1160 l 2,15,16
 160 1510 160 1510 510 1510 c 2,17,-1
 820 1510 l 2,18,19
 1170 1510 1170 1510 1170 1160 c 2,20,-1
 1170 350 l 2,21,22
 1170 0 1170 0 820 0 c 2,23,-1
 510 0 l 2,12,13
EndSplineSet
Validated: 1
EndChar

StartChar: P
Encoding: 80 80 51
Width: 1210
GlyphClass: 2
Flags: W
HStem: -20 21G<200 252.222> 500 90<400 889.973> 1420 90<400 889.973>
VStem: 200 200<70 500 590 1420> 920 210<650.732 1359.27>
LayerCount: 2
Fore
SplineSet
210 -20 m 1,0,-1
 200 -20 l 1,1,-1
 200 1440 l 1,2,-1
 348 1510 l 1,3,-1
 780 1510 l 2,4,5
 1130 1510 1130 1510 1130 1160 c 2,6,-1
 1130 850 l 2,7,8
 1130 500 1130 500 780 500 c 2,9,-1
 400 500 l 1,10,-1
 400 70 l 1,11,-1
 210 -20 l 1,0,-1
400 1420 m 1,12,-1
 400 590 l 1,13,-1
 780 590 l 2,14,15
 920 590 920 590 920 730 c 2,16,-1
 920 1280 l 2,17,18
 920 1420 920 1420 780 1420 c 2,19,-1
 400 1420 l 1,12,-1
EndSplineSet
Validated: 1
EndChar

StartChar: Q
Encoding: 81 81 52
Width: 1330
GlyphClass: 2
Flags: W
HStem: 0 90<400.027 820> 1420 90<400.027 929.973>
VStem: 160 210<150.732 1359.27> 960 210<239.145 1359.27>
DStem2: 750 540 564 457 0.572465 -0.819929<0 367.016 554.267 567.726>
LayerCount: 2
Fore
SplineSet
510 0 m 2,0,1
 160 0 160 0 160 350 c 2,2,-1
 160 1160 l 2,3,4
 160 1510 160 1510 510 1510 c 2,5,-1
 820 1510 l 2,6,7
 1170 1510 1170 1510 1170 1160 c 2,8,-1
 1170 350 l 2,9,10
 1170 165 1170 165 1073 78 c 1,11,-1
 1097 43 l 1,12,-1
 921 -40 l 1,13,-1
 911 -40 l 1,14,-1
 881 3 l 1,15,16
 852 0 852 0 820 0 c 2,17,-1
 510 0 l 2,0,1
510 90 m 2,18,19
 820 90 l 1,20,-1
 564 457 l 1,21,-1
 740 540 l 1,22,-1
 750 540 l 1,23,-1
 960 239 l 1,24,-1
 960 1280 l 2,25,26
 960 1420 960 1420 820 1420 c 2,27,-1
 510 1420 l 2,28,29
 370 1420 370 1420 370 1280 c 2,30,-1
 370 230 l 2,31,32
 370 90 370 90 510 90 c 2,18,19
EndSplineSet
Validated: 1
EndChar

StartChar: R
Encoding: 82 82 53
Width: 1294
GlyphClass: 2
Flags: W
HStem: -20 21G<200 252.222 1003.85 1072.82> 500 90<400 650> 1420 90<400 889.973>
VStem: 200 200<70 500 590 1420> 920 210<647.54 1359.27>
DStem2: 889 510 650 500 0.577669 -0.816271<0 507.143>
LayerCount: 2
Fore
SplineSet
400 1420 m 1,0,-1
 400 590 l 1,1,-1
 780 590 l 2,2,3
 920 590 920 590 920 730 c 2,4,-1
 920 1280 l 2,5,6
 920 1420 920 1420 780 1420 c 2,7,-1
 400 1420 l 1,0,-1
210 -20 m 1,8,-1
 200 -20 l 1,9,-1
 200 1440 l 1,10,-1
 348 1510 l 1,11,-1
 780 1510 l 2,12,13
 1130 1510 1130 1510 1130 1160 c 2,14,-1
 1130 850 l 2,15,16
 1130 559 1130 559 889 510 c 1,17,-1
 1214 63 l 1,18,-1
 1028 -20 l 1,19,-1
 1018 -20 l 1,20,-1
 650 500 l 1,21,-1
 400 500 l 1,22,-1
 400 70 l 1,23,-1
 210 -20 l 1,8,-1
EndSplineSet
Validated: 1
EndChar

StartChar: T
Encoding: 84 84 54
Width: 1070
GlyphClass: 2
Flags: W
HStem: -20 21G<435 487.222> 1420 90<48 435 635 1022>
VStem: 435 200<70 1420>
LayerCount: 2
Fore
SplineSet
435 -20 m 1,0,-1
 435 1420 l 1,1,-1
 10 1420 l 1,2,-1
 10 1430 l 1,3,-1
 48 1510 l 1,4,-1
 1060 1510 l 1,5,-1
 1060 1500 l 1,6,-1
 1022 1420 l 1,7,-1
 635 1420 l 1,8,-1
 635 70 l 1,9,-1
 445 -20 l 1,10,-1
 435 -20 l 1,0,-1
EndSplineSet
Validated: 1
EndChar

StartChar: U
Encoding: 85 85 55
Width: 1370
GlyphClass: 2
Flags: W
HStem: 0 90<411.055 958.945> 1510 20G<327.778 380 1137.78 1190>
VStem: 180 200<150.732 1440> 990 200<150.732 1440>
LayerCount: 2
Fore
SplineSet
530 0 m 2,0,1
 180 0 180 0 180 350 c 2,2,-1
 180 1440 l 1,3,-1
 370 1530 l 1,4,-1
 380 1530 l 1,5,-1
 380 230 l 2,6,7
 380 90 380 90 520 90 c 2,8,-1
 850 90 l 2,9,10
 990 90 990 90 990 230 c 2,11,-1
 990 1440 l 1,12,-1
 1180 1530 l 1,13,-1
 1190 1530 l 1,14,-1
 1190 350 l 2,15,16
 1190 0 1190 0 840 0 c 2,17,-1
 530 0 l 2,0,1
EndSplineSet
Validated: 1
EndChar

StartChar: V
Encoding: 86 86 56
Width: 1243
GlyphClass: 2
Flags: W
HStem: -20 21G<519.903 579.133> 1510 20G<129.722 189.136 1135.58 1194.46>
DStem2: 182 1530 5 1451 0.334428 -0.942421<15.2575 1401.51> 653 210 695 55 0.354123 0.935199<0 1403.28>
LayerCount: 2
Fore
SplineSet
537 -20 m 1,0,-1
 527 -20 l 1,1,-1
 5 1451 l 1,2,-1
 172 1530 l 1,3,-1
 182 1530 l 1,4,-1
 653 210 l 1,5,-1
 1143 1530 l 1,6,-1
 1153 1530 l 1,7,-1
 1238 1489 l 1,8,-1
 695 55 l 1,9,-1
 537 -20 l 1,0,-1
EndSplineSet
Validated: 19457
EndChar

StartChar: W
Encoding: 87 87 57
Width: 2180
GlyphClass: 2
Flags: W
HStem: 0 90<411.055 959.895 1220.11 1768.95> 1510 20G<327.778 380 1137.78 1190 1947.78 2000>
VStem: 180 200<150.732 1440> 990 200<116.797 1440> 1800 200<150.732 1440>
CounterMasks: 1 38
LayerCount: 2
Fore
SplineSet
530 0 m 2,0,1
 180 0 180 0 180 350 c 2,2,-1
 180 1440 l 1,3,-1
 370 1530 l 1,4,-1
 380 1530 l 1,5,-1
 380 230 l 2,6,7
 380 90 380 90 520 90 c 2,8,-1
 850 90 l 2,9,10
 990 90 990 90 990 230 c 2,11,-1
 990 1440 l 1,12,-1
 1180 1530 l 1,13,-1
 1190 1530 l 1,14,-1
 1190 230 l 2,15,16
 1190 90 1190 90 1330 90 c 2,17,-1
 1660 90 l 2,18,19
 1800 90 1800 90 1800 230 c 2,20,-1
 1800 1440 l 1,21,-1
 1990 1530 l 1,22,-1
 2000 1530 l 1,23,-1
 2000 350 l 2,24,25
 2000 0 2000 0 1650 0 c 2,26,-1
 1340 0 l 2,27,28
 1177 0 1177 0 1090 76 c 1,29,30
 1003 0 1003 0 840 0 c 2,31,-1
 530 0 l 2,0,1
EndSplineSet
Validated: 1
EndChar

StartChar: X
Encoding: 88 88 58
Width: 1159
GlyphClass: 2
Flags: W
HStem: -20 21G<84.561 150.041 932.712 997.597> 1510 20G<162.692 227.257 1007.99 1072.9>
DStem2: 215 1530 40 1452 0.523064 -0.852293<0 748.281 954.087 1702.89> 40 21 137 -20 0.545047 0.838406<18.4949 780.137 1038.75 1799.84>
LayerCount: 2
Fore
SplineSet
137 -20 m 1,0,-1
 127 -20 l 1,1,-1
 40 21 l 1,2,-1
 492 717 l 1,3,-1
 40 1452 l 1,4,-1
 205 1530 l 1,5,-1
 215 1530 l 1,6,-1
 606 892 l 1,7,-1
 1021 1530 l 1,8,-1
 1031 1530 l 1,9,-1
 1119 1488 l 1,10,-1
 667 794 l 1,11,-1
 1119 57 l 1,12,-1
 955 -20 l 1,13,-1
 945 -20 l 1,14,-1
 553 618 l 1,15,-1
 137 -20 l 1,0,-1
EndSplineSet
Validated: 19457
EndChar

StartChar: Y
Encoding: 89 89 59
Width: 1210
GlyphClass: 2
Flags: W
HStem: -20 21G<505 557.222> 450 90<351.055 505 705 858.945> 1510 20G<267.778 320 1037.78 1090>
VStem: 120 200<600.732 1440> 505 200<70 450> 890 200<600.732 1440>
CounterMasks: 1 1c
LayerCount: 2
Fore
SplineSet
515 -20 m 1,0,-1
 505 -20 l 1,1,-1
 505 450 l 1,2,-1
 470 450 l 2,3,4
 120 450 120 450 120 800 c 2,5,-1
 120 1440 l 1,6,-1
 310 1530 l 1,7,-1
 320 1530 l 1,8,-1
 320 680 l 2,9,10
 320 540 320 540 460 540 c 2,11,-1
 750 540 l 2,12,13
 890 540 890 540 890 680 c 2,14,-1
 890 1440 l 1,15,-1
 1080 1530 l 1,16,-1
 1090 1530 l 1,17,-1
 1090 800 l 2,18,19
 1090 450 1090 450 740 450 c 2,20,-1
 705 450 l 1,21,-1
 705 70 l 1,22,-1
 515 -20 l 1,0,-1
EndSplineSet
Validated: 1
EndChar

StartChar: Z
Encoding: 90 90 60
Width: 1040
GlyphClass: 2
Flags: W
HStem: 0 90<286 962> 1420 90<108 751>
DStem2: 40 10 286 90 0.451763 0.892138<182.505 1579.12>
LayerCount: 2
Fore
SplineSet
40 0 m 1,0,-1
 40 10 l 1,1,-1
 751 1420 l 1,2,-1
 70 1420 l 1,3,-1
 70 1430 l 1,4,-1
 108 1510 l 1,5,-1
 1000 1510 l 1,6,-1
 1000 1500 l 1,7,-1
 286 90 l 1,8,-1
 1000 90 l 1,9,-1
 1000 80 l 1,10,-1
 962 0 l 1,11,-1
 40 0 l 1,0,-1
EndSplineSet
Validated: 19457
EndChar

StartChar: bracketleft
Encoding: 91 91 61
Width: 880
GlyphClass: 2
Flags: W
HStem: -240 90<400 792> 1660 90<400 792>
VStem: 200 200<-150 1660>
LayerCount: 2
Fore
SplineSet
200 -240 m 1,0,-1
 200 1660 l 1,1,-1
 390 1750 l 1,2,-1
 830 1750 l 1,3,-1
 830 1740 l 1,4,-1
 792 1660 l 1,5,-1
 400 1660 l 1,6,-1
 400 -150 l 1,7,-1
 830 -150 l 1,8,-1
 830 -160 l 1,9,-1
 792 -240 l 1,10,-1
 200 -240 l 1,0,-1
EndSplineSet
Validated: 1
EndChar

StartChar: backslash
Encoding: 92 92 62
Width: 1019
GlyphClass: 2
Flags: W
DStem2: 148 1710 10 1648 0.422724 -0.906258<0 2037.01>
LayerCount: 2
Fore
SplineSet
882 -200 m 1,0,-1
 872 -200 l 1,1,-1
 10 1648 l 1,2,-1
 138 1710 l 1,3,-1
 148 1710 l 1,4,-1
 1009 -138 l 1,5,-1
 882 -200 l 1,0,-1
EndSplineSet
Validated: 1
EndChar

StartChar: bracketright
Encoding: 93 93 63
Width: 880
GlyphClass: 2
Flags: W
HStem: -240 90<88 480> 1660 90<88 480>
VStem: 480 200<-150 1660>
LayerCount: 2
Fore
SplineSet
490 -240 m 1,0,-1
 50 -240 l 1,1,-1
 50 -230 l 1,2,-1
 88 -150 l 1,3,-1
 480 -150 l 1,4,-1
 480 1660 l 1,5,-1
 50 1660 l 1,6,-1
 50 1670 l 1,7,-1
 88 1750 l 1,8,-1
 680 1750 l 1,9,-1
 680 -150 l 1,10,-1
 490 -240 l 1,0,-1
EndSplineSet
Validated: 1
EndChar

StartChar: asciicircum
Encoding: 94 94 64
Width: 905
GlyphClass: 2
Flags: W
HStem: 1160 410
DStem2: 50 1197 136 1160 0.704664 0.709541<34.3481 410.124> 522 1570 417 1441 0.701818 -0.712356<18.203 411.375>
LayerCount: 2
Fore
SplineSet
512 1570 m 1,0,-1
 522 1570 l 1,1,-1
 855 1232 l 1,2,-1
 702 1160 l 1,3,-1
 692 1160 l 1,4,-1
 417 1441 l 1,5,-1
 136 1160 l 1,6,-1
 126 1160 l 1,7,-1
 50 1197 l 1,8,-1
 339 1488 l 1,9,-1
 512 1570 l 1,0,-1
EndSplineSet
Validated: 1
EndChar

StartChar: underscore
Encoding: 95 95 65
Width: 1364
GlyphClass: 2
Flags: W
HStem: -410 120<202 1162>
LayerCount: 2
Fore
SplineSet
150 -410 m 1,0,-1
 150 -400 l 1,1,-1
 202 -290 l 1,2,-1
 1214 -290 l 1,3,-1
 1214 -300 l 1,4,-1
 1162 -410 l 1,5,-1
 150 -410 l 1,0,-1
EndSplineSet
Validated: 1
EndChar

StartChar: grave
Encoding: 96 96 66
Width: 377
GlyphClass: 2
Flags: W
HStem: 1160 367
VStem: 50 277
DStem2: 180 1527 50 1470 0.427336 -0.904093<0 339.921>
LayerCount: 2
Fore
SplineSet
170 1527 m 1,0,-1
 180 1527 l 1,1,-1
 327 1216 l 1,2,-1
 209 1160 l 1,3,-1
 199 1160 l 1,4,-1
 50 1470 l 1,5,-1
 170 1527 l 1,0,-1
EndSplineSet
Validated: 1
EndChar

StartChar: a
Encoding: 97 97 67
Width: 1064
GlyphClass: 2
Flags: W
HStem: -20 21G<704 755.975> 0 80<306.787 698.336> 660 80<306.787 698.365> 1020 80<277 691.979>
VStem: 100 190<103.975 636.025> 704 180<86.3501 653.65 719 996.025>
LayerCount: 2
Fore
SplineSet
380 0 m 2,0,1
 100 0 100 0 100 280 c 2,2,-1
 100 460 l 2,3,4
 100 740 100 740 380 740 c 2,5,-1
 604 740 l 2,6,7
 663 740 663 740 704 719 c 1,8,-1
 704 930 l 2,9,10
 704 1020 704 1020 614 1020 c 2,11,-1
 244 1020 l 1,12,-1
 244 1030 l 1,13,-1
 277 1100 l 1,14,-1
 604 1100 l 2,15,16
 884 1100 884 1100 884 820 c 2,17,-1
 884 61 l 1,18,-1
 714 -20 l 1,19,-1
 704 -20 l 1,20,-1
 704 21 l 1,21,22
 659 0 659 0 604 0 c 2,23,-1
 380 0 l 2,0,1
380 80 m 2,24,-1
 619 80 l 2,25,26
 709 80 709 80 709 170 c 2,27,-1
 709 570 l 2,28,29
 709 660 709 660 619 660 c 2,30,-1
 380 660 l 2,31,32
 290 660 290 660 290 570 c 2,33,-1
 290 170 l 2,34,35
 290 80 290 80 380 80 c 2,24,-1
EndSplineSet
Validated: 1
EndChar

StartChar: b
Encoding: 98 98 68
Width: 1170
GlyphClass: 2
Flags: W
HStem: 0 80<372.021 803.213> 1020 80<370.635 803.213> 1510 20G<308.025 360>
VStem: 180 180<103.975 1012.07 1079 1449> 820 190<103.975 996.025>
LayerCount: 2
Fore
SplineSet
450 80 m 2,0,-1
 730 80 l 2,1,2
 820 80 820 80 820 170 c 2,3,-1
 820 930 l 2,4,5
 820 1020 820 1020 730 1020 c 2,6,-1
 450 1020 l 2,7,8
 360 1020 360 1020 360 930 c 2,9,-1
 360 170 l 2,10,11
 360 80 360 80 450 80 c 2,0,-1
460 0 m 2,12,13
 180 0 180 0 180 280 c 2,14,-1
 180 1449 l 1,15,-1
 350 1530 l 1,16,-1
 360 1530 l 1,17,-1
 360 1079 l 1,18,19
 407 1100 407 1100 460 1100 c 2,20,-1
 730 1100 l 2,21,22
 1010 1100 1010 1100 1010 820 c 2,23,-1
 1010 280 l 2,24,25
 1010 0 1010 0 730 0 c 2,26,-1
 460 0 l 2,12,13
EndSplineSet
Validated: 1
EndChar

StartChar: c
Encoding: 99 99 69
Width: 1050
GlyphClass: 2
Flags: W
HStem: 0 80<366.787 763.213> 1020 80<366.787 763.213>
VStem: 160 190<103.975 996.025> 775 195<103.975 300 815 994.169>
LayerCount: 2
Fore
SplineSet
440 0 m 2,0,1
 160 0 160 0 160 280 c 2,2,-1
 160 820 l 2,3,4
 160 1100 160 1100 440 1100 c 2,5,-1
 690 1100 l 2,6,7
 970 1100 970 1100 970 815 c 1,8,-1
 785 727 l 1,9,-1
 775 727 l 1,10,-1
 775 930 l 2,11,12
 775 1020 775 1020 685 1020 c 2,13,-1
 440 1020 l 2,14,15
 350 1020 350 1020 350 930 c 2,16,-1
 350 170 l 2,17,18
 350 80 350 80 440 80 c 2,19,-1
 685 80 l 2,20,21
 775 80 775 80 775 170 c 2,22,-1
 775 300 l 1,23,-1
 960 388 l 1,24,-1
 970 388 l 1,25,-1
 970 280 l 2,26,27
 970 0 970 0 690 0 c 2,28,-1
 440 0 l 2,0,1
EndSplineSet
Validated: 1
EndChar

StartChar: d
Encoding: 100 100 70
Width: 1170
GlyphClass: 2
Flags: W
HStem: 0 80<366.787 797.979> 1020 80<366.787 799.365> 1510 20G<938.025 990>
VStem: 160 190<103.975 996.025> 810 180<103.975 1012.07 1079 1449>
LayerCount: 2
Fore
SplineSet
720 80 m 2,0,1
 810 80 810 80 810 170 c 2,2,-1
 810 930 l 2,3,4
 810 1020 810 1020 720 1020 c 2,5,-1
 440 1020 l 2,6,7
 350 1020 350 1020 350 930 c 2,8,-1
 350 170 l 2,9,10
 350 80 350 80 440 80 c 2,11,-1
 720 80 l 2,0,1
440 0 m 2,12,13
 160 0 160 0 160 280 c 2,14,-1
 160 820 l 2,15,16
 160 1100 160 1100 440 1100 c 2,17,-1
 710 1100 l 2,18,19
 763 1100 763 1100 810 1079 c 1,20,-1
 810 1449 l 1,21,-1
 980 1530 l 1,22,-1
 990 1530 l 1,23,-1
 990 280 l 2,24,25
 990 0 990 0 710 0 c 2,26,-1
 440 0 l 2,12,13
EndSplineSet
Validated: 1
EndChar

StartChar: e
Encoding: 101 101 71
Width: 1130
GlyphClass: 2
Flags: W
HStem: 0 80<366.787 763.213> 1020 80<366.787 763.213>
VStem: 160 190<103.975 348 443 996.025> 780 190<103.975 300 649 996.025>
DStem2: 350 443 350 348 0.90243 0.430837<0 476.797>
LayerCount: 2
Fore
SplineSet
690 0 m 2,0,-1
 440 0 l 2,1,2
 160 0 160 0 160 280 c 2,3,-1
 160 820 l 2,4,5
 160 1100 160 1100 440 1100 c 2,6,-1
 690 1100 l 2,7,8
 970 1100 970 1100 970 820 c 2,9,-1
 970 644 l 1,10,-1
 350 348 l 1,11,-1
 350 170 l 2,12,13
 350 80 350 80 440 80 c 2,14,-1
 685 80 l 2,15,16
 775 80 775 80 775 170 c 2,17,-1
 775 300 l 1,18,-1
 960 388 l 1,19,-1
 970 388 l 1,20,-1
 970 280 l 2,21,22
 970 0 970 0 690 0 c 2,0,-1
350 443 m 1,23,-1
 780 649 l 1,24,-1
 780 930 l 2,25,26
 780 1020 780 1020 690 1020 c 2,27,-1
 440 1020 l 2,28,29
 350 1020 350 1020 350 930 c 2,30,-1
 350 443 l 1,23,-1
EndSplineSet
Validated: 1
EndChar

StartChar: f
Encoding: 102 102 72
Width: 780
GlyphClass: 2
Flags: W
HStem: -20 21G<180 231.975> 820 80<360 698> 1430 80<372.021 737>
VStem: 180 180<61 820 900 1406.03>
LayerCount: 2
Fore
SplineSet
190 -20 m 1,0,-1
 180 -20 l 1,1,-1
 180 1230 l 2,2,3
 180 1510 180 1510 460 1510 c 2,4,-1
 770 1510 l 1,5,-1
 770 1500 l 1,6,-1
 737 1430 l 1,7,-1
 450 1430 l 2,8,9
 360 1430 360 1430 360 1340 c 2,10,-1
 360 900 l 1,11,-1
 731 900 l 1,12,-1
 731 890 l 1,13,-1
 698 820 l 1,14,-1
 360 820 l 1,15,-1
 360 61 l 1,16,-1
 190 -20 l 1,0,-1
EndSplineSet
Validated: 1
EndChar

StartChar: g
Encoding: 103 103 73
Width: 1170
GlyphClass: 2
Flags: W
HStem: -410 80<333 797.979> 0 80<366.787 799.365> 1020 80<366.787 797.979>
VStem: 160 190<103.975 996.025> 810 180<-306.025 21 87.9321 996.025>
LayerCount: 2
Fore
SplineSet
440 0 m 2,0,1
 160 0 160 0 160 280 c 2,2,-1
 160 820 l 2,3,4
 160 1100 160 1100 440 1100 c 2,5,-1
 710 1100 l 2,6,7
 990 1100 990 1100 990 820 c 2,8,-1
 990 -130 l 2,9,10
 990 -410 990 -410 710 -410 c 2,11,-1
 300 -410 l 1,12,-1
 300 -400 l 1,13,-1
 333 -330 l 1,14,-1
 720 -330 l 2,15,16
 810 -330 810 -330 810 -240 c 2,17,-1
 810 21 l 1,18,19
 769 0 769 0 710 0 c 2,20,-1
 440 0 l 2,0,1
810 930 m 2,21,22
 810 1020 810 1020 720 1020 c 2,23,-1
 440 1020 l 2,24,25
 350 1020 350 1020 350 930 c 2,26,-1
 350 170 l 2,27,28
 350 80 350 80 440 80 c 2,29,-1
 720 80 l 2,30,31
 810 80 810 80 810 170 c 2,32,-1
 810 930 l 2,21,22
EndSplineSet
Validated: 1
EndChar

StartChar: h
Encoding: 104 104 74
Width: 1210
GlyphClass: 2
Flags: W
HStem: -20 21G<200 251.975 850 901.975> 1020 80<390.743 837.979> 1510 20G<328.025 380>
VStem: 200 180<61 1012.07 1079 1449> 850 180<61 996.025>
LayerCount: 2
Fore
SplineSet
210 -20 m 1,0,-1
 200 -20 l 1,1,-1
 200 1449 l 1,2,-1
 370 1530 l 1,3,-1
 380 1530 l 1,4,-1
 380 1079 l 1,5,6
 429 1100 429 1100 480 1100 c 2,7,-1
 750 1100 l 2,8,9
 1030 1100 1030 1100 1030 820 c 2,10,-1
 1030 61 l 1,11,-1
 860 -20 l 1,12,-1
 850 -20 l 1,13,-1
 850 930 l 2,14,15
 850 1020 850 1020 760 1020 c 2,16,-1
 470 1020 l 2,17,18
 380 1020 380 1020 380 930 c 2,19,-1
 380 61 l 1,20,-1
 210 -20 l 1,0,-1
EndSplineSet
Validated: 1
EndChar

StartChar: i
Encoding: 105 105 75
Width: 580
GlyphClass: 2
Flags: W
HStem: -20 21G<200 251.975> 1100 20G<328.025 380> 1220 245<206.097 373.903>
VStem: 170 240<1257.13 1427.87> 200 180<61 1039>
LayerCount: 2
Fore
SplineSet
200 -20 m 1,0,-1
 200 1039 l 1,1,-1
 370 1120 l 1,2,-1
 380 1120 l 1,3,-1
 380 61 l 1,4,-1
 210 -20 l 1,5,-1
 200 -20 l 1,0,-1
290 1465 m 128,-1,7
 340 1465 340 1465 375 1429 c 128,-1,8
 410 1393 410 1393 410 1342.5 c 128,-1,9
 410 1292 410 1292 375 1256 c 128,-1,10
 340 1220 340 1220 290 1220 c 128,-1,11
 240 1220 240 1220 205 1256 c 128,-1,12
 170 1292 170 1292 170 1342.5 c 128,-1,13
 170 1393 170 1393 205 1429 c 128,-1,6
 240 1465 240 1465 290 1465 c 128,-1,7
EndSplineSet
Validated: 1
EndChar

StartChar: j
Encoding: 106 106 76
Width: 580
GlyphClass: 2
Flags: W
HStem: -410 80<-2 187.979> 1100 20G<328.025 380> 1220 245<206.097 373.903>
VStem: 170 240<1257.13 1427.87> 200 180<-306.025 1039>
LayerCount: 2
Fore
SplineSet
-35 -410 m 1,0,-1
 -35 -400 l 1,1,-1
 -2 -330 l 1,2,-1
 110 -330 l 2,3,4
 200 -330 200 -330 200 -240 c 2,5,-1
 200 1039 l 1,6,-1
 370 1120 l 1,7,-1
 380 1120 l 1,8,-1
 380 -130 l 2,9,10
 380 -410 380 -410 100 -410 c 2,11,-1
 -35 -410 l 1,0,-1
290 1465 m 128,-1,13
 340 1465 340 1465 375 1429 c 128,-1,14
 410 1393 410 1393 410 1342.5 c 128,-1,15
 410 1292 410 1292 375 1256 c 128,-1,16
 340 1220 340 1220 290 1220 c 128,-1,17
 240 1220 240 1220 205 1256 c 128,-1,18
 170 1292 170 1292 170 1342.5 c 128,-1,19
 170 1393 170 1393 205 1429 c 128,-1,12
 240 1465 240 1465 290 1465 c 128,-1,13
EndSplineSet
Validated: 1
EndChar

StartChar: k
Encoding: 107 107 77
Width: 1170
GlyphClass: 2
Flags: W
HStem: -20 21G<200 251.975 830 881.975> 676 80<539 817.979> 1100 20G<856.384 934> 1510 20G<328.025 380>
VStem: 200 180<61 668.068 755 1449> 830 180<61 652.025>
DStem2: 380 755 539 756 0.809916 0.586546<129.363 622.287>
LayerCount: 2
Fore
SplineSet
210 -20 m 1,0,-1
 200 -20 l 1,1,-1
 200 1449 l 1,2,-1
 370 1530 l 1,3,-1
 380 1530 l 1,4,-1
 380 755 l 1,5,-1
 884 1120 l 1,6,-1
 894 1120 l 1,7,-1
 982 1076 l 1,8,-1
 539 756 l 1,9,-1
 730 756 l 2,10,11
 1010 756 1010 756 1010 476 c 2,12,-1
 1010 61 l 1,13,-1
 840 -20 l 1,14,-1
 830 -20 l 1,15,-1
 830 586 l 2,16,17
 830 676 830 676 740 676 c 2,18,-1
 470 676 l 2,19,20
 380 676 380 676 380 586 c 2,21,-1
 380 61 l 1,22,-1
 210 -20 l 1,0,-1
EndSplineSet
Validated: 1
EndChar

StartChar: l
Encoding: 108 108 78
Width: 580
GlyphClass: 2
Flags: W
HStem: -20 21G<200 251.975> 1510 20G<328.025 380>
VStem: 200 180<61 1449>
LayerCount: 2
Fore
SplineSet
200 -20 m 1,0,-1
 200 1449 l 1,1,-1
 370 1530 l 1,2,-1
 380 1530 l 1,3,-1
 380 61 l 1,4,-1
 210 -20 l 1,5,-1
 200 -20 l 1,0,-1
EndSplineSet
Validated: 1
EndChar

StartChar: m
Encoding: 109 109 79
Width: 1840
GlyphClass: 2
Flags: W
HStem: -20 21G<180 231.975 830 881.975 1480 1531.98> 1020 80<372.021 819.365 1020.63 1467.98>
VStem: 180 180<61 996.025> 830 180<61 1012.07> 1480 180<61 996.025>
CounterMasks: 1 38
LayerCount: 2
Fore
SplineSet
190 -20 m 1,0,-1
 180 -20 l 1,1,-1
 180 820 l 2,2,3
 180 1100 180 1100 460 1100 c 2,4,-1
 730 1100 l 2,5,6
 851 1100 851 1100 920 1047 c 1,7,8
 989 1100 989 1100 1110 1100 c 2,9,-1
 1380 1100 l 2,10,11
 1660 1100 1660 1100 1660 820 c 2,12,-1
 1660 61 l 1,13,-1
 1490 -20 l 1,14,-1
 1480 -20 l 1,15,-1
 1480 930 l 2,16,17
 1480 1020 1480 1020 1390 1020 c 2,18,-1
 1100 1020 l 2,19,20
 1010 1020 1010 1020 1010 930 c 2,21,-1
 1010 61 l 1,22,-1
 840 -20 l 1,23,-1
 830 -20 l 1,24,-1
 830 930 l 2,25,26
 830 1020 830 1020 740 1020 c 2,27,-1
 450 1020 l 2,28,29
 360 1020 360 1020 360 930 c 2,30,-1
 360 61 l 1,31,-1
 190 -20 l 1,0,-1
EndSplineSet
Validated: 1
EndChar

StartChar: n
Encoding: 110 110 80
Width: 1190
GlyphClass: 2
Flags: W
HStem: -20 21G<180 231.975 830 881.975> 1020 80<372.021 817.979>
VStem: 180 180<61 996.025> 830 180<61 996.025>
LayerCount: 2
Fore
SplineSet
190 -20 m 1,0,-1
 180 -20 l 1,1,-1
 180 820 l 2,2,3
 180 1100 180 1100 460 1100 c 2,4,-1
 730 1100 l 2,5,6
 1010 1100 1010 1100 1010 820 c 2,7,-1
 1010 61 l 1,8,-1
 840 -20 l 1,9,-1
 830 -20 l 1,10,-1
 830 930 l 2,11,12
 830 1020 830 1020 740 1020 c 2,13,-1
 450 1020 l 2,14,15
 360 1020 360 1020 360 930 c 2,16,-1
 360 61 l 1,17,-1
 190 -20 l 1,0,-1
EndSplineSet
Validated: 1
EndChar

StartChar: o
Encoding: 111 111 81
Width: 1150
GlyphClass: 2
Flags: W
HStem: 0 80<366.787 783.213> 1020 80<366.787 783.213>
VStem: 160 190<103.975 996.025> 800 190<103.975 996.025>
LayerCount: 2
Fore
SplineSet
440 80 m 2,0,-1
 710 80 l 2,1,2
 800 80 800 80 800 170 c 2,3,-1
 800 930 l 2,4,5
 800 1020 800 1020 710 1020 c 2,6,-1
 440 1020 l 2,7,8
 350 1020 350 1020 350 930 c 2,9,-1
 350 170 l 2,10,11
 350 80 350 80 440 80 c 2,0,-1
440 0 m 2,12,13
 160 0 160 0 160 280 c 2,14,-1
 160 820 l 2,15,16
 160 1100 160 1100 440 1100 c 2,17,-1
 710 1100 l 2,18,19
 990 1100 990 1100 990 820 c 2,20,-1
 990 280 l 2,21,22
 990 0 990 0 710 0 c 2,23,-1
 440 0 l 2,12,13
EndSplineSet
Validated: 1
EndChar

StartChar: p
Encoding: 112 112 82
Width: 1170
GlyphClass: 2
Flags: W
HStem: -430 21G<180 231.975> 0 80<370.635 803.213> 1020 80<372.021 803.213>
VStem: 180 180<-349 21 87.9321 996.025> 820 190<103.975 996.025>
LayerCount: 2
Fore
SplineSet
450 1020 m 2,0,1
 360 1020 360 1020 360 930 c 2,2,-1
 360 170 l 2,3,4
 360 80 360 80 450 80 c 2,5,-1
 730 80 l 2,6,7
 820 80 820 80 820 170 c 2,8,-1
 820 930 l 2,9,10
 820 1020 820 1020 730 1020 c 2,11,-1
 450 1020 l 2,0,1
730 0 m 2,12,-1
 460 0 l 2,13,14
 407 0 407 0 360 21 c 1,15,-1
 360 -349 l 1,16,-1
 190 -430 l 1,17,-1
 180 -430 l 1,18,-1
 180 820 l 2,19,20
 180 1100 180 1100 460 1100 c 2,21,-1
 730 1100 l 2,22,23
 1010 1100 1010 1100 1010 820 c 2,24,-1
 1010 280 l 2,25,26
 1010 0 1010 0 730 0 c 2,12,-1
EndSplineSet
Validated: 1
EndChar

StartChar: q
Encoding: 113 113 83
Width: 1170
GlyphClass: 2
Flags: W
HStem: -430 21G<810 861.975> 0 80<366.787 799.365> 1020 80<366.787 797.979>
VStem: 160 190<103.975 996.025> 810 180<-349 21 87.9321 996.025>
LayerCount: 2
Fore
SplineSet
720 1020 m 2,0,-1
 440 1020 l 2,1,2
 350 1020 350 1020 350 930 c 2,3,-1
 350 170 l 2,4,5
 350 80 350 80 440 80 c 2,6,-1
 720 80 l 2,7,8
 810 80 810 80 810 170 c 2,9,-1
 810 930 l 2,10,11
 810 1020 810 1020 720 1020 c 2,0,-1
440 0 m 2,12,13
 160 0 160 0 160 280 c 2,14,-1
 160 820 l 2,15,16
 160 1100 160 1100 440 1100 c 2,17,-1
 710 1100 l 2,18,19
 990 1100 990 1100 990 820 c 2,20,-1
 990 -349 l 1,21,-1
 820 -430 l 1,22,-1
 810 -430 l 1,23,-1
 810 21 l 1,24,25
 763 0 763 0 710 0 c 2,26,-1
 440 0 l 2,12,13
EndSplineSet
Validated: 1
EndChar

StartChar: r
Encoding: 114 114 84
Width: 780
GlyphClass: 2
Flags: W
HStem: -20 21G<180 231.975> 1020 80<372.021 737>
VStem: 180 180<61 996.025>
LayerCount: 2
Fore
SplineSet
190 -20 m 1,0,-1
 180 -20 l 1,1,-1
 180 820 l 2,2,3
 180 1100 180 1100 460 1100 c 2,4,-1
 770 1100 l 1,5,-1
 770 1090 l 1,6,-1
 737 1020 l 1,7,-1
 450 1020 l 2,8,9
 360 1020 360 1020 360 930 c 2,10,-1
 360 61 l 1,11,-1
 190 -20 l 1,0,-1
EndSplineSet
Validated: 1
EndChar

StartChar: t
Encoding: 116 116 85
Width: 780
GlyphClass: 2
Flags: W
HStem: -20 21G<300 351.772> 1020 80<43 300 475 737> 1510 20G<423.228 475>
VStem: 300 175<59 1020 1100 1451>
LayerCount: 2
Fore
SplineSet
300 -20 m 1,0,-1
 300 1020 l 1,1,-1
 10 1020 l 1,2,-1
 10 1030 l 1,3,-1
 43 1100 l 1,4,-1
 300 1100 l 1,5,-1
 300 1451 l 1,6,-1
 465 1530 l 1,7,-1
 475 1530 l 1,8,-1
 475 1100 l 1,9,-1
 770 1100 l 1,10,-1
 770 1090 l 1,11,-1
 737 1020 l 1,12,-1
 475 1020 l 1,13,-1
 475 59 l 1,14,-1
 310 -20 l 1,15,-1
 300 -20 l 1,0,-1
EndSplineSet
Validated: 1
EndChar

StartChar: u
Encoding: 117 117 86
Width: 1190
GlyphClass: 2
Flags: W
HStem: 0 80<372.021 817.979> 1100 20G<308.025 360 958.025 1010>
VStem: 180 180<103.975 1039> 830 180<103.975 1039>
LayerCount: 2
Fore
SplineSet
460 0 m 2,0,1
 180 0 180 0 180 280 c 2,2,-1
 180 1039 l 1,3,-1
 350 1120 l 1,4,-1
 360 1120 l 1,5,-1
 360 170 l 2,6,7
 360 80 360 80 450 80 c 2,8,-1
 740 80 l 2,9,10
 830 80 830 80 830 170 c 2,11,-1
 830 1039 l 1,12,-1
 1000 1120 l 1,13,-1
 1010 1120 l 1,14,-1
 1010 280 l 2,15,16
 1010 0 1010 0 730 0 c 2,17,-1
 460 0 l 2,0,1
EndSplineSet
Validated: 1
EndChar

StartChar: v
Encoding: 118 118 87
Width: 963
GlyphClass: 2
Flags: W
HStem: -20 21G<383.765 443.133> 1100 20G<116.082 175.143 866.526 925.111>
DStem2: 168 1120 5 1047 0.340186 -0.940358<13.1959 1025.75> 513 154 559 55 0.361528 0.932361<0 1027.98>
LayerCount: 2
Fore
SplineSet
401 -20 m 1,0,-1
 391 -20 l 1,1,-1
 5 1047 l 1,2,-1
 158 1120 l 1,3,-1
 168 1120 l 1,4,-1
 513 154 l 1,5,-1
 874 1120 l 1,6,-1
 884 1120 l 1,7,-1
 958 1084 l 1,8,-1
 559 55 l 1,9,-1
 401 -20 l 1,0,-1
EndSplineSet
Validated: 1
EndChar

StartChar: w
Encoding: 119 119 88
Width: 1840
GlyphClass: 2
Flags: W
HStem: 0 80<372.021 819.365 1020.63 1467.98> 1100 20G<308.025 360 958.025 1010 1608.02 1660>
VStem: 180 180<103.975 1039> 830 180<87.9321 1039> 1480 180<103.975 1039>
CounterMasks: 1 38
LayerCount: 2
Fore
SplineSet
460 0 m 2,0,1
 180 0 180 0 180 280 c 2,2,-1
 180 1039 l 1,3,-1
 350 1120 l 1,4,-1
 360 1120 l 1,5,-1
 360 170 l 2,6,7
 360 80 360 80 450 80 c 2,8,-1
 740 80 l 2,9,10
 830 80 830 80 830 170 c 2,11,-1
 830 1039 l 1,12,-1
 1000 1120 l 1,13,-1
 1010 1120 l 1,14,-1
 1010 170 l 2,15,16
 1010 80 1010 80 1100 80 c 2,17,-1
 1390 80 l 2,18,19
 1480 80 1480 80 1480 170 c 2,20,-1
 1480 1039 l 1,21,-1
 1650 1120 l 1,22,-1
 1660 1120 l 1,23,-1
 1660 280 l 2,24,25
 1660 0 1660 0 1380 0 c 2,26,-1
 1110 0 l 2,27,28
 989 0 989 0 920 53 c 1,29,30
 851 0 851 0 730 0 c 2,31,-1
 460 0 l 2,0,1
EndSplineSet
Validated: 1
EndChar

StartChar: x
Encoding: 120 120 89
Width: 889
GlyphClass: 2
Flags: W
HStem: -20 21G<72.1429 138.111 682.778 747.353> 1100 20G<142.971 207.205 749.904 815.222>
DStem2: 195 1120 40 1051 0.520806 -0.853675<0 526.001 706.217 1233.59> 40 15 125 -20 0.547515 0.836796<17.2509 555.326 783.822 1320.51>
LayerCount: 2
Fore
SplineSet
125 -20 m 1,0,-1
 115 -20 l 1,1,-1
 40 15 l 1,2,-1
 367 516 l 1,3,-1
 40 1051 l 1,4,-1
 185 1120 l 1,5,-1
 195 1120 l 1,6,-1
 469 671 l 1,7,-1
 763 1120 l 1,8,-1
 773 1120 l 1,9,-1
 849 1084 l 1,10,-1
 522 585 l 1,11,-1
 849 48 l 1,12,-1
 705 -20 l 1,13,-1
 695 -20 l 1,14,-1
 420 430 l 1,15,-1
 125 -20 l 1,0,-1
EndSplineSet
Validated: 19457
EndChar

StartChar: y
Encoding: 121 121 90
Width: 1210
GlyphClass: 2
Flags: W
HStem: -410 80<353 817.979> 0 80<372.021 819.365> 1100 20G<308.025 360 958.025 1010>
VStem: 180 180<103.975 1039> 830 180<-306.025 21 87.9321 1039>
LayerCount: 2
Fore
SplineSet
460 0 m 2,0,1
 180 0 180 0 180 280 c 2,2,-1
 180 1039 l 1,3,-1
 350 1120 l 1,4,-1
 360 1120 l 1,5,-1
 360 170 l 2,6,7
 360 80 360 80 450 80 c 2,8,-1
 740 80 l 2,9,10
 830 80 830 80 830 170 c 2,11,-1
 830 1039 l 1,12,-1
 1000 1120 l 1,13,-1
 1010 1120 l 1,14,-1
 1010 -130 l 2,15,16
 1010 -410 1010 -410 730 -410 c 2,17,-1
 320 -410 l 1,18,-1
 320 -400 l 1,19,-1
 353 -330 l 1,20,-1
 740 -330 l 2,21,22
 830 -330 830 -330 830 -240 c 2,23,-1
 830 21 l 1,24,25
 784 0 784 0 730 0 c 2,26,-1
 460 0 l 2,0,1
EndSplineSet
Validated: 1
EndChar

StartChar: z
Encoding: 122 122 91
Width: 850
GlyphClass: 2
Flags: W
HStem: 0 80<262 777> 1020 80<103 589>
DStem2: 40 10 262 80 0.477572 0.878593<167.522 1149.57>
LayerCount: 2
Fore
SplineSet
40 0 m 1,0,-1
 40 10 l 1,1,-1
 589 1020 l 1,2,-1
 70 1020 l 1,3,-1
 70 1030 l 1,4,-1
 103 1100 l 1,5,-1
 810 1100 l 1,6,-1
 810 1090 l 1,7,-1
 262 80 l 1,8,-1
 810 80 l 1,9,-1
 810 70 l 1,10,-1
 777 0 l 1,11,-1
 40 0 l 1,0,-1
EndSplineSet
Validated: 19457
EndChar

StartChar: braceleft
Encoding: 123 123 92
Width: 830
GlyphClass: 2
Flags: W
HStem: -240 90<505.055 780> 710 90<88 274> 1660 90<505.055 780>
VStem: 274 200<-89.2676 710 800 1599.27>
CounterMasks: 1 e0
LayerCount: 2
Fore
SplineSet
780 -240 m 1,0,-1
 624 -240 l 2,1,2
 274 -240 274 -240 274 110 c 2,3,-1
 274 710 l 1,4,-1
 50 710 l 1,5,-1
 50 720 l 1,6,-1
 88 800 l 1,7,-1
 274 800 l 1,8,-1
 274 1400 l 2,9,10
 274 1750 274 1750 624 1750 c 2,11,-1
 780 1750 l 1,12,-1
 780 1660 l 1,13,-1
 614 1660 l 2,14,15
 474 1660 474 1660 474 1520 c 2,16,-1
 474 -10 l 2,17,18
 474 -150 474 -150 614 -150 c 2,19,-1
 780 -150 l 1,20,-1
 780 -240 l 1,0,-1
EndSplineSet
Validated: 1
EndChar

StartChar: bar
Encoding: 124 124 93
Width: 650
GlyphClass: 2
Flags: W
VStem: 250 150<-134 1644>
LayerCount: 2
Fore
SplineSet
250 -200 m 1,0,-1
 250 1644 l 1,1,-1
 390 1710 l 1,2,-1
 400 1710 l 1,3,-1
 400 -134 l 1,4,-1
 260 -200 l 1,5,-1
 250 -200 l 1,0,-1
EndSplineSet
Validated: 1
EndChar

StartChar: braceright
Encoding: 125 125 94
Width: 830
GlyphClass: 2
Flags: W
HStem: -240 90<50 324.945> 710 90<556 742> 1660 90<50 324.945>
VStem: 356 200<-89.2676 710 800 1599.27>
CounterMasks: 1 e0
LayerCount: 2
Fore
SplineSet
50 -240 m 1,0,-1
 50 -150 l 1,1,-1
 216 -150 l 2,2,3
 356 -150 356 -150 356 -10 c 2,4,-1
 356 1520 l 2,5,6
 356 1660 356 1660 216 1660 c 2,7,-1
 50 1660 l 1,8,-1
 50 1750 l 1,9,-1
 206 1750 l 2,10,11
 556 1750 556 1750 556 1400 c 2,12,-1
 556 800 l 1,13,-1
 780 800 l 1,14,-1
 780 790 l 1,15,-1
 742 710 l 1,16,-1
 556 710 l 1,17,-1
 556 110 l 2,18,19
 556 -240 556 -240 206 -240 c 2,20,-1
 50 -240 l 1,0,-1
EndSplineSet
Validated: 1
EndChar

StartChar: asciitilde
Encoding: 126 126 95
Width: 1138
GlyphClass: 2
Flags: W
HStem: 576 127<682.406 868.861> 810 127<269.139 455.594>
VStem: 150 82<611 766.371> 906 82<746.629 902>
LayerCount: 2
Fore
SplineSet
406 937 m 0,0,1
 519 937 519 937 621 810 c 0,2,3
 708 703 708 703 781 703 c 0,4,5
 906 703 906 703 906 902 c 1,6,-1
 978 937 l 1,7,-1
 988 937 l 1,8,9
 988 576 988 576 732 576 c 0,10,11
 619 576 619 576 517 703 c 0,12,13
 430 810 430 810 357 810 c 0,14,15
 232 810 232 810 232 611 c 1,16,-1
 160 576 l 1,17,-1
 150 576 l 1,18,19
 150 937 150 937 406 937 c 0,0,1
EndSplineSet
Validated: 1
EndChar

StartChar: exclamdown
Encoding: 161 161 97
Width: 600
GlyphClass: 2
Flags: W
HStem: -430 21G<200 252.222> 875 245<216.097 383.903>
VStem: 180 240<912.129 1082.87> 200 200<-340 610>
LayerCount: 2
Fore
SplineSet
300 1120 m 128,-1,1
 350 1120 350 1120 385 1084 c 128,-1,2
 420 1048 420 1048 420 997.5 c 128,-1,3
 420 947 420 947 385 911 c 128,-1,4
 350 875 350 875 300 875 c 128,-1,5
 250 875 250 875 215 911 c 128,-1,6
 180 947 180 947 180 997.5 c 128,-1,7
 180 1048 180 1048 215 1084 c 128,-1,0
 250 1120 250 1120 300 1120 c 128,-1,1
210 -430 m 1,8,-1
 200 -430 l 1,9,-1
 200 610 l 1,10,-1
 390 700 l 1,11,-1
 400 700 l 1,12,-1
 400 -340 l 1,13,-1
 210 -430 l 1,8,-1
EndSplineSet
Validated: 1
EndChar

StartChar: cent
Encoding: 162 162 98
Width: 1070
GlyphClass: 2
Flags: W
HStem: 0 80<366.787 525 625 763.213> 1020 80<366.787 525 625 763.213>
VStem: 160 190<103.975 996.025> 525 100<-78 0 80 1020 1100 1178> 775 195<103.975 300 815 994.169>
LayerCount: 2
Fore
SplineSet
690 0 m 2,0,-1
 625 -0 l 1,1,-1
 625 -78 l 1,2,-1
 535 -120 l 1,3,-1
 525 -120 l 1,4,-1
 525 -0 l 1,5,-1
 440 0 l 2,6,7
 160 0 160 0 160 280 c 2,8,-1
 160 820 l 2,9,10
 160 1100 160 1100 440 1100 c 2,11,-1
 525 1100 l 1,12,-1
 525 1178 l 1,13,-1
 615 1220 l 1,14,-1
 625 1220 l 1,15,-1
 625 1100 l 1,16,-1
 690 1100 l 2,17,18
 970 1100 970 1100 970 815 c 1,19,-1
 785 727 l 1,20,-1
 775 727 l 1,21,-1
 775 930 l 2,22,23
 775 1020 775 1020 685 1020 c 2,24,-1
 625 1020 l 1,25,-1
 625 80 l 1,26,-1
 685 80 l 2,27,28
 775 80 775 80 775 170 c 2,29,-1
 775 300 l 1,30,-1
 960 388 l 1,31,-1
 970 388 l 1,32,-1
 970 280 l 2,33,34
 970 0 970 0 690 0 c 2,0,-1
525 80 m 1,35,-1
 525 1020 l 1,36,-1
 440 1020 l 2,37,38
 350 1020 350 1020 350 930 c 2,39,-1
 350 170 l 2,40,41
 350 80 350 80 440 80 c 2,42,-1
 525 80 l 1,35,-1
EndSplineSet
Validated: 1
EndChar

StartChar: sterling
Encoding: 163 163 99
Width: 1335
GlyphClass: 2
Flags: W
HStem: 0 90<230 300 500 1147> 645 90<189 300 500 877> 1420 90<531.055 891.945>
VStem: 300 200<90 645 735 1359.27> 923 200<1152 1355.82>
LayerCount: 2
Fore
SplineSet
150 0 m 1,0,-1
 150 10 l 1,1,-1
 230 90 l 1,2,-1
 300 90 l 1,3,-1
 300 645 l 1,4,-1
 151 645 l 1,5,-1
 151 655 l 1,6,-1
 189 735 l 1,7,-1
 300 735 l 1,8,-1
 300 1160 l 2,9,10
 300 1510 300 1510 650 1510 c 2,11,-1
 773 1510 l 2,12,13
 1123 1510 1123 1510 1123 1152 c 1,14,-1
 933 1062 l 1,15,-1
 923 1062 l 9,16,-1
 923 1280 l 2,17,18
 923 1420 923 1420 783 1420 c 2,19,-1
 640 1420 l 2,20,21
 500 1420 500 1420 500 1280 c 2,22,-1
 500 735 l 1,23,-1
 915 735 l 1,24,-1
 915 725 l 1,25,-1
 877 645 l 1,26,-1
 500 645 l 1,27,-1
 500 90 l 1,28,-1
 1185 90 l 1,29,-1
 1185 80 l 1,30,-1
 1147 0 l 1,31,-1
 150 0 l 1,0,-1
EndSplineSet
Validated: 1
EndChar

StartChar: currency
Encoding: 164 164 100
Width: 1395
GlyphClass: 2
Flags: W
HStem: 240 90<428.885 964.528> 1179 90<429.008 964.992>
VStem: 192 210<419.257 1103.62> 992 210<409.352 1103.62>
LayerCount: 2
Fore
SplineSet
542 330 m 2,0,-1
 852 330 l 2,1,2
 992 330 992 330 992 470 c 2,3,-1
 992 1039 l 2,4,5
 992 1179 992 1179 852 1179 c 2,6,-1
 542 1179 l 2,7,8
 402 1179 402 1179 402 1039 c 2,9,-1
 402 470 l 2,10,11
 402 330 402 330 542 330 c 2,0,-1
1168 407 m 1,12,-1
 1245 330 l 1,13,-1
 1238 323 l 1,14,-1
 1059 259 l 1,15,-1
 1041 276 l 1,16,17
 965 240 965 240 852 240 c 2,18,-1
 542 240 l 2,19,20
 422 240 422 240 342 281 c 1,21,-1
 336 275 l 1,22,-1
 157 339 l 1,23,-1
 150 346 l 1,24,-1
 221 417 l 1,25,26
 192 489 192 489 192 590 c 2,27,-1
 192 919 l 2,28,29
 192 1030 192 1030 227 1106 c 1,30,-1
 150 1184 l 1,31,-1
 157 1191 l 1,32,-1
 335 1255 l 1,33,-1
 356 1234 l 1,34,35
 432 1269 432 1269 542 1269 c 2,36,-1
 852 1269 l 2,37,38
 962 1269 962 1269 1038 1234 c 1,39,-1
 1059 1255 l 1,40,-1
 1238 1191 l 1,41,-1
 1245 1184 l 1,42,-1
 1167 1106 l 1,43,44
 1202 1030 1202 1030 1202 919 c 2,45,-1
 1202 590 l 2,46,47
 1202 482 1202 482 1168 407 c 1,12,-1
EndSplineSet
Validated: 1
EndChar

StartChar: yen
Encoding: 165 165 101
Width: 1310
GlyphClass: 2
Flags: W
HStem: -20 21G<555 607.222> 114 90<328 555 755 982> 314 90<328 555 755 982> 450 90<391.055 555 755 918.945> 1510 20G<307.778 360 1097.78 1150>
VStem: 160 200<600.732 1440> 555 200<70 114 204 314 404 450> 950 200<600.732 1440>
CounterMasks: 1 07
LayerCount: 2
Fore
SplineSet
565 -20 m 1,0,-1
 555 -20 l 1,1,-1
 555 114 l 1,2,-1
 290 114 l 1,3,-1
 290 124 l 1,4,-1
 328 204 l 1,5,-1
 555 204 l 1,6,-1
 555 314 l 1,7,-1
 290 314 l 1,8,-1
 290 324 l 1,9,-1
 328 404 l 1,10,-1
 555 404 l 1,11,-1
 555 450 l 1,12,-1
 510 450 l 2,13,14
 160 450 160 450 160 800 c 2,15,-1
 160 1440 l 1,16,-1
 350 1530 l 1,17,-1
 360 1530 l 1,18,-1
 360 680 l 2,19,20
 360 540 360 540 500 540 c 2,21,-1
 810 540 l 2,22,23
 950 540 950 540 950 680 c 2,24,-1
 950 1440 l 1,25,-1
 1140 1530 l 1,26,-1
 1150 1530 l 1,27,-1
 1150 800 l 2,28,29
 1150 450 1150 450 800 450 c 2,30,-1
 755 450 l 1,31,-1
 755 404 l 1,32,-1
 1020 404 l 1,33,-1
 1020 394 l 1,34,-1
 982 314 l 1,35,-1
 755 314 l 1,36,-1
 755 204 l 1,37,-1
 1020 204 l 1,38,-1
 1020 194 l 1,39,-1
 982 114 l 1,40,-1
 755 114 l 1,41,-1
 755 70 l 1,42,-1
 565 -20 l 1,0,-1
EndSplineSet
Validated: 1
EndChar

StartChar: brokenbar
Encoding: 166 166 102
Width: 650
GlyphClass: 2
Flags: W
VStem: 250 150<-134 587 915 1644>
LayerCount: 2
Fore
SplineSet
250 -200 m 1,0,-1
 250 587 l 1,1,-1
 390 653 l 1,2,-1
 400 653 l 1,3,-1
 400 -134 l 1,4,-1
 260 -200 l 1,5,-1
 250 -200 l 1,0,-1
390 1710 m 1,6,-1
 400 1710 l 1,7,-1
 400 915 l 1,8,-1
 260 849 l 1,9,-1
 250 849 l 1,10,-1
 250 1644 l 1,11,-1
 390 1710 l 1,6,-1
EndSplineSet
Validated: 1
EndChar

StartChar: section
Encoding: 167 167 103
Width: 1050
GlyphClass: 2
Flags: W
HStem: 0 70<401.109 654.891> 458 80<356.787 661.365> 972 80<388.635 693.213> 1440 70<395.109 648.891>
VStem: 150 190<561.975 871> 198 180<90.9778 245 1061.12 1429.79> 672 180<80.2148 448.879 1265 1419.02> 710 190<639 948.025>
LayerCount: 2
Fore
SplineSet
612 0 m 2,0,-1
 444 0 l 2,1,2
 204 0 204 0 204 245 c 1,3,-1
 379 328 l 1,4,-1
 389 328 l 1,5,-1
 389 155 l 2,6,7
 389 70 389 70 479 70 c 2,8,-1
 582 70 l 2,9,10
 672 70 672 70 672 160 c 2,11,-1
 672 368 l 2,12,13
 672 458 672 458 582 458 c 2,14,-1
 430 458 l 2,15,16
 150 458 150 458 150 738 c 2,17,-1
 150 820 l 2,18,19
 150 908 150 908 179 971 c 1,20,-1
 340 871 l 1,21,-1
 340 628 l 2,22,23
 340 538 340 538 430 538 c 2,24,-1
 612 538 l 2,25,26
 852 538 852 538 852 298 c 2,27,-1
 852 240 l 2,28,29
 852 0 852 0 612 0 c 2,0,-1
438 1510 m 2,30,-1
 606 1510 l 2,31,32
 846 1510 846 1510 846 1265 c 1,33,-1
 671 1182 l 1,34,-1
 661 1182 l 1,35,-1
 661 1355 l 2,36,37
 661 1440 661 1440 571 1440 c 2,38,-1
 468 1440 l 2,39,40
 378 1440 378 1440 378 1350 c 2,41,-1
 378 1142 l 2,42,43
 378 1052 378 1052 468 1052 c 2,44,-1
 620 1052 l 2,45,46
 900 1052 900 1052 900 772 c 2,47,-1
 900 690 l 2,48,49
 900 602 900 602 871 539 c 1,50,-1
 710 639 l 1,51,-1
 710 882 l 2,52,53
 710 972 710 972 620 972 c 2,54,-1
 438 972 l 2,55,56
 198 972 198 972 198 1212 c 2,57,-1
 198 1270 l 2,58,59
 198 1510 198 1510 438 1510 c 2,30,-1
EndSplineSet
Validated: 1
EndChar

StartChar: dieresis
Encoding: 168 168 104
Width: 600
GlyphClass: 2
Flags: W
HStem: 1230 227<84.0344 239.966 361.004 516.996>
VStem: 50 224<1264.55 1422.45> 328 222<1265.07 1422.93>
LayerCount: 2
Fore
SplineSet
439 1458 m 128,-1,1
 486 1458 486 1458 518 1424 c 128,-1,2
 550 1390 550 1390 550 1344 c 128,-1,3
 550 1298 550 1298 518 1264 c 128,-1,4
 486 1230 486 1230 439 1230 c 128,-1,5
 392 1230 392 1230 360 1264 c 128,-1,6
 328 1298 328 1298 328 1344 c 128,-1,7
 328 1390 328 1390 360 1424 c 128,-1,0
 392 1458 392 1458 439 1458 c 128,-1,1
162 1457 m 128,-1,9
 208 1457 208 1457 241 1423.5 c 128,-1,10
 274 1390 274 1390 274 1343.5 c 128,-1,11
 274 1297 274 1297 241 1263.5 c 128,-1,12
 208 1230 208 1230 162 1230 c 128,-1,13
 116 1230 116 1230 83 1263.5 c 128,-1,14
 50 1297 50 1297 50 1343.5 c 128,-1,15
 50 1390 50 1390 83 1423.5 c 128,-1,8
 116 1457 116 1457 162 1457 c 128,-1,9
EndSplineSet
Validated: 1
EndChar

StartChar: copyright
Encoding: 169 169 105
Width: 1401
GlyphClass: 2
Flags: W
HStem: 386 48<545.181 850.676> 556 71<594.531 831.469> 1280 71<594.531 831.469> 1478 52<544.168 856.773>
VStem: 150 50<794.694 1125.05> 446 145<628.04 1278.96> 835 145<628.411 779 1139 1277.1> 1200 51<785.868 1126.58>
LayerCount: 2
Fore
SplineSet
640 1351 m 2,0,-1
 786 1351 l 2,1,2
 980 1351 980 1351 980 1152 c 2,3,-1
 980 1139 l 1,4,-1
 845 1084 l 1,5,-1
 835 1084 l 1,6,-1
 835 1230 l 2,7,8
 835 1280 835 1280 785 1280 c 2,9,-1
 641 1280 l 2,10,11
 591 1280 591 1280 591 1230 c 2,12,-1
 591 677 l 2,13,14
 591 627 591 627 641 627 c 2,15,-1
 785 627 l 2,16,17
 835 627 835 627 835 677 c 2,18,-1
 835 779 l 1,19,-1
 970 833 l 1,20,-1
 980 833 l 1,21,-1
 980 751 l 2,22,23
 980 556 980 556 786 556 c 2,24,-1
 640 556 l 2,25,26
 446 556 446 556 446 750 c 2,27,-1
 446 1157 l 2,28,29
 446 1351 446 1351 640 1351 c 2,0,-1
701 1530 m 0,30,31
 943 1530 943 1530 1099 1357 c 0,32,33
 1251 1188 1251 1188 1251 953 c 0,34,35
 1251 701 1251 701 1090 549 c 0,36,37
 919 386 919 386 699 386 c 0,38,39
 476 386 476 386 311 549 c 0,40,41
 150 708 150 708 150 953 c 0,42,43
 150 1197 150 1197 308 1362 c 0,44,45
 469 1530 469 1530 701 1530 c 0,30,31
699 1478 m 0,46,47
 499 1478 499 1478 350 1330 c 0,48,49
 200 1181 200 1181 200 953 c 0,50,51
 200 750 200 750 347 587 c 0,52,53
 485 434 485 434 701 434 c 0,54,55
 902 434 902 434 1054 587 c 0,56,57
 1200 734 1200 734 1200 953 c 0,58,59
 1200 1185 1200 1185 1056 1327 c 0,60,61
 903 1478 903 1478 699 1478 c 0,46,47
EndSplineSet
Validated: 1
EndChar

StartChar: ordfeminine
Encoding: 170 170 106
Width: 554
GlyphClass: 2
Flags: W
HStem: 790 120<102 452> 969 61<203.406 373.531 374 376> 1319 61<203.406 373.562> 1499 62<169 372.594>
VStem: 72 130<1031.5 1317.5> 374 130<1030 1319 1377 1497.03>
LayerCount: 2
Fore
SplineSet
169 1561 m 1,0,-1
 344 1560 l 2,1,2
 504 1559 504 1559 504 1400 c 2,3,-1
 504 1007 l 1,4,-1
 384 959 l 1,5,-1
 374 959 l 1,6,-1
 374 978 l 1,7,8
 359 969 359 969 344 969 c 2,9,-1
 232 969 l 2,10,11
 72 969 72 969 72 1129 c 2,12,-1
 72 1220 l 2,13,14
 72 1380 72 1380 232 1380 c 2,15,-1
 344 1380 l 2,16,17
 360 1380 360 1380 374 1377 c 1,18,-1
 374 1474 l 2,19,20
 374 1499 374 1499 349 1499 c 2,21,-1
 144 1499 l 1,22,-1
 144 1509 l 1,23,-1
 169 1561 l 1,0,-1
352 1319 m 2,24,-1
 227 1319 l 2,25,26
 202 1319 202 1319 202 1294 c 2,27,-1
 202 1055 l 2,28,29
 202 1030 202 1030 227 1030 c 2,30,-1
 352 1030 l 2,31,32
 376 1030 376 1030 376 1055 c 2,33,-1
 376 1294 l 2,34,35
 376 1319 376 1319 352 1319 c 2,24,-1
50 790 m 1,36,-1
 50 800 l 1,37,-1
 102 910 l 1,38,-1
 504 910 l 1,39,-1
 504 900 l 1,40,-1
 452 790 l 1,41,-1
 50 790 l 1,36,-1
EndSplineSet
Validated: 1
EndChar

StartChar: guillemotleft
Encoding: 171 171 107
Width: 1100
GlyphClass: 2
Flags: W
DStem2: 278 829 150 755 0.51032 -0.859984<0 511.114> 150 755 278 829 0.506484 0.862249<128.636 570.601> 630 829 502 755 0.51032 -0.859984<0 511.114> 502 755 630 829 0.506484 0.862249<128.636 570.601>
LayerCount: 2
Fore
SplineSet
502 755 m 1,0,-1
 791 1247 l 1,1,-1
 801 1247 l 1,2,-1
 861 1218 l 1,3,-1
 630 829 l 1,4,-1
 900 374 l 1,5,-1
 772 313 l 1,6,-1
 762 313 l 1,7,-1
 502 755 l 1,0,-1
150 755 m 1,8,-1
 439 1247 l 1,9,-1
 449 1247 l 1,10,-1
 509 1218 l 1,11,-1
 278 829 l 1,12,-1
 548 374 l 1,13,-1
 420 313 l 1,14,-1
 410 313 l 1,15,-1
 150 755 l 1,8,-1
EndSplineSet
Validated: 1
EndChar

StartChar: logicalnot
Encoding: 172 172 108
Width: 1200
GlyphClass: 2
Flags: W
HStem: 680 150<216 864>
DStem2: 738 418 858 418 0.430979 0.902362<51.7175 290.722>
LayerCount: 2
Fore
SplineSet
216 830 m 1,0,-1
 1050 830 l 1,1,-1
 1050 820 l 1,2,-1
 858 418 l 1,3,-1
 738 418 l 1,4,-1
 864 680 l 1,5,-1
 150 680 l 1,6,-1
 150 690 l 1,7,-1
 216 830 l 1,0,-1
EndSplineSet
Validated: 1
EndChar

StartChar: uni00AD
Encoding: 173 173 109
Width: 1200
GlyphClass: 2
Flags: W
HStem: 680 150<216 984>
LayerCount: 2
Fore
SplineSet
216 830 m 5,0,-1
 1050 830 l 5,1,-1
 1050 820 l 5,2,-1
 984 680 l 5,3,-1
 150 680 l 5,4,-1
 150 690 l 5,5,-1
 216 830 l 5,0,-1
EndSplineSet
Validated: 1
EndChar

StartChar: registered
Encoding: 174 174 110
Width: 1401
GlyphClass: 2
Flags: W
HStem: 386 48<545.181 850.676> 807 71<604 698> 1283 71<604 819.469> 1478 52<544.168 856.773>
VStem: 150 50<794.694 1125.05> 464 140<598 807 878 1283> 823 145<878.988 1281.22> 1200 51<785.868 1126.58>
DStem2: 861 822 698 807 0.577669 -0.816271<0 236.606>
LayerCount: 2
Fore
SplineSet
773 1283 m 2,0,-1
 604 1283 l 1,1,-1
 604 878 l 1,2,-1
 773 878 l 2,3,4
 823 878 823 878 823 928 c 2,5,-1
 823 1233 l 2,6,7
 823 1283 823 1283 773 1283 c 2,0,-1
892 547 m 1,8,-1
 882 547 l 1,9,-1
 698 807 l 1,10,-1
 604 807 l 1,11,-1
 604 598 l 1,12,-1
 474 547 l 1,13,-1
 464 547 l 1,14,-1
 464 1310 l 1,15,-1
 553 1354 l 1,16,-1
 774 1354 l 2,17,18
 968 1354 968 1354 968 1158 c 2,19,-1
 968 1003 l 2,20,21
 968 862 968 862 861 822 c 1,22,-1
 1018 601 l 1,23,-1
 892 547 l 1,8,-1
701 1530 m 0,24,25
 943 1530 943 1530 1099 1357 c 0,26,27
 1251 1188 1251 1188 1251 953 c 0,28,29
 1251 701 1251 701 1090 549 c 0,30,31
 919 386 919 386 699 386 c 0,32,33
 476 386 476 386 311 549 c 0,34,35
 150 708 150 708 150 953 c 0,36,37
 150 1197 150 1197 308 1362 c 0,38,39
 469 1530 469 1530 701 1530 c 0,24,25
699 1478 m 0,40,41
 499 1478 499 1478 350 1330 c 0,42,43
 200 1181 200 1181 200 953 c 0,44,45
 200 750 200 750 347 587 c 0,46,47
 485 434 485 434 701 434 c 0,48,49
 902 434 902 434 1054 587 c 0,50,51
 1200 734 1200 734 1200 953 c 0,52,53
 1200 1185 1200 1185 1056 1327 c 0,54,55
 903 1478 903 1478 699 1478 c 0,40,41
EndSplineSet
Validated: 1
EndChar

StartChar: macron
Encoding: 175 175 111
Width: 600
GlyphClass: 2
Flags: W
HStem: 1299 130<107 493>
VStem: 50 500
LayerCount: 2
Fore
SplineSet
107 1429 m 1,0,-1
 550 1429 l 1,1,-1
 550 1419 l 1,2,-1
 493 1299 l 1,3,-1
 50 1299 l 1,4,-1
 50 1309 l 1,5,-1
 107 1429 l 1,0,-1
EndSplineSet
Validated: 1
EndChar

StartChar: degree
Encoding: 176 176 112
Width: 650
GlyphClass: 2
Flags: W
HStem: 1000 66<200.062 449.938> 1494 66<200.062 449.938>
VStem: 50 145<1068.39 1491.61> 455 145<1068.39 1491.61>
LayerCount: 2
Fore
SplineSet
405 1494 m 2,0,-1
 245 1494 l 2,1,2
 195 1494 195 1494 195 1444 c 2,3,-1
 195 1116 l 2,4,5
 195 1066 195 1066 245 1066 c 2,6,7
 405 1066 l 2,8,9
 455 1066 455 1066 455 1116 c 2,10,-1
 455 1444 l 2,11,12
 455 1494 455 1494 405 1494 c 2,0,-1
404 1000 m 2,13,-1
 246 1000 l 2,14,15
 50 1000 50 1000 50 1194 c 2,16,-1
 50 1366 l 2,17,18
 50 1560 50 1560 246 1560 c 2,19,-1
 404 1560 l 2,20,21
 600 1560 600 1560 600 1366 c 2,22,-1
 600 1194 l 2,23,24
 600 1000 600 1000 404 1000 c 2,13,-1
EndSplineSet
Validated: 1
EndChar

StartChar: plusminus
Encoding: 177 177 113
Width: 1200
GlyphClass: 2
Flags: W
HStem: 275 150<216 984> 858 150<216 525 675 984>
VStem: 525 150<549 858 1008 1317>
LayerCount: 2
Fore
SplineSet
216 425 m 1,0,-1
 1050 425 l 1,1,-1
 1050 415 l 1,2,-1
 984 275 l 1,3,-1
 150 275 l 1,4,-1
 150 285 l 1,5,-1
 216 425 l 1,0,-1
525 1317 m 1,6,-1
 665 1383 l 1,7,-1
 675 1383 l 1,8,-1
 675 1008 l 1,9,-1
 1050 1008 l 1,10,-1
 1050 998 l 1,11,-1
 984 858 l 1,12,-1
 675 858 l 1,13,-1
 675 549 l 1,14,-1
 535 483 l 1,15,-1
 525 483 l 1,16,-1
 525 858 l 1,17,-1
 150 858 l 1,18,-1
 150 868 l 1,19,-1
 216 1008 l 1,20,-1
 525 1008 l 1,21,-1
 525 1317 l 1,6,-1
EndSplineSet
Validated: 1
EndChar

StartChar: uni00B2
Encoding: 178 178 114
Width: 651
VWidth: 1406
GlyphClass: 2
Flags: W
HStem: 765 131<211 554> 1494 66<219.09 439.703>
VStem: 64 148<1345 1491.25> 444 145<1171.2 1493.02>
DStem2: 94 888 211 896 0.783289 0.621658<96.6181 453.353>
LayerCount: 2
Fore
SplineSet
274 1560 m 2,0,-1
 394 1560 l 2,1,2
 589 1560 589 1560 589 1370 c 2,3,-1
 589 1309 l 2,4,5
 589 1177 589 1177 441 1067 c 2,6,-1
 211 896 l 1,7,-1
 601 896 l 1,8,-1
 601 886 l 1,9,-1
 554 765 l 1,10,-1
 50 765 l 1,11,-1
 50 775 l 1,12,-1
 94 888 l 1,13,-1
 346 1088 l 2,14,15
 444 1166 444 1166 444 1304 c 2,16,-1
 444 1444 l 2,17,18
 444 1494 444 1494 394 1494 c 2,19,-1
 262 1494 l 2,20,21
 212 1494 212 1494 212 1444 c 2,22,-1
 212 1345 l 1,23,-1
 74 1283 l 1,24,-1
 64 1283 l 1,25,-1
 64 1365 l 2,26,27
 64 1560 64 1560 274 1560 c 2,0,-1
EndSplineSet
Validated: 1
EndChar

StartChar: uni00B3
Encoding: 179 179 115
Width: 631
VWidth: 1396
GlyphClass: 2
Flags: W
HStem: 765 66<204.677 431.703> 1216 64<402 433.937> 1494 66<127 375>
VStem: 50 148<831.511 981> 436 145<833.393 1213.87>
DStem2: 249 1258 402 1280 0.498471 0.866906<95.338 267.397>
LayerCount: 2
Fore
SplineSet
127 1560 m 1,0,-1
 563 1560 l 1,1,-1
 402 1280 l 1,2,3
 581 1271 581 1271 581 1085 c 2,4,-1
 581 959 l 2,5,6
 581 765 581 765 386 765 c 2,7,-1
 245 765 l 2,8,9
 50 765 50 765 50 964 c 2,10,-1
 50 981 l 1,11,-1
 188 1033 l 1,12,-1
 198 1033 l 1,13,-1
 198 881 l 2,14,15
 198 831 198 831 248 831 c 2,16,-1
 386 831 l 2,17,18
 436 831 436 831 436 881 c 2,19,-1
 436 1166 l 2,20,21
 436 1216 436 1216 386 1216 c 2,22,-1
 283 1216 l 1,23,-1
 249 1258 l 1,24,-1
 375 1494 l 1,25,-1
 106 1494 l 1,26,-1
 106 1505 l 1,27,-1
 127 1560 l 1,0,-1
EndSplineSet
Validated: 1
EndChar

StartChar: acute
Encoding: 180 180 116
Width: 377
GlyphClass: 2
Flags: W
HStem: 1160 367
VStem: 50 277
DStem2: 50 1216 178 1160 0.427336 0.904093<4.06987 343.991>
LayerCount: 2
Fore
SplineSet
207 1527 m 1,0,-1
 327 1470 l 1,1,-1
 178 1160 l 1,2,-1
 168 1160 l 1,3,-1
 50 1216 l 1,4,-1
 197 1527 l 1,5,-1
 207 1527 l 1,0,-1
EndSplineSet
Validated: 1
EndChar

StartChar: uni00B5
Encoding: 181 181 117
Width: 1190
GlyphClass: 2
Flags: W
HStem: -430 21G<180 231.975> 0 80<371.188 817.979> 1100 20G<308.025 360 958.025 1010>
VStem: 180 180<-349 11 87.9321 1039> 830 180<103.975 1039>
LayerCount: 2
Fore
SplineSet
730 0 m 2,0,-1
 460 0 l 2,1,2
 404 0 404 0 360 11 c 1,3,-1
 360 -349 l 1,4,-1
 190 -430 l 1,5,-1
 180 -430 l 1,6,-1
 180 1039 l 1,7,-1
 350 1120 l 1,8,-1
 360 1120 l 1,9,-1
 360 170 l 2,10,11
 360 80 360 80 450 80 c 2,12,-1
 740 80 l 2,13,14
 830 80 830 80 830 170 c 2,15,-1
 830 1039 l 1,16,-1
 1000 1120 l 1,17,-1
 1010 1120 l 1,18,-1
 1010 280 l 2,19,20
 1010 0 1010 0 730 0 c 2,0,-1
EndSplineSet
Validated: 1
EndChar

StartChar: paragraph
Encoding: 182 182 118
Width: 1180
GlyphClass: 2
Flags: W
HStem: -20 21G<780 832.857> 1490 20G<290 840>
VStem: 780 70<8 555> 914 66<70 1140>
LayerCount: 2
Fore
SplineSet
790 -20 m 1,0,-1
 780 -20 l 1,1,-1
 780 555 l 1,2,3
 742 548 742 548 700 548 c 2,4,-1
 430 548 l 2,5,6
 150 548 150 548 150 828 c 2,7,-1
 150 1230 l 2,8,9
 150 1510 150 1510 430 1510 c 2,10,-1
 700 1510 l 2,11,12
 980 1510 980 1510 980 1230 c 2,13,-1
 980 70 l 1,14,-1
 914 39 l 1,15,-1
 914 1140 l 1,16,-1
 850 1110 l 1,17,-1
 850 8 l 1,18,-1
 790 -20 l 1,0,-1
EndSplineSet
Validated: 1
EndChar

StartChar: periodcentered
Encoding: 183 183 119
Width: 340
GlyphClass: 2
Flags: W
HStem: 632 245<86.0974 253.903>
VStem: 50 240<669.129 839.871>
LayerCount: 2
Fore
SplineSet
170 877 m 128,-1,1
 220 877 220 877 255 841 c 128,-1,2
 290 805 290 805 290 754.5 c 128,-1,3
 290 704 290 704 255 668 c 128,-1,4
 220 632 220 632 170 632 c 128,-1,5
 120 632 120 632 85 668 c 128,-1,6
 50 704 50 704 50 754.5 c 128,-1,7
 50 805 50 805 85 841 c 128,-1,0
 120 877 120 877 170 877 c 128,-1,1
EndSplineSet
Validated: 1
EndChar

StartChar: cedilla
Encoding: 184 184 120
Width: 420
GlyphClass: 2
Flags: W
HStem: -410 130<107 197.422>
VStem: 156 103<-61.7314 0> 222 148<-257.261 -86.9303>
LayerCount: 2
Fore
SplineSet
50 -410 m 1,0,-1
 50 -400 l 1,1,-1
 107 -280 l 1,2,3
 222 -264 222 -264 222 -173 c 0,4,5
 222 -100 222 -100 156 -76 c 1,6,-1
 156 0 l 1,7,-1
 259 0 l 1,8,-1
 259 -40 l 1,9,10
 370 -83 370 -83 370 -187 c 0,11,12
 370 -410 370 -410 50 -410 c 1,0,-1
EndSplineSet
Validated: 1
EndChar

StartChar: uni00B9
Encoding: 185 185 121
Width: 412
VWidth: 1401
GlyphClass: 2
Flags: W
VStem: 172 140<787 1449>
DStem2: 50 1460 50 1391 0.916491 0.400056<0 107.411>
LayerCount: 2
Fore
SplineSet
302 1570 m 1,0,-1
 312 1570 l 1,1,-1
 312 787 l 1,2,-1
 182 736 l 1,3,-1
 172 736 l 1,4,-1
 172 1449 l 1,5,-1
 50 1391 l 1,6,-1
 50 1460 l 1,7,-1
 302 1570 l 1,0,-1
EndSplineSet
Validated: 1
EndChar

StartChar: ordmasculine
Encoding: 186 186 122
Width: 554
GlyphClass: 2
Flags: W
HStem: 790 120<102 452> 969 61<181.406 372.594> 1499 61<181.406 372.594>
VStem: 50 130<1031.5 1497.5> 374 130<1031.5 1497.5>
LayerCount: 2
Fore
SplineSet
180 1474 m 2,0,-1
 180 1055 l 2,1,2
 180 1030 180 1030 204 1030 c 2,3,-1
 350 1030 l 2,4,5
 374 1030 374 1030 374 1055 c 2,6,-1
 374 1474 l 2,7,8
 374 1499 374 1499 350 1499 c 2,9,-1
 204 1499 l 2,10,11
 180 1499 180 1499 180 1474 c 2,0,-1
210 1560 m 2,12,-1
 344 1560 l 2,13,14
 504 1560 504 1560 504 1400 c 2,15,-1
 504 1129 l 2,16,17
 504 969 504 969 344 969 c 2,18,-1
 210 969 l 2,19,20
 50 969 50 969 50 1129 c 2,21,-1
 50 1400 l 2,22,23
 50 1560 50 1560 210 1560 c 2,12,-1
50 790 m 1,24,-1
 50 800 l 1,25,-1
 102 910 l 1,26,-1
 504 910 l 1,27,-1
 504 900 l 1,28,-1
 452 790 l 1,29,-1
 50 790 l 1,24,-1
EndSplineSet
Validated: 1
EndChar

StartChar: guillemotright
Encoding: 187 187 123
Width: 1100
GlyphClass: 2
Flags: W
DStem2: 338 1197 200 1136 0.51032 -0.859984<0 511.114> 239 292 309 263 0.506484 0.862249<10.4486 452.413> 690 1197 552 1136 0.51032 -0.859984<0 511.114> 591 292 661 263 0.506484 0.862249<10.4486 452.413>
LayerCount: 2
Fore
SplineSet
598 755 m 1,0,-1
 309 263 l 1,1,-1
 299 263 l 1,2,-1
 239 292 l 1,3,-1
 470 681 l 1,4,-1
 200 1136 l 1,5,-1
 328 1197 l 1,6,-1
 338 1197 l 1,7,-1
 598 755 l 1,0,-1
950 755 m 1,8,-1
 661 263 l 1,9,-1
 651 263 l 1,10,-1
 591 292 l 1,11,-1
 822 681 l 1,12,-1
 552 1136 l 1,13,-1
 680 1197 l 1,14,-1
 690 1197 l 1,15,-1
 950 755 l 1,8,-1
EndSplineSet
Validated: 1
EndChar

StartChar: onequarter
Encoding: 188 188 124
Width: 1572
VWidth: 1401
GlyphClass: 2
Flags: W
HStem: -20 21G<413.032 473.341 1206 1266.98> 180 66<938 1206 1346 1396> 1510 20G<356.182 412 1011.67 1072.29>
VStem: 272 140<747 1409> 1206 140<31 180 246 639>
DStem2: 150 1420 150 1351 0.916491 0.400056<0 107.411> 327 42 464 -20 0.423185 0.906043<1.80173 1641.88> 820 190 938 246 0.562937 0.8265<112.711 588.392>
LayerCount: 2
Fore
SplineSet
402 1530 m 1,0,-1
 412 1530 l 1,1,-1
 412 747 l 1,2,-1
 282 696 l 1,3,-1
 272 696 l 1,4,-1
 272 1409 l 1,5,-1
 150 1351 l 1,6,-1
 150 1420 l 1,7,-1
 402 1530 l 1,0,-1
454 -20 m 1,8,-1
 327 42 l 1,9,-1
 1021 1530 l 1,10,-1
 1031 1530 l 1,11,-1
 1159 1468 l 1,12,-1
 464 -20 l 1,13,-1
 454 -20 l 1,8,-1
938 246 m 1,14,-1
 1206 246 l 1,15,-1
 1206 639 l 1,16,-1
 938 246 l 1,14,-1
1216 -20 m 1,17,-1
 1206 -20 l 1,18,-1
 1206 180 l 1,19,-1
 820 180 l 1,20,-1
 820 190 l 1,21,-1
 1213 767 l 1,22,-1
 1336 815 l 1,23,-1
 1346 815 l 1,24,-1
 1346 246 l 1,25,-1
 1422 246 l 1,26,-1
 1422 236 l 1,27,-1
 1396 180 l 1,28,-1
 1346 180 l 1,29,-1
 1346 31 l 1,30,-1
 1216 -20 l 1,17,-1
EndSplineSet
Validated: 1
EndChar

StartChar: onehalf
Encoding: 189 189 125
Width: 1718
VWidth: 1401
GlyphClass: 2
Flags: W
HStem: -20 21G<413.032 473.341> 0 131<1178 1521> 729 66<1186.09 1406.7> 1510 20G<356.182 412 1011.67 1072.29>
VStem: 272 140<747 1409> 1031 148<580 726.255> 1411 145<406.205 728.018>
DStem2: 150 1420 150 1351 0.916491 0.400056<0 107.411> 327 42 464 -20 0.423185 0.906043<1.80173 1641.88> 1061 123 1178 131 0.783289 0.621658<96.6181 453.353>
LayerCount: 2
Fore
SplineSet
1521 0 m 1,0,-1
 1017 0 l 1,1,-1
 1017 10 l 1,2,-1
 1061 123 l 1,3,-1
 1313 323 l 2,4,5
 1411 401 1411 401 1411 539 c 2,6,-1
 1411 679 l 2,7,8
 1411 729 1411 729 1361 729 c 2,9,-1
 1229 729 l 2,10,11
 1179 729 1179 729 1179 679 c 2,12,-1
 1179 580 l 1,13,-1
 1041 518 l 1,14,-1
 1031 518 l 1,15,-1
 1031 600 l 2,16,17
 1031 795 1031 795 1241 795 c 2,18,-1
 1361 795 l 2,19,20
 1556 795 1556 795 1556 605 c 2,21,-1
 1556 544 l 2,22,23
 1556 412 1556 412 1408 302 c 2,24,-1
 1178 131 l 1,25,-1
 1568 131 l 1,26,-1
 1568 121 l 1,27,-1
 1521 0 l 1,0,-1
402 1530 m 1,28,-1
 412 1530 l 1,29,-1
 412 747 l 1,30,-1
 282 696 l 1,31,-1
 272 696 l 1,32,-1
 272 1409 l 1,33,-1
 150 1351 l 1,34,-1
 150 1420 l 1,35,-1
 402 1530 l 1,28,-1
454 -20 m 1,36,-1
 327 42 l 1,37,-1
 1021 1530 l 1,38,-1
 1031 1530 l 1,39,-1
 1159 1468 l 1,40,-1
 464 -20 l 1,41,-1
 454 -20 l 1,36,-1
EndSplineSet
Validated: 1
EndChar

StartChar: threequarters
Encoding: 190 190 126
Width: 1796
VWidth: 1401
GlyphClass: 2
Flags: W
HStem: -20 21G<637.032 697.341 1430 1490.98> 180 66<1162 1430 1570 1620> 735 66<304.677 531.703> 1186 64<502 533.937> 1464 66<227 475>
VStem: 150 148<801.511 951> 536 145<803.393 1183.87> 1430 140<31 180 246 639>
DStem2: 349 1228 502 1250 0.498471 0.866906<95.338 267.397> 551 42 688 -20 0.423185 0.906043<1.80173 1641.88> 1044 190 1162 246 0.562937 0.8265<112.711 588.392>
LayerCount: 2
Fore
SplineSet
227 1530 m 1,0,-1
 663 1530 l 1,1,-1
 502 1250 l 1,2,3
 681 1241 681 1241 681 1055 c 2,4,-1
 681 929 l 2,5,6
 681 735 681 735 486 735 c 2,7,-1
 345 735 l 2,8,9
 150 735 150 735 150 934 c 2,10,-1
 150 951 l 1,11,-1
 288 1003 l 1,12,-1
 298 1003 l 1,13,-1
 298 851 l 2,14,15
 298 801 298 801 348 801 c 2,16,-1
 486 801 l 2,17,18
 536 801 536 801 536 851 c 2,19,-1
 536 1136 l 2,20,21
 536 1186 536 1186 486 1186 c 2,22,-1
 383 1186 l 1,23,-1
 349 1228 l 1,24,-1
 475 1464 l 1,25,-1
 206 1464 l 1,26,-1
 206 1475 l 1,27,-1
 227 1530 l 1,0,-1
1162 246 m 1,28,-1
 1430 246 l 1,29,-1
 1430 639 l 1,30,-1
 1162 246 l 1,28,-1
1440 -20 m 1,31,-1
 1430 -20 l 1,32,-1
 1430 180 l 1,33,-1
 1044 180 l 1,34,-1
 1044 190 l 1,35,-1
 1437 767 l 1,36,-1
 1560 815 l 1,37,-1
 1570 815 l 1,38,-1
 1570 246 l 1,39,-1
 1646 246 l 1,40,-1
 1646 236 l 1,41,-1
 1620 180 l 1,42,-1
 1570 180 l 1,43,-1
 1570 31 l 1,44,-1
 1440 -20 l 1,31,-1
678 -20 m 1,45,-1
 551 42 l 1,46,-1
 1245 1530 l 1,47,-1
 1255 1530 l 1,48,-1
 1383 1468 l 1,49,-1
 688 -20 l 1,50,-1
 678 -20 l 1,45,-1
EndSplineSet
Validated: 1
EndChar

StartChar: questiondown
Encoding: 191 191 127
Width: 1270
GlyphClass: 2
Flags: W
HStem: -410 90<390.027 878.203> 875 245<591.097 758.903>
VStem: 150 210<-259.268 191.444> 555 240<912.129 1082.87> 569 203<578.284 701> 905 215<-256.802 -34>
LayerCount: 2
Fore
SplineSet
740 -410 m 2,0,1
 500 -410 l 2,2,3
 150 -410 150 -410 150 -60 c 2,4,-1
 150 -15 l 2,5,6
 150 299 150 299 479 464 c 0,7,8
 569 509 569 509 569 701 c 1,9,-1
 762 794 l 1,10,-1
 772 794 l 1,11,12
 772 517 772 517 562 412 c 0,13,14
 360 311 360 311 360 83 c 2,15,-1
 360 -180 l 2,16,17
 360 -320 360 -320 500 -320 c 2,18,-1
 765 -320 l 2,19,20
 905 -320 905 -320 905 -180 c 2,21,-1
 905 -34 l 1,22,-1
 1110 64 l 1,23,-1
 1120 64 l 1,24,-1
 1120 -60 l 2,25,26
 1120 -410 1120 -410 740 -410 c 2,0,1
675 1120 m 128,-1,28
 725 1120 725 1120 760 1084 c 128,-1,29
 795 1048 795 1048 795 997.5 c 128,-1,30
 795 947 795 947 760 911 c 128,-1,31
 725 875 725 875 675 875 c 128,-1,32
 625 875 625 875 590 911 c 128,-1,33
 555 947 555 947 555 997.5 c 128,-1,34
 555 1048 555 1048 590 1084 c 128,-1,27
 625 1120 625 1120 675 1120 c 128,-1,28
EndSplineSet
Validated: 1
EndChar

StartChar: endash
Encoding: 8211 8211 128
Width: 1200
GlyphClass: 2
Flags: W
HStem: 680 150<216 984>
LayerCount: 2
Fore
SplineSet
216 830 m 5,0,-1
 1050 830 l 5,1,-1
 1050 820 l 5,2,-1
 984 680 l 5,3,-1
 150 680 l 5,4,-1
 150 690 l 5,5,-1
 216 830 l 5,0,-1
EndSplineSet
Validated: 1
EndChar

StartChar: emdash
Encoding: 8212 8212 129
Width: 1500
GlyphClass: 2
Flags: W
HStem: 680 150<216 1284>
LayerCount: 2
Fore
SplineSet
216 830 m 1,0,-1
 1350 830 l 1,1,-1
 1350 820 l 1,2,-1
 1284 680 l 1,3,-1
 150 680 l 1,4,-1
 150 690 l 1,5,-1
 216 830 l 1,0,-1
EndSplineSet
Validated: 1
EndChar

StartChar: afii00208
Encoding: 8213 8213 130
Width: 1500
GlyphClass: 2
Flags: W
HStem: 680 150<216 1284>
LayerCount: 2
Fore
SplineSet
216 830 m 1,0,-1
 1350 830 l 1,1,-1
 1350 820 l 1,2,-1
 1284 680 l 1,3,-1
 150 680 l 1,4,-1
 150 690 l 1,5,-1
 216 830 l 1,0,-1
EndSplineSet
Validated: 1
EndChar

StartChar: quoteleft
Encoding: 8216 8216 131
Width: 389
GlyphClass: 2
Flags: W
HStem: 1046 554
VStem: 50 155<1202.44 1446.68>
LayerCount: 2
Fore
SplineSet
275 1600 m 1,0,-1
 282 1593 l 1,1,2
 205 1463 205 1463 205 1334 c 128,-1,3
 205 1205 205 1205 339 1126 c 1,4,-1
 169 1046 l 1,5,-1
 159 1046 l 1,6,7
 50 1153 50 1153 50 1290 c 0,8,9
 50 1487 50 1487 275 1600 c 1,0,-1
EndSplineSet
Validated: 1
EndChar

StartChar: quoteright
Encoding: 8217 8217 132
Width: 389
GlyphClass: 2
Flags: W
HStem: 1046 554
VStem: 184 155<1199.32 1443.56>
LayerCount: 2
Fore
SplineSet
220 1600 m 1,0,-1
 230 1600 l 1,1,2
 339 1493 339 1493 339 1356 c 0,3,4
 339 1159 339 1159 114 1046 c 1,5,-1
 107 1053 l 1,6,7
 184 1183 184 1183 184 1312 c 128,-1,8
 184 1441 184 1441 50 1520 c 1,9,-1
 220 1600 l 1,0,-1
EndSplineSet
Validated: 1
EndChar

StartChar: quotesinglbase
Encoding: 8218 8218 133
Width: 389
GlyphClass: 2
Flags: W
HStem: -276 554
VStem: 184 155<-122.682 121.561>
LayerCount: 2
Fore
SplineSet
220 278 m 1,0,-1
 230 278 l 1,1,2
 339 171 339 171 339 34 c 0,3,4
 339 -163 339 -163 114 -276 c 1,5,-1
 107 -269 l 1,6,7
 184 -139 184 -139 184 -10 c 128,-1,8
 184 119 184 119 50 198 c 1,9,-1
 220 278 l 1,0,-1
EndSplineSet
Validated: 1
EndChar

StartChar: quotereversed
Encoding: 8219 8219 134
Width: 389
GlyphClass: 2
Flags: W
HStem: 1046 554
VStem: 50 155<1199.32 1443.56>
LayerCount: 2
Fore
SplineSet
169 1600 m 1,0,-1
 339 1520 l 1,1,2
 205 1441 205 1441 205 1312 c 128,-1,3
 205 1183 205 1183 282 1053 c 1,4,-1
 275 1046 l 1,5,6
 50 1159 50 1159 50 1356 c 0,7,8
 50 1493 50 1493 159 1600 c 1,9,-1
 169 1600 l 1,0,-1
EndSplineSet
Validated: 1
EndChar

StartChar: quotedblleft
Encoding: 8220 8220 135
Width: 688
GlyphClass: 2
Flags: W
HStem: 1046 554
VStem: 50 155<1202.44 1446.68> 349 155<1202.44 1446.68>
LayerCount: 2
Fore
SplineSet
275 1600 m 1,0,-1
 282 1593 l 1,1,2
 205 1463 205 1463 205 1334 c 128,-1,3
 205 1205 205 1205 339 1126 c 1,4,-1
 169 1046 l 1,5,-1
 159 1046 l 1,6,7
 50 1153 50 1153 50 1290 c 0,8,9
 50 1487 50 1487 275 1600 c 1,0,-1
574 1600 m 1,10,-1
 581 1593 l 1,11,12
 504 1463 504 1463 504 1334 c 128,-1,13
 504 1205 504 1205 638 1126 c 1,14,-1
 468 1046 l 1,15,-1
 458 1046 l 1,16,17
 349 1153 349 1153 349 1290 c 0,18,19
 349 1487 349 1487 574 1600 c 1,10,-1
EndSplineSet
Validated: 1
EndChar

StartChar: quotedblright
Encoding: 8221 8221 136
Width: 688
GlyphClass: 2
Flags: W
HStem: 1046 554
VStem: 184 155<1199.32 1443.56> 483 155<1199.32 1443.56>
LayerCount: 2
Fore
SplineSet
519 1600 m 1,0,-1
 529 1600 l 1,1,2
 638 1493 638 1493 638 1356 c 0,3,4
 638 1159 638 1159 413 1046 c 1,5,-1
 406 1053 l 1,6,7
 483 1183 483 1183 483 1312 c 128,-1,8
 483 1441 483 1441 349 1520 c 1,9,-1
 519 1600 l 1,0,-1
220 1600 m 1,10,-1
 230 1600 l 1,11,12
 339 1493 339 1493 339 1356 c 0,13,14
 339 1159 339 1159 114 1046 c 1,15,-1
 107 1053 l 1,16,17
 184 1183 184 1183 184 1312 c 128,-1,18
 184 1441 184 1441 50 1520 c 1,19,-1
 220 1600 l 1,10,-1
EndSplineSet
Validated: 1
EndChar

StartChar: quotedblbase
Encoding: 8222 8222 137
Width: 688
GlyphClass: 2
Flags: W
HStem: -276 554
VStem: 184 155<-122.682 121.561> 483 155<-122.682 121.561>
LayerCount: 2
Fore
SplineSet
519 278 m 1,0,-1
 529 278 l 1,1,2
 638 171 638 171 638 34 c 0,3,4
 638 -163 638 -163 413 -276 c 1,5,-1
 406 -269 l 1,6,7
 483 -139 483 -139 483 -10 c 128,-1,8
 483 119 483 119 349 198 c 1,9,-1
 519 278 l 1,0,-1
220 278 m 1,10,-1
 230 278 l 1,11,12
 339 171 339 171 339 34 c 0,13,14
 339 -163 339 -163 114 -276 c 1,15,-1
 107 -269 l 1,16,17
 184 -139 184 -139 184 -10 c 128,-1,18
 184 119 184 119 50 198 c 1,19,-1
 220 278 l 1,10,-1
EndSplineSet
Validated: 1
EndChar

StartChar: dagger
Encoding: 8224 8224 138
Width: 1214
GlyphClass: 2
Flags: W
HStem: -20 21G<507 559.222> 1088 90<188 507 707 1026> 1510 20G<654.778 707>
VStem: 507 200<70 1088 1178 1440>
LayerCount: 2
Fore
SplineSet
517 -20 m 1,0,-1
 507 -20 l 1,1,-1
 507 1088 l 1,2,-1
 150 1088 l 1,3,-1
 150 1098 l 1,4,-1
 188 1178 l 1,5,-1
 507 1178 l 1,6,-1
 507 1440 l 1,7,-1
 697 1530 l 1,8,-1
 707 1530 l 1,9,-1
 707 1178 l 1,10,-1
 1064 1178 l 1,11,-1
 1064 1168 l 1,12,-1
 1026 1088 l 1,13,-1
 707 1088 l 1,14,-1
 707 70 l 1,15,-1
 517 -20 l 1,0,-1
EndSplineSet
Validated: 1
EndChar

StartChar: daggerdbl
Encoding: 8225 8225 139
Width: 1214
GlyphClass: 2
Flags: W
HStem: -20 21G<507 559.222> 332 90<188 507 707 1026> 1088 90<188 507 707 1026> 1510 20G<654.778 707>
VStem: 507 200<70 332 422 1088 1178 1440>
LayerCount: 2
Fore
SplineSet
517 -20 m 1,0,-1
 507 -20 l 1,1,-1
 507 332 l 1,2,-1
 150 332 l 1,3,-1
 150 342 l 1,4,-1
 188 422 l 1,5,-1
 507 422 l 1,6,-1
 507 1088 l 1,7,-1
 150 1088 l 1,8,-1
 150 1098 l 1,9,-1
 188 1178 l 1,10,-1
 507 1178 l 1,11,-1
 507 1440 l 1,12,-1
 697 1530 l 1,13,-1
 707 1530 l 1,14,-1
 707 1178 l 1,15,-1
 1064 1178 l 1,16,-1
 1064 1168 l 1,17,-1
 1026 1088 l 1,18,-1
 707 1088 l 1,19,-1
 707 422 l 1,20,-1
 1064 422 l 1,21,-1
 1064 412 l 1,22,-1
 1026 332 l 1,23,-1
 707 332 l 1,24,-1
 707 70 l 1,25,-1
 517 -20 l 1,0,-1
EndSplineSet
Validated: 1
EndChar

StartChar: bullet
Encoding: 8226 8226 140
Width: 900
GlyphClass: 2
Flags: W
HStem: 450 610<205.316 694.684>
VStem: 150 600<504.752 1005.25>
LayerCount: 2
Fore
SplineSet
346 1060 m 2,0,-1
 554 1060 l 2,1,2
 750 1060 750 1060 750 866 c 2,3,-1
 750 644 l 2,4,5
 750 450 750 450 554 450 c 2,6,-1
 346 450 l 2,7,8
 150 450 150 450 150 644 c 2,9,-1
 150 866 l 2,10,11
 150 1060 150 1060 346 1060 c 2,0,-1
EndSplineSet
Validated: 1
EndChar

StartChar: ellipsis
Encoding: 8230 8230 141
Width: 1012
GlyphClass: 2
Flags: W
HStem: -20 245<86.0974 253.903 422.097 589.903 758.097 925.903>
VStem: 50 240<17.1285 187.871> 386 240<17.1285 187.871> 722 240<17.1285 187.871>
CounterMasks: 1 70
LayerCount: 2
Fore
SplineSet
842 -20 m 128,-1,1
 792 -20 792 -20 757 16 c 128,-1,2
 722 52 722 52 722 102.5 c 128,-1,3
 722 153 722 153 757 189 c 128,-1,4
 792 225 792 225 842 225 c 128,-1,5
 892 225 892 225 927 189 c 128,-1,6
 962 153 962 153 962 102.5 c 128,-1,7
 962 52 962 52 927 16 c 128,-1,0
 892 -20 892 -20 842 -20 c 128,-1,1
506 -20 m 128,-1,9
 456 -20 456 -20 421 16 c 128,-1,10
 386 52 386 52 386 102.5 c 128,-1,11
 386 153 386 153 421 189 c 128,-1,12
 456 225 456 225 506 225 c 128,-1,13
 556 225 556 225 591 189 c 128,-1,14
 626 153 626 153 626 102.5 c 128,-1,15
 626 52 626 52 591 16 c 128,-1,8
 556 -20 556 -20 506 -20 c 128,-1,9
170 -20 m 128,-1,17
 120 -20 120 -20 85 16 c 128,-1,18
 50 52 50 52 50 102.5 c 128,-1,19
 50 153 50 153 85 189 c 128,-1,20
 120 225 120 225 170 225 c 128,-1,21
 220 225 220 225 255 189 c 128,-1,22
 290 153 290 153 290 102.5 c 128,-1,23
 290 52 290 52 255 16 c 128,-1,16
 220 -20 220 -20 170 -20 c 128,-1,17
EndSplineSet
Validated: 1
EndChar

StartChar: perthousand
Encoding: 8240 8240 142
Width: 2220
GlyphClass: 2
Flags: W
HStem: -20 21G<444.032 504.341> 0 66<947.062 1246.94 1620.06 1919.94> 544 66<947.062 1246.94 1620.06 1919.94> 900 66<300.062 599.938> 1444 66<300.062 599.938> 1510 20G<1042.67 1103.29>
VStem: 150 145<968.393 1441.61> 605 145<968.393 1441.61> 797 145<68.3926 541.607> 1252 145<68.3926 541.607> 1470 145<68.3926 541.607> 1925 145<68.3926 541.607>
DStem2: 358 42 495 -20 0.423185 0.906043<1.80173 1641.88>
LayerCount: 2
Fore
SplineSet
1665 66 m 2,0,-1
 1875 66 l 2,1,2
 1925 66 1925 66 1925 116 c 2,3,-1
 1925 494 l 2,4,5
 1925 544 1925 544 1875 544 c 2,6,7
 1665 544 l 2,8,9
 1615 544 1615 544 1615 494 c 2,10,-1
 1615 116 l 2,11,12
 1615 66 1615 66 1665 66 c 2,0,-1
992 66 m 2,13,-1
 1202 66 l 2,14,15
 1252 66 1252 66 1252 116 c 2,16,-1
 1252 494 l 2,17,18
 1252 544 1252 544 1202 544 c 2,19,-1
 992 544 l 2,20,21
 942 544 942 544 942 494 c 2,22,-1
 942 116 l 2,23,24
 942 66 942 66 992 66 c 2,13,-1
1201 0 m 2,25,-1
 993 0 l 2,26,27
 797 0 797 0 797 194 c 2,28,-1
 797 416 l 2,29,30
 797 610 797 610 993 610 c 2,31,-1
 1201 610 l 2,32,33
 1397 610 1397 610 1397 416 c 2,34,-1
 1397 194 l 2,35,36
 1397 0 1397 0 1201 0 c 2,25,-1
555 1444 m 2,37,-1
 345 1444 l 2,38,39
 295 1444 295 1444 295 1394 c 2,40,-1
 295 1016 l 2,41,42
 295 966 295 966 345 966 c 2,43,-1
 555 966 l 2,44,45
 605 966 605 966 605 1016 c 2,46,-1
 605 1394 l 2,47,48
 605 1444 605 1444 555 1444 c 2,37,-1
346 1510 m 2,49,-1
 554 1510 l 2,50,51
 750 1510 750 1510 750 1316 c 2,52,-1
 750 1094 l 2,53,54
 750 900 750 900 554 900 c 2,55,-1
 346 900 l 2,56,57
 150 900 150 900 150 1094 c 2,58,-1
 150 1316 l 2,59,60
 150 1510 150 1510 346 1510 c 2,49,-1
485 -20 m 1,61,-1
 358 42 l 1,62,-1
 1052 1530 l 1,63,-1
 1062 1530 l 1,64,-1
 1190 1468 l 1,65,-1
 495 -20 l 1,66,-1
 485 -20 l 1,61,-1
1874 0 m 2,67,-1
 1666 0 l 2,68,69
 1470 0 1470 0 1470 194 c 2,70,-1
 1470 416 l 2,71,72
 1470 610 1470 610 1666 610 c 2,73,-1
 1874 610 l 2,74,75
 2070 610 2070 610 2070 416 c 2,76,-1
 2070 194 l 2,77,78
 2070 0 2070 0 1874 0 c 2,67,-1
EndSplineSet
Validated: 1
EndChar

StartChar: minute
Encoding: 8242 8242 143
Width: 414
GlyphClass: 2
Flags: W
HStem: 1201 399
VStem: 50 314
LayerCount: 2
Fore
SplineSet
201 1600 m 1,0,-1
 211 1600 l 1,1,-1
 364 1527 l 1,2,-1
 154 1201 l 1,3,-1
 144 1201 l 1,4,-1
 50 1245 l 1,5,-1
 201 1600 l 1,0,-1
EndSplineSet
Validated: 1
EndChar

StartChar: second
Encoding: 8243 8243 144
Width: 667
GlyphClass: 2
Flags: W
HStem: 1201 399
VStem: 50 567
LayerCount: 2
Fore
SplineSet
454 1600 m 1,0,-1
 464 1600 l 1,1,-1
 617 1527 l 1,2,-1
 407 1201 l 1,3,-1
 397 1201 l 1,4,-1
 303 1245 l 1,5,-1
 454 1600 l 1,0,-1
201 1600 m 1,6,-1
 211 1600 l 1,7,-1
 364 1527 l 1,8,-1
 154 1201 l 1,9,-1
 144 1201 l 1,10,-1
 50 1245 l 1,11,-1
 201 1600 l 1,6,-1
EndSplineSet
Validated: 1
EndChar

StartChar: guilsinglleft
Encoding: 8249 8249 145
Width: 748
GlyphClass: 2
Flags: W
VStem: 150 398
DStem2: 278 829 150 755 0.51032 -0.859984<0 511.114> 150 755 278 829 0.506484 0.862249<128.636 570.601>
LayerCount: 2
Fore
SplineSet
150 755 m 1,0,-1
 439 1247 l 1,1,-1
 449 1247 l 1,2,-1
 509 1218 l 1,3,-1
 278 829 l 1,4,-1
 548 374 l 1,5,-1
 420 313 l 1,6,-1
 410 313 l 1,7,-1
 150 755 l 1,0,-1
EndSplineSet
Validated: 1
EndChar

StartChar: guilsinglright
Encoding: 8250 8250 146
Width: 798
GlyphClass: 2
Flags: W
VStem: 200 398
DStem2: 338 1197 200 1136 0.51032 -0.859984<0 511.114> 239 292 309 263 0.506484 0.862249<10.4486 452.413>
LayerCount: 2
Fore
SplineSet
598 755 m 1,0,-1
 309 263 l 1,1,-1
 299 263 l 1,2,-1
 239 292 l 1,3,-1
 470 681 l 1,4,-1
 200 1136 l 1,5,-1
 328 1197 l 1,6,-1
 338 1197 l 1,7,-1
 598 755 l 1,0,-1
EndSplineSet
Validated: 1
EndChar

StartChar: fraction
Encoding: 8260 8260 147
Width: 852
GlyphClass: 2
Flags: W
HStem: -20 21G<96.0323 156.341> 1510 20G<694.672 755.29>
DStem2: 10 42 147 -20 0.423185 0.906043<1.80173 1641.88>
LayerCount: 2
Fore
SplineSet
137 -20 m 1,0,-1
 10 42 l 1,1,-1
 704 1530 l 1,2,-1
 714 1530 l 1,3,-1
 842 1468 l 1,4,-1
 147 -20 l 1,5,-1
 137 -20 l 1,0,-1
EndSplineSet
Validated: 1
EndChar

StartChar: Euro
Encoding: 8364 8364 148
Width: 1400
GlyphClass: 2
Flags: W
HStem: 0 90<500.027 1000.83> 595 90<118 260 470 932> 795 90<118 260 470 932> 1420 90<500.027 1000.83>
VStem: 260 210<150.732 595 685 795 885 1359.27> 1035 215<150.732 376 1152 1355.82>
LayerCount: 2
Fore
SplineSet
80 595 m 1,0,-1
 80 605 l 1,1,-1
 118 685 l 1,2,-1
 260 685 l 1,3,-1
 260 795 l 1,4,-1
 80 795 l 1,5,-1
 80 805 l 1,6,-1
 118 885 l 1,7,-1
 260 885 l 1,8,-1
 260 1160 l 2,9,10
 260 1510 260 1510 610 1510 c 2,11,-1
 900 1510 l 2,12,13
 1250 1510 1250 1510 1250 1152 c 1,14,-1
 1045 1055 l 1,15,-1
 1035 1055 l 1,16,-1
 1035 1280 l 2,17,18
 1035 1420 1035 1420 895 1420 c 2,19,-1
 610 1420 l 2,20,21
 470 1420 470 1420 470 1280 c 2,22,-1
 470 885 l 1,23,-1
 970 885 l 1,24,-1
 970 875 l 1,25,-1
 932 795 l 1,26,-1
 470 795 l 1,27,-1
 470 685 l 1,28,-1
 970 685 l 1,29,-1
 970 675 l 1,30,-1
 932 595 l 1,31,-1
 470 595 l 1,32,-1
 470 230 l 2,33,34
 470 90 470 90 610 90 c 2,35,-1
 895 90 l 2,36,37
 1035 90 1035 90 1035 230 c 2,38,-1
 1035 376 l 1,39,-1
 1240 474 l 1,40,-1
 1250 474 l 1,41,-1
 1250 350 l 2,42,43
 1250 0 1250 0 900 0 c 2,44,-1
 610 0 l 2,45,46
 260 0 260 0 260 350 c 2,47,-1
 260 595 l 1,48,-1
 80 595 l 1,0,-1
EndSplineSet
Validated: 1
EndChar

StartChar: afii61248
Encoding: 8453 8453 149
Width: 1613
GlyphClass: 2
Flags: W
HStem: -20 21G<471.032 531.341> 0 71<1067.06 1312.94> 724 71<298.531 535.469 1067.06 1312.94> 1450 71<298.531 535.469>
VStem: 150 145<798.04 1448.96> 539 145<798.411 949 1309 1447.1> 917 145<72.0396 722.96> 1318 145<72.0396 722.96>
DStem2: 385 42 522 -20 0.423185 0.906043<1.80173 1641.88>
LayerCount: 2
Fore
SplineSet
344 1521 m 2,0,-1
 490 1521 l 2,1,2
 684 1521 684 1521 684 1322 c 2,3,-1
 684 1309 l 1,4,-1
 549 1254 l 1,5,-1
 539 1254 l 1,6,-1
 539 1400 l 2,7,8
 539 1450 539 1450 489 1450 c 2,9,-1
 345 1450 l 2,10,11
 295 1450 295 1450 295 1400 c 2,12,-1
 295 847 l 2,13,14
 295 797 295 797 345 797 c 2,15,-1
 489 797 l 2,16,17
 539 797 539 797 539 847 c 2,18,-1
 539 949 l 1,19,-1
 674 1003 l 1,20,-1
 684 1003 l 1,21,-1
 684 921 l 2,22,23
 684 726 684 726 490 726 c 2,24,-1
 344 726 l 2,25,26
 150 726 150 726 150 920 c 2,27,-1
 150 1327 l 2,28,29
 150 1521 150 1521 344 1521 c 2,0,-1
1268 724 m 2,30,-1
 1112 724 l 2,31,32
 1062 724 1062 724 1062 674 c 2,33,-1
 1062 121 l 2,34,35
 1062 71 1062 71 1112 71 c 2,36,-1
 1268 71 l 2,37,38
 1318 71 1318 71 1318 121 c 2,39,-1
 1318 674 l 2,40,41
 1318 724 1318 724 1268 724 c 2,30,-1
1267 0 m 2,42,-1
 1113 0 l 2,43,44
 917 0 917 0 917 194 c 2,45,-1
 917 601 l 2,46,47
 917 795 917 795 1113 795 c 2,48,-1
 1267 795 l 2,49,50
 1463 795 1463 795 1463 601 c 2,51,-1
 1463 194 l 2,52,53
 1463 0 1463 0 1267 0 c 2,42,-1
512 -20 m 1,54,-1
 385 42 l 1,55,-1
 1079 1530 l 1,56,-1
 1089 1530 l 1,57,-1
 1217 1468 l 1,58,-1
 522 -20 l 1,59,-1
 512 -20 l 1,54,-1
EndSplineSet
Validated: 1
EndChar

StartChar: afii61289
Encoding: 8467 8467 150
Width: 958
GlyphClass: 2
Flags: W
HStem: -20 136<458.002 574.715> 0 21G<50 263> 1510 20G<632 703>
VStem: 232 155<466 819.618> 655 153<1042.58 1357.48>
LayerCount: 2
Fore
SplineSet
387 466 m 1,0,1
 498 708 498 708 554 860 c 0,2,3
 655 1134 655 1134 655 1359 c 1,4,5
 563 1238 563 1238 503 1067 c 0,6,7
 387 740 387 740 387 466 c 1,0,1
50 0 m 1,8,9
 171 158 171 158 244 282 c 1,10,11
 232 366 232 366 232 443 c 0,12,13
 232 629 232 629 279 848 c 0,14,15
 367 1251 367 1251 517 1434 c 0,16,17
 595 1530 595 1530 669 1530 c 0,18,19
 737 1530 737 1530 772 1479 c 0,20,21
 808 1429 808 1429 808 1318 c 0,22,23
 808 1226 808 1226 778 1072 c 0,24,25
 708 722 708 722 422 271 c 1,26,27
 454 116 454 116 511 116 c 0,28,29
 535 116 535 116 562.5 145 c 128,-1,30
 590 174 590 174 616 228 c 1,31,-1
 792 228 l 1,32,33
 715 100 715 100 650.5 40 c 128,-1,34
 586 -20 586 -20 502 -20 c 0,35,36
 382 -20 382 -20 305 90 c 1,37,-1
 251 0 l 1,38,-1
 50 0 l 1,8,9
EndSplineSet
Validated: 1
EndChar

StartChar: trademark
Encoding: 8482 8482 151
Width: 1778
GlyphClass: 2
Flags: W
HStem: 1459 71<129 313 453 637 822.012 1080.06 1224.8 1483.99>
VStem: 313 140<767 1459> 678 140<769 1457.22> 1083 140<769 1458.8> 1488 140<769 1457.22>
LayerCount: 2
Fore
SplineSet
873 1530 m 2,0,-1
 1028 1530 l 2,1,2
 1106 1530 1106 1530 1153 1497 c 1,3,4
 1202 1530 1202 1530 1278 1530 c 2,5,-1
 1433 1530 l 2,6,7
 1628 1530 1628 1530 1628 1334 c 2,8,-1
 1628 769 l 1,9,-1
 1498 716 l 1,10,-1
 1488 716 l 1,11,-1
 1488 1409 l 2,12,13
 1488 1459 1488 1459 1438 1459 c 2,14,-1
 1273 1459 l 2,15,16
 1223 1459 1223 1459 1223 1409 c 2,17,-1
 1223 769 l 1,18,-1
 1093 716 l 1,19,-1
 1083 716 l 1,20,-1
 1083 1409 l 2,21,22
 1083 1459 1083 1459 1033 1459 c 2,23,-1
 868 1459 l 2,24,25
 818 1459 818 1459 818 1409 c 2,26,-1
 818 769 l 1,27,-1
 688 716 l 1,28,-1
 678 716 l 1,29,-1
 678 1334 l 2,30,31
 678 1530 678 1530 873 1530 c 2,0,-1
129 1530 m 1,32,-1
 666 1530 l 1,33,-1
 666 1520 l 1,34,-1
 637 1459 l 1,35,-1
 453 1459 l 1,36,-1
 453 767 l 1,37,-1
 323 716 l 1,38,-1
 313 716 l 1,39,-1
 313 1459 l 1,40,-1
 100 1459 l 1,41,-1
 100 1469 l 1,42,-1
 129 1530 l 1,32,-1
EndSplineSet
Validated: 1
EndChar

StartChar: uni2126
Encoding: 8486 8486 152
Width: 1410
GlyphClass: 2
Flags: W
HStem: 0 329<446.87 608 802 963.13> 0 90<238 446 964 1172> 1420 90<440.027 969.973>
VStem: 200 205<385.874 1359.27> 446 162<90 259.323> 802 162<90 259.323> 1005 205<385.874 1359.27>
LayerCount: 2
Fore
SplineSet
608 0 m 1,0,-1
 200 0 l 1,1,-1
 200 10 l 1,2,-1
 238 90 l 1,3,-1
 446 90 l 1,4,-1
 446 248 l 1,5,6
 200 297 200 297 200 589 c 2,7,-1
 200 1160 l 2,8,9
 200 1510 200 1510 550 1510 c 2,10,-1
 860 1510 l 2,11,12
 1210 1510 1210 1510 1210 1160 c 2,13,-1
 1210 589 l 2,14,15
 1210 297 1210 297 964 248 c 1,16,-1
 964 90 l 1,17,-1
 1210 90 l 1,18,-1
 1210 80 l 1,19,-1
 1172 0 l 1,20,-1
 802 0 l 1,21,-1
 802 329 l 1,22,-1
 865 329 l 2,23,24
 1005 329 1005 329 1005 469 c 2,25,-1
 1005 1280 l 2,26,27
 1005 1420 1005 1420 865 1420 c 2,28,-1
 545 1420 l 2,29,30
 405 1420 405 1420 405 1280 c 2,31,-1
 405 469 l 2,32,33
 405 329 405 329 545 329 c 2,34,-1
 608 329 l 1,35,-1
 608 0 l 1,0,-1
EndSplineSet
Validated: 1
EndChar

StartChar: estimated
Encoding: 8494 8494 153
Width: 1330
GlyphClass: 2
Flags: W
HStem: -20 92<451.758 852.453> 525 80<348 983> 1036 84<468.183 852.399>
VStem: 100 248<309.991 525 605 788.181> 983 247<605 774.087>
LayerCount: 2
Fore
SplineSet
1104 204 m 1,0,1
 1032 113 1032 113 948 61 c 0,2,3
 817 -20 817 -20 665 -20 c 0,4,5
 409 -20 409 -20 256 139 c 0,6,7
 100 301 100 301 100 550 c 0,8,9
 100 788 100 788 249 952 c 24,10,11
 402 1120 402 1120 666 1120 c 0,12,13
 915 1120 915 1120 1064 964 c 280,14,15
 1230 790 1230 790 1230 525 c 1,16,-1
 348 525 l 1,17,-1
 348 192 l 1,18,19
 459 72 459 72 666 72 c 256,20,21
 789 72 789 72 880 132 c 0,22,23
 962 186 962 186 1011 266 c 1,24,25
 1104 204 l 1,0,1
348 605 m 1,26,-1
 983 605 l 1,27,-1
 983 903 l 1,28,29
 852 1036 852 1036 666 1036 c 0,30,31
 475 1036 475 1036 348 914 c 1,32,-1
 348 605 l 1,26,-1
EndSplineSet
Validated: 1
EndChar

StartChar: partialdiff
Encoding: 8706 8706 154
Width: 1285
GlyphClass: 2
Flags: W
HStem: -20 153<399.379 663.581> 870 170<546.66 823.335> 1378 152<492 830.299>
VStem: 150 188<198.966 600.959> 952 183<930 1235.35>
LayerCount: 2
Fore
SplineSet
512 -20 m 0,0,1
 150 -20 150 -20 150 375 c 0,2,3
 150 631 150 631 286 815 c 0,4,5
 454 1040 454 1040 672 1040 c 0,6,7
 859 1040 859 1040 952 930 c 1,8,9
 952 1136 952 1136 907 1239 c 0,10,11
 846 1378 846 1378 678 1378 c 0,12,13
 547 1378 547 1378 420 1294 c 1,14,-1
 420 1468 l 1,15,16
 554 1530 554 1530 703 1530 c 0,17,18
 1135 1530 1135 1530 1135 934 c 0,19,20
 1135 545 1135 545 966.5 262.5 c 128,-1,21
 798 -20 798 -20 512 -20 c 0,0,1
525 133 m 0,22,23
 663 133 663 133 772.5 286 c 128,-1,24
 882 439 882 439 920 680 c 1,25,26
 898 765 898 765 834.5 817.5 c 128,-1,27
 771 870 771 870 695 870 c 0,28,29
 535 870 535 870 436.5 710 c 128,-1,30
 338 550 338 550 338 369 c 0,31,32
 338 133 338 133 525 133 c 0,22,23
EndSplineSet
Validated: 1
EndChar

StartChar: uni2206
Encoding: 8710 8710 155
Width: 1331
GlyphClass: 2
Flags: W
HStem: 0 90<136 1091>
DStem2: 5 0 136 90 0.355307 0.93475<130.673 1481.81> 746 1550 616 1353 0.350461 -0.936577<138.946 1488.31>
LayerCount: 2
Fore
SplineSet
5 0 m 1,0,-1
 563 1468 l 1,1,-1
 736 1550 l 1,2,-1
 746 1550 l 1,3,-1
 1326 0 l 1,4,-1
 5 0 l 1,0,-1
136 90 m 1,5,-1
 1091 90 l 1,6,-1
 616 1353 l 1,7,-1
 136 90 l 1,5,-1
EndSplineSet
Validated: 1
EndChar

StartChar: product
Encoding: 8719 8719 156
Width: 1400
GlyphClass: 2
Flags: W
HStem: -430 21G<200 252.222 1000 1052.22> 1420 90<400 1000>
VStem: 200 200<-340 1420> 1000 200<-340 1420>
LayerCount: 2
Fore
SplineSet
210 -430 m 1,0,-1
 200 -430 l 1,1,-1
 200 1460 l 1,2,-1
 306 1510 l 1,3,-1
 1200 1510 l 1,4,-1
 1200 -340 l 1,5,-1
 1010 -430 l 1,6,-1
 1000 -430 l 1,7,-1
 1000 1420 l 1,8,-1
 400 1420 l 1,9,-1
 400 -340 l 1,10,-1
 210 -430 l 1,0,-1
EndSplineSet
Validated: 1
EndChar

StartChar: summation
Encoding: 8721 8721 157
Width: 1203
GlyphClass: 2
Flags: W
HStem: -410 90<361 1015> 1420 90<351 995>
DStem2: 100 -410 361 -320 0.431264 0.902226<193.76 1108.37> 351 1420 101 1460 0.480758 -0.876854<0 836.92>
LayerCount: 2
Fore
SplineSet
100 -410 m 1,0,-1
 578 590 l 1,1,-1
 101 1460 l 1,2,-1
 207 1510 l 1,3,-1
 1033 1510 l 1,4,-1
 1033 1500 l 1,5,-1
 995 1420 l 1,6,-1
 351 1420 l 1,7,-1
 808 596 l 1,8,-1
 361 -320 l 1,9,-1
 1053 -320 l 1,10,-1
 1053 -330 l 1,11,-1
 1015 -410 l 1,12,-1
 100 -410 l 1,0,-1
EndSplineSet
Validated: 1
EndChar

StartChar: minus
Encoding: 8722 8722 158
Width: 1200
GlyphClass: 2
Flags: W
HStem: 680 150<216 984>
LayerCount: 2
Fore
SplineSet
216 830 m 5,0,-1
 1050 830 l 5,1,-1
 1050 820 l 5,2,-1
 984 680 l 5,3,-1
 150 680 l 5,4,-1
 150 690 l 5,5,-1
 216 830 l 5,0,-1
EndSplineSet
Validated: 1
EndChar

StartChar: uni2215
Encoding: 8725 8725 159
Width: 852
GlyphClass: 2
Flags: W
HStem: -20 21G<96.0323 156.341> 1510 20G<694.672 755.29>
DStem2: 10 42 147 -20 0.423185 0.906043<1.80173 1641.88>
LayerCount: 2
Fore
SplineSet
137 -20 m 1,0,-1
 10 42 l 1,1,-1
 704 1530 l 1,2,-1
 714 1530 l 1,3,-1
 842 1468 l 1,4,-1
 147 -20 l 1,5,-1
 137 -20 l 1,0,-1
EndSplineSet
Validated: 1
EndChar

StartChar: uni2219
Encoding: 8729 8729 160
Width: 340
GlyphClass: 2
Flags: W
HStem: 632 245<86.0974 253.903>
VStem: 50 240<669.129 839.871>
LayerCount: 2
Fore
SplineSet
170 877 m 128,-1,1
 220 877 220 877 255 841 c 128,-1,2
 290 805 290 805 290 754.5 c 128,-1,3
 290 704 290 704 255 668 c 128,-1,4
 220 632 220 632 170 632 c 128,-1,5
 120 632 120 632 85 668 c 128,-1,6
 50 704 50 704 50 754.5 c 128,-1,7
 50 805 50 805 85 841 c 128,-1,0
 120 877 120 877 170 877 c 128,-1,1
EndSplineSet
Validated: 1
EndChar

StartChar: radical
Encoding: 8730 8730 161
Width: 1093
GlyphClass: 2
Flags: W
HStem: -20 21G<312.829 372.133> 1510 20G<948.529 1007.62>
DStem2: 213 806 50 733 0.337524 -0.941317<13.6997 691.032> 442 154 488 55 0.360066 0.932927<0 1465.59>
LayerCount: 2
Fore
SplineSet
320 -20 m 1,0,-1
 50 733 l 1,1,-1
 203 806 l 1,2,-1
 213 806 l 1,3,-1
 442 154 l 1,4,-1
 956 1530 l 1,5,-1
 966 1530 l 1,6,-1
 1043 1493 l 1,7,-1
 488 55 l 1,8,-1
 330 -20 l 1,9,-1
 320 -20 l 1,0,-1
EndSplineSet
Validated: 1
EndChar

StartChar: infinity
Encoding: 8734 8734 162
Width: 1360
GlyphClass: 2
Flags: W
HStem: 450 66<300.062 604.531 755.469 1059.94> 994 66<300.062 604.531 755.469 1059.94>
VStem: 150 145<518.393 991.607> 608 144<516.195 993.805> 1065 145<518.393 991.607>
CounterMasks: 1 38
LayerCount: 2
Fore
SplineSet
1015 994 m 2,0,-1
 802 994 l 2,1,2
 752 994 752 994 752 944 c 2,3,-1
 752 566 l 2,4,5
 752 516 752 516 802 516 c 2,6,-1
 1015 516 l 2,7,8
 1065 516 1065 516 1065 566 c 2,9,-1
 1065 944 l 2,10,11
 1065 994 1065 994 1015 994 c 2,0,-1
558 994 m 2,12,-1
 345 994 l 2,13,14
 295 994 295 994 295 944 c 2,15,-1
 295 566 l 2,16,17
 295 516 295 516 345 516 c 2,18,-1
 558 516 l 2,19,20
 608 516 608 516 608 566 c 2,21,-1
 608 944 l 2,22,23
 608 994 608 994 558 994 c 2,12,-1
346 1060 m 2,24,-1
 554 1060 l 2,25,26
 633 1060 633 1060 680 1029 c 1,27,28
 727 1060 727 1060 806 1060 c 2,29,-1
 1014 1060 l 2,30,31
 1210 1060 1210 1060 1210 866 c 2,32,-1
 1210 644 l 2,33,34
 1210 450 1210 450 1014 450 c 2,35,-1
 806 450 l 2,36,37
 727 450 727 450 680 481 c 1,38,39
 633 450 633 450 554 450 c 2,40,-1
 346 450 l 2,41,42
 150 450 150 450 150 644 c 2,43,-1
 150 866 l 2,44,45
 150 1060 150 1060 346 1060 c 2,24,-1
EndSplineSet
Validated: 1
EndChar

StartChar: approxequal
Encoding: 8776 8776 163
Width: 1138
GlyphClass: 2
Flags: W
HStem: 376 127<682.406 868.861> 610 127<269.139 455.594> 776 127<682.406 868.861> 1010 127<269.139 455.594>
VStem: 150 82<411 566.371 811 966.371> 906 82<546.629 702 946.629 1102>
LayerCount: 2
Fore
SplineSet
406 737 m 0,0,1
 519 737 519 737 621 610 c 0,2,3
 708 503 708 503 781 503 c 0,4,5
 906 503 906 503 906 702 c 1,6,-1
 978 737 l 1,7,-1
 988 737 l 1,8,9
 988 376 988 376 732 376 c 0,10,11
 619 376 619 376 517 503 c 0,12,13
 430 610 430 610 357 610 c 0,14,15
 232 610 232 610 232 411 c 1,16,-1
 160 376 l 1,17,-1
 150 376 l 1,18,19
 150 737 150 737 406 737 c 0,0,1
406 1137 m 0,20,21
 519 1137 519 1137 621 1010 c 0,22,23
 708 903 708 903 781 903 c 0,24,25
 906 903 906 903 906 1102 c 1,26,-1
 978 1137 l 1,27,-1
 988 1137 l 1,28,29
 988 776 988 776 732 776 c 0,30,31
 619 776 619 776 517 903 c 0,32,33
 430 1010 430 1010 357 1010 c 0,34,35
 232 1010 232 1010 232 811 c 1,36,-1
 160 776 l 1,37,-1
 150 776 l 1,38,39
 150 1137 150 1137 406 1137 c 0,20,21
EndSplineSet
Validated: 1
EndChar

StartChar: notequal
Encoding: 8800 8800 164
Width: 1200
GlyphClass: 2
Flags: W
HStem: 480 150<216 417 596 984> 880 150<216 603 783 984>
DStem2: 272 170 380 166 0.422674 0.906282<42.0237 342.235 553.836 783.365 995.389 1296.51>
LayerCount: 2
Fore
SplineSet
216 1030 m 1,0,-1
 673 1030 l 1,1,-1
 820 1345 l 1,2,-1
 919 1345 l 1,3,-1
 928 1341 l 1,4,-1
 783 1030 l 1,5,-1
 1050 1030 l 1,6,-1
 1050 1020 l 1,7,-1
 984 880 l 1,8,-1
 713 880 l 1,9,-1
 596 630 l 1,10,-1
 1050 630 l 1,11,-1
 1050 620 l 1,12,-1
 984 480 l 1,13,-1
 526 480 l 1,14,-1
 380 166 l 1,15,-1
 281 166 l 1,16,-1
 272 170 l 1,17,-1
 417 480 l 1,18,-1
 150 480 l 1,19,-1
 150 490 l 1,20,-1
 216 630 l 1,21,-1
 487 630 l 1,22,-1
 603 880 l 1,23,-1
 150 880 l 1,24,-1
 150 890 l 1,25,-1
 216 1030 l 1,0,-1
EndSplineSet
Validated: 1
EndChar

StartChar: lessequal
Encoding: 8804 8804 165
Width: 1315
GlyphClass: 2
Flags: W
HStem: 275 150<216 1049>
DStem2: 300 919 150 818 0.942662 -0.33375<0 848.114> 216 968 300 919 0.937476 0.348051<61.6934 928.024>
LayerCount: 2
Fore
SplineSet
216 968 m 1,0,-1
 1086 1291 l 1,1,-1
 1115 1231 l 1,2,-1
 1115 1221 l 1,3,-1
 300 919 l 1,4,-1
 1115 643 l 1,5,-1
 1115 633 l 1,6,-1
 1051 499 l 1,7,-1
 150 818 l 1,8,-1
 150 828 l 1,9,-1
 216 968 l 1,0,-1
216 425 m 1,10,-1
 1115 425 l 1,11,-1
 1115 415 l 1,12,-1
 1049 275 l 1,13,-1
 150 275 l 1,14,-1
 150 285 l 1,15,-1
 216 425 l 1,10,-1
EndSplineSet
Validated: 1
EndChar

StartChar: greaterequal
Encoding: 8805 8805 166
Width: 1315
GlyphClass: 2
Flags: W
HStem: 275 150<266 1099>
DStem2: 264 1279 200 1135 0.942662 -0.33375<0 848.114> 200 557 229 487 0.937476 0.348051<2.8232 869.154>
LayerCount: 2
Fore
SplineSet
1099 810 m 1,0,-1
 229 487 l 1,1,-1
 200 547 l 1,2,-1
 200 557 l 1,3,-1
 1015 859 l 1,4,-1
 200 1135 l 1,5,-1
 200 1145 l 1,6,-1
 264 1279 l 1,7,-1
 1165 960 l 1,8,-1
 1165 950 l 1,9,-1
 1099 810 l 1,0,-1
266 425 m 1,10,-1
 1165 425 l 1,11,-1
 1165 415 l 1,12,-1
 1099 275 l 1,13,-1
 200 275 l 1,14,-1
 200 285 l 1,15,-1
 266 425 l 1,10,-1
EndSplineSet
Validated: 1
EndChar

StartChar: lozenge
Encoding: 9674 9674 167
Width: 1134
GlyphClass: 2
Flags: W
HStem: -20 21G<554.678 579.273> 1510 20G<555.207 578.838>
DStem2: 100 738 253 833 0.507923 0.861403<159.545 659.822> 253 833 100 738 0.524536 -0.851388<0.627871 717.553> 567 1530 507 1264 0.509354 -0.860557<198.347 916.848> 626 220 567 -20 0.523035 0.852311<0 492.332>
LayerCount: 2
Fore
SplineSet
626 220 m 1,0,-1
 878 643 l 1,1,-1
 507 1264 l 1,2,-1
 253 833 l 1,3,-1
 626 220 l 1,0,-1
567 -20 m 1,4,-1
 100 738 l 1,5,-1
 567 1530 l 1,6,-1
 1034 741 l 1,7,-1
 567 -20 l 1,4,-1
EndSplineSet
Validated: 1
EndChar

StartChar: Oslash
Encoding: 216 216 168
Width: 1330
Flags: W
HStem: 0 90<418.035 938.945> 1420 90<391.055 911.995>
VStem: 160 200<221.083 1359.27> 970 200<150.732 1288.92>
DStem2: 241 -36 349 -40 0.422823 0.906212<42.04 112.399 281.4 1510.78 1679.78 1750.14>
LayerCount: 2
Fore
SplineSet
820 0 m 2,0,-1
 510 0 l 2,1,2
 434 0 434 0 375 16 c 1,3,-1
 349 -40 l 1,4,-1
 250 -40 l 1,5,-1
 241 -36 l 1,6,-1
 284 57 l 1,7,8
 160 141 160 141 160 350 c 2,9,-1
 160 1160 l 2,10,11
 160 1510 160 1510 510 1510 c 2,12,-1
 820 1510 l 2,13,14
 896 1510 896 1510 955 1494 c 1,15,-1
 981 1550 l 1,16,-1
 1080 1550 l 1,17,-1
 1089 1546 l 1,18,-1
 1046 1453 l 1,19,20
 1170 1369 1170 1369 1170 1160 c 2,21,-1
 1170 350 l 2,22,23
 1170 0 1170 0 820 0 c 2,0,-1
500 90 m 2,24,-1
 830 90 l 2,25,26
 970 90 970 90 970 230 c 2,27,-1
 970 1291 l 1,28,-1
 417 106 l 1,29,30
 450 90 450 90 500 90 c 2,24,-1
360 219 m 1,31,-1
 913 1403 l 1,32,33
 881 1420 881 1420 830 1420 c 2,34,-1
 500 1420 l 2,35,36
 360 1420 360 1420 360 1280 c 2,37,-1
 360 219 l 1,31,-1
EndSplineSet
Validated: 1
EndChar

StartChar: oslash
Encoding: 248 248 169
Width: 1150
Flags: W
HStem: 0 80<411 797.979> 1020 80<352.021 739>
VStem: 160 180<168.367 996.025> 810 180<103.975 931.633>
DStem2: 279 34 355 -40 0.422379 0.906419<-34.9742 7.04971 143.6 1041.87 1179.45 1220.45>
LayerCount: 2
Fore
SplineSet
710 0 m 2,0,-1
 440 0 l 2,1,2
 406 0 406 0 376 4 c 1,3,-1
 355 -40 l 1,4,-1
 256 -40 l 1,5,-1
 247 -36 l 1,6,-1
 279 34 l 1,7,8
 160 97 160 97 160 280 c 2,9,-1
 160 820 l 2,10,11
 160 1100 160 1100 440 1100 c 2,12,-1
 710 1100 l 2,13,14
 744 1100 744 1100 774 1096 c 1,15,-1
 795 1140 l 1,16,-1
 894 1140 l 1,17,-1
 903 1136 l 1,18,-1
 871 1066 l 1,19,20
 990 1003 990 1003 990 820 c 2,21,-1
 990 280 l 2,22,23
 990 0 990 0 710 0 c 2,0,-1
430 80 m 2,24,-1
 720 80 l 2,25,26
 810 80 810 80 810 170 c 2,27,-1
 810 936 l 1,28,-1
 411 81 l 1,29,30
 420 80 420 80 430 80 c 2,24,-1
340 164 m 1,31,-1
 739 1019 l 1,32,33
 730 1020 730 1020 720 1020 c 2,34,-1
 430 1020 l 2,35,36
 340 1020 340 1020 340 930 c 2,37,-1
 340 164 l 1,31,-1
EndSplineSet
Validated: 1
EndChar

StartChar: multiply
Encoding: 215 215 170
Width: 1142
Flags: W
HStem: 649 212<465 677>
VStem: 465 212<649 861>
DStem2: 353 1080 200 1020 0.706507 -0.707706<0 309.006 459.04 768.046> 200 490 353 430 0.706507 0.707706<65.6332 374.639 524.673 833.679>
LayerCount: 2
Fore
SplineSet
789 1080 m 1,0,-1
 935 1027 l 1,1,-1
 942 1020 l 1,2,-1
 677 755 l 1,3,-1
 942 490 l 1,4,-1
 935 483 l 1,5,-1
 789 430 l 1,6,-1
 571 649 l 1,7,-1
 353 430 l 1,8,-1
 207 483 l 1,9,-1
 200 490 l 1,10,-1
 465 755 l 1,11,-1
 200 1020 l 1,12,-1
 207 1027 l 1,13,-1
 353 1080 l 1,14,-1
 571 861 l 1,15,-1
 789 1080 l 1,0,-1
EndSplineSet
Validated: 1
EndChar

StartChar: divide
Encoding: 247 247 171
Width: 1200
Flags: W
HStem: 306 245<516.097 683.903> 680 150<216 984> 959 245<516.097 683.903>
VStem: 480 240<343.129 513.871 996.129 1166.87>
CounterMasks: 1 e0
LayerCount: 2
Fore
SplineSet
216 830 m 1,0,-1
 1050 830 l 1,1,-1
 1050 820 l 1,2,-1
 984 680 l 1,3,-1
 150 680 l 1,4,-1
 150 690 l 1,5,-1
 216 830 l 1,0,-1
600 1204 m 128,-1,7
 650 1204 650 1204 685 1168 c 128,-1,8
 720 1132 720 1132 720 1081.5 c 128,-1,9
 720 1031 720 1031 685 995 c 128,-1,10
 650 959 650 959 600 959 c 128,-1,11
 550 959 550 959 515 995 c 128,-1,12
 480 1031 480 1031 480 1081.5 c 128,-1,13
 480 1132 480 1132 515 1168 c 128,-1,6
 550 1204 550 1204 600 1204 c 128,-1,7
600 306 m 128,-1,15
 550 306 550 306 515 342 c 128,-1,16
 480 378 480 378 480 428.5 c 128,-1,17
 480 479 480 479 515 515 c 128,-1,18
 550 551 550 551 600 551 c 128,-1,19
 650 551 650 551 685 515 c 128,-1,20
 720 479 720 479 720 428.5 c 128,-1,21
 720 378 720 378 685 342 c 128,-1,14
 650 306 650 306 600 306 c 128,-1,15
EndSplineSet
Validated: 1
EndChar

StartChar: uni1E02
Encoding: 7682 7682 172
Width: 1250
Flags: W
HStem: 0 90<400 929.973> 791 90<400 852.812> 1420 90<400 848.945> 1630 245<521.097 688.903>
VStem: 200 200<90 791 881 1420> 485 240<1667.13 1837.87> 880 200<928.262 1376.49> 960 210<150.732 762.149>
LayerCount: 2
Fore
SplineSet
400 90 m 1,0,-1
 820 90 l 2,1,2
 960 90 960 90 960 230 c 2,3,-1
 960 651 l 2,4,5
 960 791 960 791 820 791 c 2,6,-1
 400 791 l 1,7,-1
 400 90 l 1,0,-1
200 0 m 1,8,-1
 200 1440 l 1,9,-1
 348 1510 l 1,10,-1
 730 1510 l 2,11,12
 1080 1510 1080 1510 1080 1200 c 2,13,-1
 1080 1096 l 2,14,15
 1080 952 1080 952 994 884 c 1,16,17
 1170 824 1170 824 1170 576 c 2,18,-1
 1170 350 l 2,19,20
 1170 0 1170 0 820 0 c 2,21,-1
 200 0 l 1,8,-1
400 881 m 1,22,-1
 740 881 l 2,23,24
 880 881 880 881 880 1021 c 2,25,-1
 880 1280 l 2,26,27
 880 1420 880 1420 740 1420 c 2,28,-1
 400 1420 l 1,29,-1
 400 881 l 1,22,-1
605 1875 m 128,-1,31
 655 1875 655 1875 690 1839 c 128,-1,32
 725 1803 725 1803 725 1752.5 c 128,-1,33
 725 1702 725 1702 690 1666 c 128,-1,34
 655 1630 655 1630 605 1630 c 128,-1,35
 555 1630 555 1630 520 1666 c 128,-1,36
 485 1702 485 1702 485 1752.5 c 128,-1,37
 485 1803 485 1803 520 1839 c 128,-1,30
 555 1875 555 1875 605 1875 c 128,-1,31
EndSplineSet
Validated: 1
EndChar

StartChar: uni1E03
Encoding: 7683 7683 173
Width: 1170
Flags: W
HStem: 0 80<372.021 803.213> 1020 80<370.635 803.213> 1220 245<512.097 679.903> 1510 20G<308.025 360>
VStem: 180 180<103.975 1012.07 1079 1449> 476 240<1257.13 1427.87> 820 190<103.975 996.025>
LayerCount: 2
Fore
SplineSet
450 80 m 2,0,-1
 730 80 l 2,1,2
 820 80 820 80 820 170 c 2,3,-1
 820 930 l 2,4,5
 820 1020 820 1020 730 1020 c 2,6,-1
 450 1020 l 2,7,8
 360 1020 360 1020 360 930 c 2,9,-1
 360 170 l 2,10,11
 360 80 360 80 450 80 c 2,0,-1
460 0 m 2,12,13
 180 0 180 0 180 280 c 2,14,-1
 180 1449 l 1,15,-1
 350 1530 l 1,16,-1
 360 1530 l 1,17,-1
 360 1079 l 1,18,19
 407 1100 407 1100 460 1100 c 2,20,-1
 730 1100 l 2,21,22
 1010 1100 1010 1100 1010 820 c 2,23,-1
 1010 280 l 2,24,25
 1010 0 1010 0 730 0 c 2,26,-1
 460 0 l 2,12,13
596 1465 m 128,-1,28
 646 1465 646 1465 681 1429 c 128,-1,29
 716 1393 716 1393 716 1342.5 c 128,-1,30
 716 1292 716 1292 681 1256 c 128,-1,31
 646 1220 646 1220 596 1220 c 128,-1,32
 546 1220 546 1220 511 1256 c 128,-1,33
 476 1292 476 1292 476 1342.5 c 128,-1,34
 476 1393 476 1393 511 1429 c 128,-1,27
 546 1465 546 1465 596 1465 c 128,-1,28
EndSplineSet
Validated: 1
EndChar

StartChar: uni1E0A
Encoding: 7690 7690 174
Width: 1350
Flags: W
HStem: 0 90<400 949.973> 1420 90<400 949.973> 1630 245<551.097 718.903>
VStem: 200 200<90 1420> 515 240<1667.13 1837.87> 980 210<150.732 1359.27>
LayerCount: 2
Fore
SplineSet
400 90 m 1,0,-1
 840 90 l 2,1,2
 980 90 980 90 980 230 c 2,3,-1
 980 1280 l 2,4,5
 980 1420 980 1420 840 1420 c 2,6,-1
 400 1420 l 1,7,-1
 400 90 l 1,0,-1
200 0 m 1,8,-1
 200 1440 l 1,9,-1
 348 1510 l 1,10,-1
 840 1510 l 2,11,12
 1190 1510 1190 1510 1190 1160 c 2,13,-1
 1190 350 l 2,14,15
 1190 0 1190 0 840 0 c 2,16,-1
 200 0 l 1,8,-1
635 1875 m 128,-1,18
 685 1875 685 1875 720 1839 c 128,-1,19
 755 1803 755 1803 755 1752.5 c 128,-1,20
 755 1702 755 1702 720 1666 c 128,-1,21
 685 1630 685 1630 635 1630 c 128,-1,22
 585 1630 585 1630 550 1666 c 128,-1,23
 515 1702 515 1702 515 1752.5 c 128,-1,24
 515 1803 515 1803 550 1839 c 128,-1,17
 585 1875 585 1875 635 1875 c 128,-1,18
EndSplineSet
Validated: 1
EndChar

StartChar: uni1E0B
Encoding: 7691 7691 175
Width: 1170
Flags: W
HStem: 0 80<366.787 797.979> 1020 80<366.787 799.365> 1220 245<490.097 657.903> 1510 20G<938.025 990>
VStem: 160 190<103.975 996.025> 454 240<1257.13 1427.87> 810 180<103.975 1012.07 1079 1449>
LayerCount: 2
Fore
SplineSet
720 80 m 2,0,1
 810 80 810 80 810 170 c 2,2,-1
 810 930 l 2,3,4
 810 1020 810 1020 720 1020 c 2,5,-1
 440 1020 l 2,6,7
 350 1020 350 1020 350 930 c 2,8,-1
 350 170 l 2,9,10
 350 80 350 80 440 80 c 2,11,-1
 720 80 l 2,0,1
440 0 m 2,12,13
 160 0 160 0 160 280 c 2,14,-1
 160 820 l 2,15,16
 160 1100 160 1100 440 1100 c 2,17,-1
 710 1100 l 2,18,19
 763 1100 763 1100 810 1079 c 1,20,-1
 810 1449 l 1,21,-1
 980 1530 l 1,22,-1
 990 1530 l 1,23,-1
 990 280 l 2,24,25
 990 0 990 0 710 0 c 2,26,-1
 440 0 l 2,12,13
574 1465 m 128,-1,28
 624 1465 624 1465 659 1429 c 128,-1,29
 694 1393 694 1393 694 1342.5 c 128,-1,30
 694 1292 694 1292 659 1256 c 128,-1,31
 624 1220 624 1220 574 1220 c 128,-1,32
 524 1220 524 1220 489 1256 c 128,-1,33
 454 1292 454 1292 454 1342.5 c 128,-1,34
 454 1393 454 1393 489 1429 c 128,-1,27
 524 1465 524 1465 574 1465 c 128,-1,28
EndSplineSet
Validated: 1
EndChar

StartChar: uni1E1E
Encoding: 7710 7710 176
Width: 1010
Flags: W
HStem: -20 21G<200 252.222> 710 90<400 922> 1420 90<400 922> 1630 245<510.097 677.903>
VStem: 200 200<70 710 800 1420> 474 240<1667.13 1837.87>
LayerCount: 2
Fore
SplineSet
200 -20 m 1,0,-1
 200 1440 l 1,1,-1
 348 1510 l 1,2,-1
 960 1510 l 1,3,-1
 960 1500 l 1,4,-1
 922 1420 l 1,5,-1
 400 1420 l 1,6,-1
 400 800 l 1,7,-1
 960 800 l 1,8,-1
 960 790 l 1,9,-1
 922 710 l 1,10,-1
 400 710 l 1,11,-1
 400 70 l 1,12,-1
 210 -20 l 1,13,-1
 200 -20 l 1,0,-1
594 1875 m 128,-1,15
 644 1875 644 1875 679 1839 c 128,-1,16
 714 1803 714 1803 714 1752.5 c 128,-1,17
 714 1702 714 1702 679 1666 c 128,-1,18
 644 1630 644 1630 594 1630 c 128,-1,19
 544 1630 544 1630 509 1666 c 128,-1,20
 474 1702 474 1702 474 1752.5 c 128,-1,21
 474 1803 474 1803 509 1839 c 128,-1,14
 544 1875 544 1875 594 1875 c 128,-1,15
EndSplineSet
Validated: 1
EndChar

StartChar: uni1E1F
Encoding: 7711 7711 177
Width: 780
Flags: W
HStem: -20 21G<180 231.975> 820 80<360 698> 1430 80<372.021 737> 1630 245<356.097 523.903>
VStem: 180 180<61 820 900 1406.03> 320 240<1667.13 1837.87>
LayerCount: 2
Fore
SplineSet
190 -20 m 1,0,-1
 180 -20 l 1,1,-1
 180 1230 l 2,2,3
 180 1510 180 1510 460 1510 c 2,4,-1
 770 1510 l 1,5,-1
 770 1500 l 1,6,-1
 737 1430 l 1,7,-1
 450 1430 l 2,8,9
 360 1430 360 1430 360 1340 c 2,10,-1
 360 900 l 1,11,-1
 731 900 l 1,12,-1
 731 890 l 1,13,-1
 698 820 l 1,14,-1
 360 820 l 1,15,-1
 360 61 l 1,16,-1
 190 -20 l 1,0,-1
440 1875 m 128,-1,18
 490 1875 490 1875 525 1839 c 128,-1,19
 560 1803 560 1803 560 1752.5 c 128,-1,20
 560 1702 560 1702 525 1666 c 128,-1,21
 490 1630 490 1630 440 1630 c 128,-1,22
 390 1630 390 1630 355 1666 c 128,-1,23
 320 1702 320 1702 320 1752.5 c 128,-1,24
 320 1803 320 1803 355 1839 c 128,-1,17
 390 1875 390 1875 440 1875 c 128,-1,18
EndSplineSet
Validated: 1
EndChar

StartChar: uni1E40
Encoding: 7744 7744 178
Width: 2180
Flags: W
HStem: -20 21G<180 232.222 990 1042.22 1800 1852.22> 1420 90<411.055 959.895 1220.11 1768.95> 1630 245<1003.1 1170.9>
VStem: 180 200<70 1359.27> 967 240<1667.13 1837.87> 990 200<70 1393.2> 1800 200<70 1359.27>
LayerCount: 2
Fore
SplineSet
190 -20 m 1,0,-1
 180 -20 l 1,1,-1
 180 1160 l 2,2,3
 180 1510 180 1510 530 1510 c 2,4,-1
 840 1510 l 2,5,6
 1003 1510 1003 1510 1090 1434 c 1,7,8
 1177 1510 1177 1510 1340 1510 c 2,9,-1
 1650 1510 l 2,10,11
 2000 1510 2000 1510 2000 1160 c 2,12,-1
 2000 70 l 1,13,-1
 1810 -20 l 1,14,-1
 1800 -20 l 1,15,-1
 1800 1280 l 2,16,17
 1800 1420 1800 1420 1660 1420 c 2,18,-1
 1330 1420 l 2,19,20
 1190 1420 1190 1420 1190 1280 c 2,21,-1
 1190 70 l 1,22,-1
 1000 -20 l 1,23,-1
 990 -20 l 1,24,-1
 990 1280 l 2,25,26
 990 1420 990 1420 850 1420 c 2,27,-1
 520 1420 l 2,28,29
 380 1420 380 1420 380 1280 c 2,30,-1
 380 70 l 1,31,-1
 190 -20 l 1,0,-1
1087 1875 m 128,-1,33
 1137 1875 1137 1875 1172 1839 c 128,-1,34
 1207 1803 1207 1803 1207 1752.5 c 128,-1,35
 1207 1702 1207 1702 1172 1666 c 128,-1,36
 1137 1630 1137 1630 1087 1630 c 128,-1,37
 1037 1630 1037 1630 1002 1666 c 128,-1,38
 967 1702 967 1702 967 1752.5 c 128,-1,39
 967 1803 967 1803 1002 1839 c 128,-1,32
 1037 1875 1037 1875 1087 1875 c 128,-1,33
EndSplineSet
Validated: 1
EndChar

StartChar: uni1E41
Encoding: 7745 7745 179
Width: 1840
Flags: W
HStem: -20 21G<180 231.975 830 881.975 1480 1531.98> 1020 80<372.021 819.365 1020.63 1467.98> 1220 245<832.097 999.903>
VStem: 180 180<61 996.025> 796 240<1257.13 1427.87> 830 180<61 1012.07> 1480 180<61 996.025>
LayerCount: 2
Fore
SplineSet
190 -20 m 1,0,-1
 180 -20 l 1,1,-1
 180 820 l 2,2,3
 180 1100 180 1100 460 1100 c 2,4,-1
 730 1100 l 2,5,6
 851 1100 851 1100 920 1047 c 1,7,8
 989 1100 989 1100 1110 1100 c 2,9,-1
 1380 1100 l 2,10,11
 1660 1100 1660 1100 1660 820 c 2,12,-1
 1660 61 l 1,13,-1
 1490 -20 l 1,14,-1
 1480 -20 l 1,15,-1
 1480 930 l 2,16,17
 1480 1020 1480 1020 1390 1020 c 2,18,-1
 1100 1020 l 2,19,20
 1010 1020 1010 1020 1010 930 c 2,21,-1
 1010 61 l 1,22,-1
 840 -20 l 1,23,-1
 830 -20 l 1,24,-1
 830 930 l 2,25,26
 830 1020 830 1020 740 1020 c 2,27,-1
 450 1020 l 2,28,29
 360 1020 360 1020 360 930 c 2,30,-1
 360 61 l 1,31,-1
 190 -20 l 1,0,-1
916 1465 m 128,-1,33
 966 1465 966 1465 1001 1429 c 128,-1,34
 1036 1393 1036 1393 1036 1342.5 c 128,-1,35
 1036 1292 1036 1292 1001 1256 c 128,-1,36
 966 1220 966 1220 916 1220 c 128,-1,37
 866 1220 866 1220 831 1256 c 128,-1,38
 796 1292 796 1292 796 1342.5 c 128,-1,39
 796 1393 796 1393 831 1429 c 128,-1,32
 866 1465 866 1465 916 1465 c 128,-1,33
EndSplineSet
Validated: 1
EndChar

StartChar: uni1E56
Encoding: 7766 7766 180
Width: 1210
Flags: W
HStem: -20 21G<200 252.222> 500 90<400 889.973> 1420 90<400 889.973> 1630 245<504.097 671.903>
VStem: 200 200<70 500 590 1420> 468 240<1667.13 1837.87> 920 210<650.732 1359.27>
LayerCount: 2
Fore
SplineSet
210 -20 m 1,0,-1
 200 -20 l 1,1,-1
 200 1440 l 1,2,-1
 348 1510 l 1,3,-1
 780 1510 l 2,4,5
 1130 1510 1130 1510 1130 1160 c 2,6,-1
 1130 850 l 2,7,8
 1130 500 1130 500 780 500 c 2,9,-1
 400 500 l 1,10,-1
 400 70 l 1,11,-1
 210 -20 l 1,0,-1
400 1420 m 1,12,-1
 400 590 l 1,13,-1
 780 590 l 2,14,15
 920 590 920 590 920 730 c 2,16,-1
 920 1280 l 2,17,18
 920 1420 920 1420 780 1420 c 2,19,-1
 400 1420 l 1,12,-1
588 1875 m 128,-1,21
 638 1875 638 1875 673 1839 c 128,-1,22
 708 1803 708 1803 708 1752.5 c 128,-1,23
 708 1702 708 1702 673 1666 c 128,-1,24
 638 1630 638 1630 588 1630 c 128,-1,25
 538 1630 538 1630 503 1666 c 128,-1,26
 468 1702 468 1702 468 1752.5 c 128,-1,27
 468 1803 468 1803 503 1839 c 128,-1,20
 538 1875 538 1875 588 1875 c 128,-1,21
EndSplineSet
Validated: 1
EndChar

StartChar: uni1E57
Encoding: 7767 7767 181
Width: 1170
Flags: W
HStem: -430 21G<180 231.975> 0 80<370.635 803.213> 1020 80<372.021 803.213> 1220 245<514.097 681.903>
VStem: 180 180<-349 21 87.9321 996.025> 478 240<1257.13 1427.87> 820 190<103.975 996.025>
LayerCount: 2
Fore
SplineSet
450 1020 m 2,0,1
 360 1020 360 1020 360 930 c 2,2,-1
 360 170 l 2,3,4
 360 80 360 80 450 80 c 2,5,-1
 730 80 l 2,6,7
 820 80 820 80 820 170 c 2,8,-1
 820 930 l 2,9,10
 820 1020 820 1020 730 1020 c 2,11,-1
 450 1020 l 2,0,1
730 0 m 2,12,-1
 460 0 l 2,13,14
 407 0 407 0 360 21 c 1,15,-1
 360 -349 l 1,16,-1
 190 -430 l 1,17,-1
 180 -430 l 1,18,-1
 180 820 l 2,19,20
 180 1100 180 1100 460 1100 c 2,21,-1
 730 1100 l 2,22,23
 1010 1100 1010 1100 1010 820 c 2,24,-1
 1010 280 l 2,25,26
 1010 0 1010 0 730 0 c 2,12,-1
598 1465 m 128,-1,28
 648 1465 648 1465 683 1429 c 128,-1,29
 718 1393 718 1393 718 1342.5 c 128,-1,30
 718 1292 718 1292 683 1256 c 128,-1,31
 648 1220 648 1220 598 1220 c 128,-1,32
 548 1220 548 1220 513 1256 c 128,-1,33
 478 1292 478 1292 478 1342.5 c 128,-1,34
 478 1393 478 1393 513 1429 c 128,-1,27
 548 1465 548 1465 598 1465 c 128,-1,28
EndSplineSet
Validated: 1
EndChar

StartChar: uni1E6A
Encoding: 7786 7786 182
Width: 1070
Flags: W
HStem: -20 21G<435 487.222> 1420 90<48 435 635 1022> 1630 245<445.097 612.903>
VStem: 409 240<1667.13 1837.87> 435 200<70 1420>
LayerCount: 2
Fore
SplineSet
435 -20 m 1,0,-1
 435 1420 l 1,1,-1
 10 1420 l 1,2,-1
 10 1430 l 1,3,-1
 48 1510 l 1,4,-1
 1060 1510 l 1,5,-1
 1060 1500 l 1,6,-1
 1022 1420 l 1,7,-1
 635 1420 l 1,8,-1
 635 70 l 1,9,-1
 445 -20 l 1,10,-1
 435 -20 l 1,0,-1
529 1875 m 128,-1,12
 579 1875 579 1875 614 1839 c 128,-1,13
 649 1803 649 1803 649 1752.5 c 128,-1,14
 649 1702 649 1702 614 1666 c 128,-1,15
 579 1630 579 1630 529 1630 c 128,-1,16
 479 1630 479 1630 444 1666 c 128,-1,17
 409 1702 409 1702 409 1752.5 c 128,-1,18
 409 1803 409 1803 444 1839 c 128,-1,11
 479 1875 479 1875 529 1875 c 128,-1,12
EndSplineSet
Validated: 1
EndChar

StartChar: uni1E6B
Encoding: 7787 7787 183
Width: 780
Flags: W
HStem: -20 21G<300 351.772> 1020 80<43 300 475 737> 1510 20G<423.228 475> 1630 245<306.097 473.903>
VStem: 270 240<1667.13 1837.87> 300 175<59 1020 1100 1451>
LayerCount: 2
Fore
SplineSet
300 -20 m 1,0,-1
 300 1020 l 1,1,-1
 10 1020 l 1,2,-1
 10 1030 l 1,3,-1
 43 1100 l 1,4,-1
 300 1100 l 1,5,-1
 300 1451 l 1,6,-1
 465 1530 l 1,7,-1
 475 1530 l 1,8,-1
 475 1100 l 1,9,-1
 770 1100 l 1,10,-1
 770 1090 l 1,11,-1
 737 1020 l 1,12,-1
 475 1020 l 1,13,-1
 475 59 l 1,14,-1
 310 -20 l 1,15,-1
 300 -20 l 1,0,-1
390 1875 m 128,-1,17
 440 1875 440 1875 475 1839 c 128,-1,18
 510 1803 510 1803 510 1752.5 c 128,-1,19
 510 1702 510 1702 475 1666 c 128,-1,20
 440 1630 440 1630 390 1630 c 128,-1,21
 340 1630 340 1630 305 1666 c 128,-1,22
 270 1702 270 1702 270 1752.5 c 128,-1,23
 270 1803 270 1803 305 1839 c 128,-1,16
 340 1875 340 1875 390 1875 c 128,-1,17
EndSplineSet
Validated: 1
EndChar

StartChar: uni1E60
Encoding: 7776 7776 184
Width: 1120
Flags: W
HStem: 0 90<309.17 799.973> 799 90<382.688 799.973> 1110 21G<752 804.391> 1430 80<390.964 719.036> 1630 245<483.097 650.903>
VStem: 60 215<154.178 358> 153 200<916.188 1392.81> 447 240<1667.13 1837.87> 752 205<1202 1389.69> 830 210<150.732 738.268>
LayerCount: 2
Fore
SplineSet
410 0 m 2,0,1
 60 0 60 0 60 358 c 1,2,-1
 265 455 l 1,3,-1
 275 455 l 1,4,-1
 275 230 l 2,5,6
 275 90 275 90 415 90 c 2,7,-1
 690 90 l 2,8,9
 830 90 830 90 830 230 c 2,10,-1
 830 659 l 2,11,12
 830 799 830 799 690 799 c 2,13,-1
 453 799 l 2,14,15
 153 799 153 799 153 1099 c 2,16,-1
 153 1210 l 2,17,18
 153 1510 153 1510 453 1510 c 2,19,-1
 657 1510 l 2,20,21
 957 1510 957 1510 957 1202 c 1,22,-1
 762 1110 l 1,23,-1
 752 1110 l 1,24,-1
 752 1295 l 2,25,26
 752 1430 752 1430 612 1430 c 2,27,-1
 493 1430 l 2,28,29
 353 1430 353 1430 353 1290 c 2,30,-1
 353 1029 l 2,31,32
 353 889 353 889 493 889 c 2,33,-1
 690 889 l 2,34,35
 1040 889 1040 889 1040 539 c 2,36,-1
 1040 350 l 2,37,38
 1040 0 1040 0 690 0 c 2,39,-1
 410 0 l 2,0,1
567 1875 m 128,-1,41
 617 1875 617 1875 652 1839 c 128,-1,42
 687 1803 687 1803 687 1752.5 c 128,-1,43
 687 1702 687 1702 652 1666 c 128,-1,44
 617 1630 617 1630 567 1630 c 128,-1,45
 517 1630 517 1630 482 1666 c 128,-1,46
 447 1702 447 1702 447 1752.5 c 128,-1,47
 447 1803 447 1803 482 1839 c 128,-1,40
 517 1875 517 1875 567 1875 c 128,-1,41
EndSplineSet
Validated: 1
EndChar

StartChar: uni1E61
Encoding: 7777 7777 185
Width: 910
Flags: W
HStem: 0 80<266.787 623.213> 562 80<318.635 623.213> 1030 70<325.109 578.891> 1220 245<369.097 536.903>
VStem: 60 195<105.831 285> 128 180<651.121 1019.79> 333 240<1257.13 1427.87> 591 185<855 1018.11> 640 190<103.975 538.025>
LayerCount: 2
Fore
SplineSet
340 0 m 2,0,1
 60 0 60 0 60 285 c 1,2,-1
 245 373 l 1,3,-1
 255 373 l 1,4,-1
 255 170 l 2,5,6
 255 80 255 80 345 80 c 2,7,-1
 550 80 l 2,8,9
 640 80 640 80 640 170 c 2,10,-1
 640 472 l 2,11,12
 640 562 640 562 550 562 c 2,13,-1
 368 562 l 2,14,15
 128 562 128 562 128 802 c 2,16,-1
 128 860 l 2,17,18
 128 1100 128 1100 368 1100 c 2,19,-1
 536 1100 l 2,20,21
 776 1100 776 1100 776 855 c 1,22,-1
 601 772 l 1,23,-1
 591 772 l 1,24,-1
 591 945 l 2,25,26
 591 1030 591 1030 501 1030 c 2,27,-1
 398 1030 l 2,28,29
 308 1030 308 1030 308 940 c 2,30,-1
 308 732 l 2,31,32
 308 642 308 642 398 642 c 2,33,-1
 550 642 l 2,34,35
 830 642 830 642 830 362 c 2,36,-1
 830 280 l 2,37,38
 830 0 830 0 550 0 c 2,39,-1
 340 0 l 2,0,1
453 1465 m 128,-1,41
 503 1465 503 1465 538 1429 c 128,-1,42
 573 1393 573 1393 573 1342.5 c 128,-1,43
 573 1292 573 1292 538 1256 c 128,-1,44
 503 1220 503 1220 453 1220 c 128,-1,45
 403 1220 403 1220 368 1256 c 128,-1,46
 333 1292 333 1292 333 1342.5 c 128,-1,47
 333 1393 333 1393 368 1429 c 128,-1,40
 403 1465 403 1465 453 1465 c 128,-1,41
EndSplineSet
Validated: 1
EndChar

StartChar: Wgrave
Encoding: 7808 7808 186
Width: 2180
Flags: W
HStem: 0 90<411.055 959.895 1220.11 1768.95> 1510 20G<327.778 380 1137.78 1190 1947.78 2000>
VStem: 180 200<150.732 1440> 990 200<116.797 1440> 1800 200<150.732 1440>
DStem2: 1030 1937 900 1880 0.427336 -0.904093<0 339.921>
CounterMasks: 1 38
LayerCount: 2
Fore
SplineSet
530 0 m 2,0,1
 180 0 180 0 180 350 c 2,2,-1
 180 1440 l 1,3,-1
 370 1530 l 1,4,-1
 380 1530 l 1,5,-1
 380 230 l 2,6,7
 380 90 380 90 520 90 c 2,8,-1
 850 90 l 2,9,10
 990 90 990 90 990 230 c 2,11,-1
 990 1440 l 1,12,-1
 1180 1530 l 1,13,-1
 1190 1530 l 1,14,-1
 1190 230 l 2,15,16
 1190 90 1190 90 1330 90 c 2,17,-1
 1660 90 l 2,18,19
 1800 90 1800 90 1800 230 c 2,20,-1
 1800 1440 l 1,21,-1
 1990 1530 l 1,22,-1
 2000 1530 l 1,23,-1
 2000 350 l 2,24,25
 2000 0 2000 0 1650 0 c 2,26,-1
 1340 0 l 2,27,28
 1177 0 1177 0 1090 76 c 1,29,30
 1003 0 1003 0 840 0 c 2,31,-1
 530 0 l 2,0,1
1020 1937 m 1,32,-1
 1030 1937 l 1,33,-1
 1177 1626 l 1,34,-1
 1059 1570 l 1,35,-1
 1049 1570 l 1,36,-1
 900 1880 l 1,37,-1
 1020 1937 l 1,32,-1
EndSplineSet
Validated: 1
EndChar

StartChar: wgrave
Encoding: 7809 7809 187
Width: 1840
Flags: W
HStem: 0 80<372.021 819.365 1020.63 1467.98> 1100 20G<308.025 360 958.025 1010 1608.02 1660>
VStem: 180 180<103.975 1039> 830 180<87.9321 1039> 1480 180<103.975 1039>
DStem2: 862 1527 732 1470 0.427336 -0.904093<0 339.921>
CounterMasks: 1 38
LayerCount: 2
Fore
SplineSet
460 0 m 2,0,1
 180 0 180 0 180 280 c 2,2,-1
 180 1039 l 1,3,-1
 350 1120 l 1,4,-1
 360 1120 l 1,5,-1
 360 170 l 2,6,7
 360 80 360 80 450 80 c 2,8,-1
 740 80 l 2,9,10
 830 80 830 80 830 170 c 2,11,-1
 830 1039 l 1,12,-1
 1000 1120 l 1,13,-1
 1010 1120 l 1,14,-1
 1010 170 l 2,15,16
 1010 80 1010 80 1100 80 c 2,17,-1
 1390 80 l 2,18,19
 1480 80 1480 80 1480 170 c 2,20,-1
 1480 1039 l 1,21,-1
 1650 1120 l 1,22,-1
 1660 1120 l 1,23,-1
 1660 280 l 2,24,25
 1660 0 1660 0 1380 0 c 2,26,-1
 1110 0 l 2,27,28
 989 0 989 0 920 53 c 1,29,30
 851 0 851 0 730 0 c 2,31,-1
 460 0 l 2,0,1
852 1527 m 1,32,-1
 862 1527 l 1,33,-1
 1009 1216 l 1,34,-1
 891 1160 l 1,35,-1
 881 1160 l 1,36,-1
 732 1470 l 1,37,-1
 852 1527 l 1,32,-1
EndSplineSet
Validated: 1
EndChar

StartChar: Wacute
Encoding: 7810 7810 188
Width: 2180
Flags: W
HStem: 0 90<411.055 959.895 1220.11 1768.95> 1510 20G<327.778 380 1137.78 1190 1947.78 2000>
VStem: 180 200<150.732 1440> 990 200<116.797 1440> 1800 200<150.732 1440>
DStem2: 980 1626 1108 1570 0.427336 0.904093<4.06987 343.991>
CounterMasks: 1 38
LayerCount: 2
Fore
SplineSet
530 0 m 2,0,1
 180 0 180 0 180 350 c 2,2,-1
 180 1440 l 1,3,-1
 370 1530 l 1,4,-1
 380 1530 l 1,5,-1
 380 230 l 2,6,7
 380 90 380 90 520 90 c 2,8,-1
 850 90 l 2,9,10
 990 90 990 90 990 230 c 2,11,-1
 990 1440 l 1,12,-1
 1180 1530 l 1,13,-1
 1190 1530 l 1,14,-1
 1190 230 l 2,15,16
 1190 90 1190 90 1330 90 c 2,17,-1
 1660 90 l 2,18,19
 1800 90 1800 90 1800 230 c 2,20,-1
 1800 1440 l 1,21,-1
 1990 1530 l 1,22,-1
 2000 1530 l 1,23,-1
 2000 350 l 2,24,25
 2000 0 2000 0 1650 0 c 2,26,-1
 1340 0 l 2,27,28
 1177 0 1177 0 1090 76 c 1,29,30
 1003 0 1003 0 840 0 c 2,31,-1
 530 0 l 2,0,1
1137 1937 m 1,32,-1
 1257 1880 l 1,33,-1
 1108 1570 l 1,34,-1
 1098 1570 l 1,35,-1
 980 1626 l 1,36,-1
 1127 1937 l 1,37,-1
 1137 1937 l 1,32,-1
EndSplineSet
Validated: 1
EndChar

StartChar: wacute
Encoding: 7811 7811 189
Width: 1840
Flags: W
HStem: 0 80<372.021 819.365 1020.63 1467.98> 1100 20G<308.025 360 958.025 1010 1608.02 1660>
VStem: 180 180<103.975 1039> 830 180<87.9321 1039> 1480 180<103.975 1039>
DStem2: 802 1216 930 1160 0.427336 0.904093<4.06987 343.991>
CounterMasks: 1 38
LayerCount: 2
Fore
SplineSet
460 0 m 2,0,1
 180 0 180 0 180 280 c 2,2,-1
 180 1039 l 1,3,-1
 350 1120 l 1,4,-1
 360 1120 l 1,5,-1
 360 170 l 2,6,7
 360 80 360 80 450 80 c 2,8,-1
 740 80 l 2,9,10
 830 80 830 80 830 170 c 2,11,-1
 830 1039 l 1,12,-1
 1000 1120 l 1,13,-1
 1010 1120 l 1,14,-1
 1010 170 l 2,15,16
 1010 80 1010 80 1100 80 c 2,17,-1
 1390 80 l 2,18,19
 1480 80 1480 80 1480 170 c 2,20,-1
 1480 1039 l 1,21,-1
 1650 1120 l 1,22,-1
 1660 1120 l 1,23,-1
 1660 280 l 2,24,25
 1660 0 1660 0 1380 0 c 2,26,-1
 1110 0 l 2,27,28
 989 0 989 0 920 53 c 1,29,30
 851 0 851 0 730 0 c 2,31,-1
 460 0 l 2,0,1
959 1527 m 1,32,-1
 1079 1470 l 1,33,-1
 930 1160 l 1,34,-1
 920 1160 l 1,35,-1
 802 1216 l 1,36,-1
 949 1527 l 1,37,-1
 959 1527 l 1,32,-1
EndSplineSet
Validated: 1
EndChar

StartChar: Wdieresis
Encoding: 7812 7812 190
Width: 2180
Flags: W
HStem: 0 90<411.055 959.895 1220.11 1768.95> 1510 20G<327.778 380 1137.78 1190 1947.78 2000> 1640 227<866.034 1021.97 1143 1299>
VStem: 180 200<150.732 1440> 832 224<1674.55 1832.45> 990 200<116.797 1440> 1110 222<1675.07 1832.93> 1800 200<150.732 1440>
LayerCount: 2
Fore
SplineSet
530 0 m 2,0,1
 180 0 180 0 180 350 c 2,2,-1
 180 1440 l 1,3,-1
 370 1530 l 1,4,-1
 380 1530 l 1,5,-1
 380 230 l 2,6,7
 380 90 380 90 520 90 c 2,8,-1
 850 90 l 2,9,10
 990 90 990 90 990 230 c 2,11,-1
 990 1440 l 1,12,-1
 1180 1530 l 1,13,-1
 1190 1530 l 1,14,-1
 1190 230 l 2,15,16
 1190 90 1190 90 1330 90 c 2,17,-1
 1660 90 l 2,18,19
 1800 90 1800 90 1800 230 c 2,20,-1
 1800 1440 l 1,21,-1
 1990 1530 l 1,22,-1
 2000 1530 l 1,23,-1
 2000 350 l 2,24,25
 2000 0 2000 0 1650 0 c 2,26,-1
 1340 0 l 2,27,28
 1177 0 1177 0 1090 76 c 1,29,30
 1003 0 1003 0 840 0 c 2,31,-1
 530 0 l 2,0,1
1221 1868 m 128,-1,33
 1268 1868 1268 1868 1300 1834 c 128,-1,34
 1332 1800 1332 1800 1332 1754 c 128,-1,35
 1332 1708 1332 1708 1300 1674 c 128,-1,36
 1268 1640 1268 1640 1221 1640 c 128,-1,37
 1174 1640 1174 1640 1142 1674 c 128,-1,38
 1110 1708 1110 1708 1110 1754 c 128,-1,39
 1110 1800 1110 1800 1142 1834 c 128,-1,32
 1174 1868 1174 1868 1221 1868 c 128,-1,33
944 1867 m 128,-1,41
 990 1867 990 1867 1023 1833.5 c 128,-1,42
 1056 1800 1056 1800 1056 1753.5 c 128,-1,43
 1056 1707 1056 1707 1023 1673.5 c 128,-1,44
 990 1640 990 1640 944 1640 c 128,-1,45
 898 1640 898 1640 865 1673.5 c 128,-1,46
 832 1707 832 1707 832 1753.5 c 128,-1,47
 832 1800 832 1800 865 1833.5 c 128,-1,40
 898 1867 898 1867 944 1867 c 128,-1,41
EndSplineSet
Validated: 1
EndChar

StartChar: wdieresis
Encoding: 7813 7813 191
Width: 1840
Flags: W
HStem: 0 80<372.021 819.365 1020.63 1467.98> 1100 20G<308.025 360 958.025 1010 1608.02 1660> 1230 227<703.034 858.966 980.004 1136>
VStem: 180 180<103.975 1039> 669 224<1264.55 1422.45> 830 180<87.9321 1039> 947 222<1265.07 1422.93> 1480 180<103.975 1039>
LayerCount: 2
Fore
SplineSet
460 0 m 2,0,1
 180 0 180 0 180 280 c 2,2,-1
 180 1039 l 1,3,-1
 350 1120 l 1,4,-1
 360 1120 l 1,5,-1
 360 170 l 2,6,7
 360 80 360 80 450 80 c 2,8,-1
 740 80 l 2,9,10
 830 80 830 80 830 170 c 2,11,-1
 830 1039 l 1,12,-1
 1000 1120 l 1,13,-1
 1010 1120 l 1,14,-1
 1010 170 l 2,15,16
 1010 80 1010 80 1100 80 c 2,17,-1
 1390 80 l 2,18,19
 1480 80 1480 80 1480 170 c 2,20,-1
 1480 1039 l 1,21,-1
 1650 1120 l 1,22,-1
 1660 1120 l 1,23,-1
 1660 280 l 2,24,25
 1660 0 1660 0 1380 0 c 2,26,-1
 1110 0 l 2,27,28
 989 0 989 0 920 53 c 1,29,30
 851 0 851 0 730 0 c 2,31,-1
 460 0 l 2,0,1
1058 1458 m 128,-1,33
 1105 1458 1105 1458 1137 1424 c 128,-1,34
 1169 1390 1169 1390 1169 1344 c 128,-1,35
 1169 1298 1169 1298 1137 1264 c 128,-1,36
 1105 1230 1105 1230 1058 1230 c 128,-1,37
 1011 1230 1011 1230 979 1264 c 128,-1,38
 947 1298 947 1298 947 1344 c 128,-1,39
 947 1390 947 1390 979 1424 c 128,-1,32
 1011 1458 1011 1458 1058 1458 c 128,-1,33
781 1457 m 128,-1,41
 827 1457 827 1457 860 1423.5 c 128,-1,42
 893 1390 893 1390 893 1343.5 c 128,-1,43
 893 1297 893 1297 860 1263.5 c 128,-1,44
 827 1230 827 1230 781 1230 c 128,-1,45
 735 1230 735 1230 702 1263.5 c 128,-1,46
 669 1297 669 1297 669 1343.5 c 128,-1,47
 669 1390 669 1390 702 1423.5 c 128,-1,40
 735 1457 735 1457 781 1457 c 128,-1,41
EndSplineSet
Validated: 1
EndChar

StartChar: Ygrave
Encoding: 7922 7922 192
Width: 1210
Flags: W
HStem: -20 21G<505 557.222> 450 90<351.055 505 705 858.945> 1510 20G<267.778 320 1037.78 1090>
VStem: 120 200<600.732 1440> 505 200<70 450> 890 200<600.732 1440>
DStem2: 592 1937 462 1880 0.427336 -0.904093<0 339.921>
CounterMasks: 1 1c
LayerCount: 2
Fore
SplineSet
515 -20 m 1,0,-1
 505 -20 l 1,1,-1
 505 450 l 1,2,-1
 470 450 l 2,3,4
 120 450 120 450 120 800 c 2,5,-1
 120 1440 l 1,6,-1
 310 1530 l 1,7,-1
 320 1530 l 1,8,-1
 320 680 l 2,9,10
 320 540 320 540 460 540 c 2,11,-1
 750 540 l 2,12,13
 890 540 890 540 890 680 c 2,14,-1
 890 1440 l 1,15,-1
 1080 1530 l 1,16,-1
 1090 1530 l 1,17,-1
 1090 800 l 2,18,19
 1090 450 1090 450 740 450 c 2,20,-1
 705 450 l 1,21,-1
 705 70 l 1,22,-1
 515 -20 l 1,0,-1
582 1937 m 1,23,-1
 592 1937 l 1,24,-1
 739 1626 l 1,25,-1
 621 1570 l 1,26,-1
 611 1570 l 1,27,-1
 462 1880 l 1,28,-1
 582 1937 l 1,23,-1
EndSplineSet
Validated: 1
EndChar

StartChar: ygrave
Encoding: 7923 7923 193
Width: 1210
Flags: W
HStem: -410 80<353 817.979> 0 80<372.021 819.365> 1100 20G<308.025 360 958.025 1010>
VStem: 180 180<103.975 1039> 830 180<-306.025 21 87.9321 1039>
DStem2: 545 1527 415 1470 0.427336 -0.904093<0 339.921>
LayerCount: 2
Fore
SplineSet
460 0 m 2,0,1
 180 0 180 0 180 280 c 2,2,-1
 180 1039 l 1,3,-1
 350 1120 l 1,4,-1
 360 1120 l 1,5,-1
 360 170 l 2,6,7
 360 80 360 80 450 80 c 2,8,-1
 740 80 l 2,9,10
 830 80 830 80 830 170 c 2,11,-1
 830 1039 l 1,12,-1
 1000 1120 l 1,13,-1
 1010 1120 l 1,14,-1
 1010 -130 l 2,15,16
 1010 -410 1010 -410 730 -410 c 2,17,-1
 320 -410 l 1,18,-1
 320 -400 l 1,19,-1
 353 -330 l 1,20,-1
 740 -330 l 2,21,22
 830 -330 830 -330 830 -240 c 2,23,-1
 830 21 l 1,24,25
 784 0 784 0 730 0 c 2,26,-1
 460 0 l 2,0,1
535 1527 m 1,27,-1
 545 1527 l 1,28,-1
 692 1216 l 1,29,-1
 574 1160 l 1,30,-1
 564 1160 l 1,31,-1
 415 1470 l 1,32,-1
 535 1527 l 1,27,-1
EndSplineSet
Validated: 1
EndChar

StartChar: AE
Encoding: 198 198 194
Width: 1688
Flags: W
HStem: -20 21G<180 232.222> 0 90<1028 1600> 710 90<380 828 1028 1550> 1420 90<411.055 828 1028 1550>
VStem: 180 200<70 710 800 1359.27> 828 200<90 710 800 1420>
LayerCount: 2
Fore
SplineSet
1600 0 m 1,0,-1
 828 0 l 1,1,-1
 828 710 l 1,2,-1
 380 710 l 1,3,-1
 380 70 l 1,4,-1
 190 -20 l 1,5,-1
 180 -20 l 1,6,-1
 180 1160 l 2,7,8
 180 1510 180 1510 530 1510 c 2,9,-1
 1588 1510 l 1,10,-1
 1588 1500 l 1,11,-1
 1550 1420 l 1,12,-1
 1028 1420 l 1,13,-1
 1028 800 l 1,14,-1
 1588 800 l 1,15,-1
 1588 790 l 1,16,-1
 1550 710 l 1,17,-1
 1028 710 l 1,18,-1
 1028 90 l 1,19,-1
 1638 90 l 1,20,-1
 1638 80 l 1,21,-1
 1600 0 l 1,0,-1
828 1420 m 1,22,-1
 520 1420 l 2,23,24
 380 1420 380 1420 380 1280 c 2,25,-1
 380 800 l 1,26,-1
 828 800 l 1,27,-1
 828 1420 l 1,22,-1
EndSplineSet
Validated: 1
EndChar

StartChar: Eth
Encoding: 208 208 195
Width: 1350
Flags: W
HStem: 0 90<400 949.973> 710 90<78 200 400 692> 1420 90<400 949.973>
VStem: 200 200<90 710 800 1420> 980 210<150.732 1359.27>
CounterMasks: 1 e0
LayerCount: 2
Fore
SplineSet
200 0 m 1,0,-1
 200 710 l 1,1,-1
 40 710 l 1,2,-1
 40 720 l 1,3,-1
 78 800 l 1,4,-1
 200 800 l 1,5,-1
 200 1440 l 1,6,-1
 348 1510 l 1,7,-1
 840 1510 l 2,8,9
 1190 1510 1190 1510 1190 1160 c 2,10,-1
 1190 350 l 2,11,12
 1190 0 1190 0 840 0 c 2,13,-1
 200 0 l 1,0,-1
400 90 m 1,14,-1
 840 90 l 2,15,16
 980 90 980 90 980 230 c 2,17,-1
 980 1280 l 2,18,19
 980 1420 980 1420 840 1420 c 2,20,-1
 400 1420 l 1,21,-1
 400 800 l 1,22,-1
 730 800 l 1,23,-1
 730 790 l 1,24,-1
 692 710 l 1,25,-1
 400 710 l 1,26,-1
 400 90 l 1,14,-1
EndSplineSet
Validated: 1
EndChar

StartChar: Dcroat
Encoding: 272 272 196
Width: 1350
Flags: W
HStem: 0 90<400 949.973> 710 90<78 200 400 692> 1420 90<400 949.973>
VStem: 200 200<90 710 800 1420> 980 210<150.732 1359.27>
CounterMasks: 1 e0
LayerCount: 2
Fore
SplineSet
200 0 m 1,0,-1
 200 710 l 1,1,-1
 40 710 l 1,2,-1
 40 720 l 1,3,-1
 78 800 l 1,4,-1
 200 800 l 1,5,-1
 200 1440 l 1,6,-1
 348 1510 l 1,7,-1
 840 1510 l 2,8,9
 1190 1510 1190 1510 1190 1160 c 2,10,-1
 1190 350 l 2,11,12
 1190 0 1190 0 840 0 c 2,13,-1
 200 0 l 1,0,-1
400 90 m 1,14,-1
 840 90 l 2,15,16
 980 90 980 90 980 230 c 2,17,-1
 980 1280 l 2,18,19
 980 1420 980 1420 840 1420 c 2,20,-1
 400 1420 l 1,21,-1
 400 800 l 1,22,-1
 730 800 l 1,23,-1
 730 790 l 1,24,-1
 692 710 l 1,25,-1
 400 710 l 1,26,-1
 400 90 l 1,14,-1
EndSplineSet
Validated: 1
EndChar

StartChar: Hbar
Encoding: 294 294 197
Width: 1400
Flags: W
HStem: -20 21G<200 252.222 1000 1052.22> 710 90<400 1000> 1265 90<78 200 400 1000 1200 1322> 1510 20G<347.778 400 1147.78 1200>
VStem: 200 200<70 710 800 1265 1355 1440> 1000 200<70 710 800 1265 1355 1440>
LayerCount: 2
Fore
SplineSet
210 -20 m 1,0,-1
 200 -20 l 1,1,-1
 200 1265 l 1,2,-1
 40 1265 l 1,3,-1
 40 1275 l 1,4,-1
 78 1355 l 1,5,-1
 200 1355 l 1,6,-1
 200 1440 l 1,7,-1
 390 1530 l 1,8,-1
 400 1530 l 1,9,-1
 400 1355 l 1,10,-1
 1000 1355 l 1,11,-1
 1000 1440 l 1,12,-1
 1190 1530 l 1,13,-1
 1200 1530 l 1,14,-1
 1200 1355 l 1,15,-1
 1360 1355 l 1,16,-1
 1360 1345 l 1,17,-1
 1322 1265 l 1,18,-1
 1200 1265 l 1,19,-1
 1200 70 l 1,20,-1
 1010 -20 l 1,21,-1
 1000 -20 l 1,22,-1
 1000 710 l 1,23,-1
 400 710 l 1,24,-1
 400 70 l 1,25,-1
 210 -20 l 1,0,-1
400 1265 m 1,26,-1
 400 800 l 1,27,-1
 1000 800 l 1,28,-1
 1000 1265 l 1,29,-1
 400 1265 l 1,26,-1
EndSplineSet
Validated: 1
EndChar

StartChar: IJ
Encoding: 306 306 198
Width: 1660
Flags: W
HStem: -20 21G<200 252.222> 0 90<789.17 1268.95> 1420 90<673 1300> 1510 20G<347.778 400>
VStem: 200 200<70 1440> 540 215<154.178 358> 1300 200<150.732 1420>
LayerCount: 2
Fore
SplineSet
890 0 m 2,0,1
 540 0 540 0 540 358 c 1,2,-1
 745 455 l 1,3,-1
 755 455 l 1,4,-1
 755 230 l 2,5,6
 755 90 755 90 895 90 c 2,7,-1
 1160 90 l 2,8,9
 1300 90 1300 90 1300 230 c 2,10,-1
 1300 1420 l 1,11,-1
 635 1420 l 1,12,-1
 635 1430 l 1,13,-1
 673 1510 l 1,14,-1
 1500 1510 l 1,15,-1
 1500 350 l 2,16,17
 1500 0 1500 0 1150 0 c 2,18,-1
 890 0 l 2,0,1
200 -20 m 1,19,-1
 200 1440 l 1,20,-1
 390 1530 l 1,21,-1
 400 1530 l 1,22,-1
 400 70 l 1,23,-1
 210 -20 l 1,24,-1
 200 -20 l 1,19,-1
EndSplineSet
Validated: 1
EndChar

StartChar: lslash
Encoding: 322 322 199
Width: 684
Flags: W
HStem: -20 21G<252 303.975> 1510 20G<380.025 432>
VStem: 252 180<61 691 863 1449>
DStem2: 50 685 55 599 0.906303 0.422628<0 185.609 421.436 606.622>
LayerCount: 2
Fore
SplineSet
262 -20 m 1,0,-1
 252 -20 l 1,1,-1
 252 691 l 1,2,-1
 55 599 l 1,3,-1
 50 608 l 1,4,-1
 50 685 l 1,5,-1
 252 779 l 1,6,-1
 252 1449 l 1,7,-1
 422 1530 l 1,8,-1
 432 1530 l 1,9,-1
 432 863 l 1,10,-1
 629 955 l 1,11,-1
 634 946 l 1,12,-1
 634 868 l 1,13,-1
 432 774 l 1,14,-1
 432 61 l 1,15,-1
 262 -20 l 1,0,-1
EndSplineSet
Validated: 1
EndChar

StartChar: Lslash
Encoding: 321 321 200
Width: 1020
Flags: W
HStem: 0 90<400 972> 1510 20G<347.778 400>
VStem: 200 200<90 624 816 1440>
DStem2: 120 686 125 589 0.906902 0.421341<0 46.429 308.707 602.102>
LayerCount: 2
Fore
SplineSet
200 0 m 1,0,-1
 200 624 l 1,1,-1
 125 589 l 1,2,-1
 120 598 l 1,3,-1
 120 686 l 1,4,-1
 200 723 l 1,5,-1
 200 1440 l 1,6,-1
 390 1530 l 1,7,-1
 400 1530 l 1,8,-1
 400 816 l 1,9,-1
 699 955 l 1,10,-1
 704 946 l 1,11,-1
 704 858 l 1,12,-1
 400 717 l 1,13,-1
 400 90 l 1,14,-1
 1010 90 l 1,15,-1
 1010 80 l 1,16,-1
 972 0 l 1,17,-1
 200 0 l 1,0,-1
EndSplineSet
Validated: 1
EndChar

StartChar: Eng
Encoding: 330 330 201
Width: 1370
Flags: W
HStem: -410 90<813 949.973> -20 21G<180 232.222> 1420 90<411.055 958.945>
VStem: 180 200<70 1359.27> 990 200<-259.268 1359.27>
LayerCount: 2
Fore
SplineSet
190 -20 m 1,0,-1
 180 -20 l 1,1,-1
 180 1160 l 2,2,3
 180 1510 180 1510 530 1510 c 2,4,-1
 840 1510 l 2,5,6
 1190 1510 1190 1510 1190 1160 c 2,7,-1
 1190 -60 l 2,8,9
 1190 -410 1190 -410 840 -410 c 2,10,-1
 775 -410 l 1,11,-1
 775 -400 l 1,12,-1
 813 -320 l 1,13,14
 990 -320 990 -320 990 -180 c 2,15,-1
 990 1280 l 2,16,17
 990 1420 990 1420 850 1420 c 2,18,-1
 520 1420 l 2,19,20
 380 1420 380 1420 380 1280 c 2,21,-1
 380 70 l 1,22,-1
 190 -20 l 1,0,-1
EndSplineSet
Validated: 1
EndChar

StartChar: OE
Encoding: 338 338 202
Width: 1674
Flags: W
HStem: 0 90<391.055 814 1014 1586> 710 90<1014 1536> 1420 90<391.055 814 1014 1536>
VStem: 160 200<150.732 1359.27> 814 200<90 710 800 1420>
CounterMasks: 1 e0
LayerCount: 2
Fore
SplineSet
814 90 m 17,0,-1
 814 1420 l 1,1,-1
 500 1420 l 2,2,3
 360 1420 360 1420 360 1280 c 2,4,-1
 360 230 l 2,5,6
 360 90 360 90 500 90 c 2,7,-1
 814 90 l 17,0,-1
1586 0 m 1,8,-1
 510 0 l 2,9,10
 160 0 160 0 160 350 c 2,11,-1
 160 1160 l 2,12,13
 160 1510 160 1510 510 1510 c 2,14,-1
 1574 1510 l 1,15,-1
 1574 1500 l 1,16,-1
 1536 1420 l 1,17,-1
 1014 1420 l 1,18,-1
 1014 800 l 1,19,-1
 1574 800 l 1,20,-1
 1574 790 l 1,21,-1
 1536 710 l 1,22,-1
 1014 710 l 1,23,-1
 1014 90 l 1,24,-1
 1624 90 l 1,25,-1
 1624 80 l 1,26,-1
 1586 0 l 1,8,-1
EndSplineSet
Validated: 1
EndChar

StartChar: Thorn
Encoding: 222 222 203
Width: 1210
Flags: W
HStem: -20 21G<200 252.222> 250 90<400 889.973> 1170 90<400 889.973> 1510 20G<347.778 400>
VStem: 200 200<70 250 340 1170 1260 1440> 920 210<400.732 1109.27>
LayerCount: 2
Fore
SplineSet
400 1170 m 1,0,-1
 400 340 l 1,1,-1
 780 340 l 2,2,3
 920 340 920 340 920 480 c 2,4,-1
 920 1030 l 2,5,6
 920 1170 920 1170 780 1170 c 2,7,-1
 400 1170 l 1,0,-1
210 -20 m 1,8,-1
 200 -20 l 1,9,-1
 200 1440 l 1,10,-1
 390 1530 l 1,11,-1
 400 1530 l 1,12,-1
 400 1260 l 1,13,-1
 780 1260 l 2,14,15
 1130 1260 1130 1260 1130 910 c 2,16,-1
 1130 600 l 2,17,18
 1130 250 1130 250 780 250 c 2,19,-1
 400 250 l 1,20,-1
 400 70 l 1,21,-1
 210 -20 l 1,8,-1
EndSplineSet
Validated: 1
EndChar

StartChar: Tbar
Encoding: 358 358 204
Width: 1070
Flags: W
HStem: -20 21G<435 487.222> 475 90<278 435 635 792> 1420 90<48 435 635 1022>
VStem: 435 200<70 475 565 1420>
LayerCount: 2
Fore
SplineSet
445 -20 m 1,0,-1
 435 -20 l 1,1,-1
 435 475 l 1,2,-1
 240 475 l 1,3,-1
 240 485 l 1,4,-1
 278 565 l 1,5,-1
 435 565 l 1,6,-1
 435 1420 l 1,7,-1
 10 1420 l 1,8,-1
 10 1430 l 1,9,-1
 48 1510 l 1,10,-1
 1060 1510 l 1,11,-1
 1060 1500 l 1,12,-1
 1022 1420 l 1,13,-1
 635 1420 l 1,14,-1
 635 565 l 1,15,-1
 830 565 l 1,16,-1
 830 555 l 1,17,-1
 792 475 l 1,18,-1
 635 475 l 1,19,-1
 635 70 l 1,20,-1
 445 -20 l 1,0,-1
EndSplineSet
Validated: 1
EndChar

StartChar: tbar
Encoding: 359 359 205
Width: 780
Flags: W
HStem: -20 21G<300 351.772> 480 80<133 300 475 647> 1020 80<43 300 475 737> 1510 20G<423.228 475>
VStem: 300 175<59 480 560 1020 1100 1451>
LayerCount: 2
Fore
SplineSet
310 -20 m 1,0,-1
 300 -20 l 1,1,-1
 300 480 l 1,2,-1
 100 480 l 1,3,-1
 100 490 l 1,4,-1
 133 560 l 1,5,-1
 300 560 l 1,6,-1
 300 1020 l 1,7,-1
 10 1020 l 1,8,-1
 10 1030 l 1,9,-1
 43 1100 l 1,10,-1
 300 1100 l 1,11,-1
 300 1451 l 1,12,-1
 465 1530 l 1,13,-1
 475 1530 l 1,14,-1
 475 1100 l 1,15,-1
 770 1100 l 1,16,-1
 770 1090 l 1,17,-1
 737 1020 l 1,18,-1
 475 1020 l 1,19,-1
 475 560 l 1,20,-1
 680 560 l 1,21,-1
 680 550 l 1,22,-1
 647 480 l 1,23,-1
 475 480 l 1,24,-1
 475 59 l 1,25,-1
 310 -20 l 1,0,-1
EndSplineSet
Validated: 1
EndChar

StartChar: thorn
Encoding: 254 254 206
Width: 1190
Flags: W
HStem: -430 21G<200 251.975> 0 80<390.635 823.213> 1020 80<390.635 823.213> 1510 20G<328.025 380>
VStem: 200 180<-349 21 87.9321 1012.07 1079 1449> 840 190<103.975 996.025>
LayerCount: 2
Fore
SplineSet
470 1020 m 2,0,1
 380 1020 380 1020 380 930 c 2,2,-1
 380 170 l 2,3,4
 380 80 380 80 470 80 c 2,5,-1
 750 80 l 2,6,7
 840 80 840 80 840 170 c 2,8,-1
 840 930 l 2,9,10
 840 1020 840 1020 750 1020 c 2,11,-1
 470 1020 l 2,0,1
750 0 m 2,12,-1
 480 0 l 2,13,14
 427 0 427 0 380 21 c 1,15,-1
 380 -349 l 1,16,-1
 210 -430 l 1,17,-1
 200 -430 l 1,18,-1
 200 1449 l 1,19,-1
 370 1530 l 1,20,-1
 380 1530 l 1,21,-1
 380 1079 l 1,22,23
 427 1100 427 1100 480 1100 c 2,24,-1
 750 1100 l 2,25,26
 1030 1100 1030 1100 1030 820 c 2,27,-1
 1030 280 l 2,28,29
 1030 0 1030 0 750 0 c 2,12,-1
EndSplineSet
Validated: 1
EndChar

StartChar: eth
Encoding: 240 240 207
Width: 1150
Flags: W
HStem: 0 80<352.021 797.979> 1020 80<352.021 696> 1510 20G<424.357 491.938>
VStem: 160 180<103.975 996.025> 810 180<103.975 996.871>
DStem2: 323 1322 328 1236 0.905904 0.423483<0 131.094 286.663 425.792> 474 1530 353 1474 0.665927 -0.746017<0 92.8309 214.59 468.623>
LayerCount: 2
Fore
SplineSet
710 0 m 2,0,-1
 440 0 l 2,1,2
 160 0 160 0 160 280 c 2,3,-1
 160 820 l 2,4,5
 160 1100 160 1100 440 1100 c 2,6,-1
 696 1100 l 1,7,-1
 499 1315 l 1,8,-1
 328 1236 l 1,9,-1
 323 1245 l 1,10,-1
 323 1322 l 1,11,-1
 442 1377 l 1,12,-1
 353 1474 l 1,13,-1
 464 1530 l 1,14,-1
 474 1530 l 1,15,-1
 561 1433 l 1,16,-1
 738 1516 l 1,17,-1
 743 1507 l 1,18,-1
 743 1429 l 1,19,-1
 617 1370 l 1,20,-1
 923 1027 l 2,21,22
 990 952 990 952 990 820 c 2,23,-1
 990 280 l 2,24,25
 990 0 990 0 710 0 c 2,0,-1
430 80 m 2,26,-1
 720 80 l 2,27,28
 810 80 810 80 810 170 c 2,29,-1
 810 930 l 2,30,31
 810 1020 810 1020 720 1020 c 2,32,-1
 430 1020 l 2,33,34
 340 1020 340 1020 340 930 c 2,35,-1
 340 170 l 2,36,37
 340 80 340 80 430 80 c 2,26,-1
EndSplineSet
Validated: 1
EndChar

StartChar: oe
Encoding: 339 339 208
Width: 1717
Flags: W
HStem: 0 80<366.787 789.365 953.964 1350.21> 1020 80<366.787 787.684 952.695 1350.21>
VStem: 160 190<103.975 996.025> 800 190<114.041 373 468 985.959> 1367 190<103.975 300 649 996.025>
DStem2: 990 468 990 373 0.902242 0.43123<0 418.198>
LayerCount: 2
Fore
SplineSet
440 80 m 2,0,-1
 710 80 l 2,1,2
 800 80 800 80 800 170 c 2,3,-1
 800 930 l 2,4,5
 800 1020 800 1020 710 1020 c 2,6,-1
 440 1020 l 2,7,8
 350 1020 350 1020 350 930 c 2,9,-1
 350 170 l 2,10,11
 350 80 350 80 440 80 c 2,0,-1
1277 0 m 2,12,-1
 1027 0 l 2,13,14
 930 0 930 0 868 33 c 1,15,16
 805 0 805 0 710 0 c 2,17,-1
 440 0 l 2,18,19
 160 0 160 0 160 280 c 2,20,-1
 160 820 l 2,21,22
 160 1100 160 1100 440 1100 c 2,23,-1
 710 1100 l 2,24,25
 806 1100 806 1100 869 1067 c 1,26,27
 932 1100 932 1100 1027 1100 c 2,28,-1
 1277 1100 l 2,29,30
 1557 1100 1557 1100 1557 820 c 2,31,-1
 1557 644 l 1,32,-1
 990 373 l 1,33,-1
 990 280 l 2,34,35
 990 177 990 177 952 112 c 1,36,37
 974 80 974 80 1027 80 c 2,38,-1
 1272 80 l 2,39,40
 1362 80 1362 80 1362 170 c 2,41,-1
 1362 300 l 1,42,-1
 1547 388 l 1,43,-1
 1557 388 l 1,44,-1
 1557 280 l 2,45,46
 1557 0 1557 0 1277 0 c 2,12,-1
990 468 m 1,47,-1
 1367 649 l 1,48,-1
 1367 930 l 2,49,50
 1367 1020 1367 1020 1277 1020 c 2,51,-1
 1027 1020 l 2,52,53
 974 1020 974 1020 952 988 c 1,54,55
 990 923 990 923 990 820 c 2,56,-1
 990 468 l 1,47,-1
EndSplineSet
Validated: 1
EndChar

StartChar: eng
Encoding: 331 331 209
Width: 1190
Flags: W
HStem: -410 80<628 817.979> -20 21G<180 231.975> 1020 80<372.021 817.979>
VStem: 180 180<61 996.025> 830 180<-306.025 996.025>
LayerCount: 2
Fore
SplineSet
190 -20 m 1,0,-1
 180 -20 l 1,1,-1
 180 820 l 2,2,3
 180 1100 180 1100 460 1100 c 2,4,-1
 730 1100 l 2,5,6
 1010 1100 1010 1100 1010 820 c 2,7,-1
 1010 -130 l 2,8,9
 1010 -410 1010 -410 730 -410 c 2,10,-1
 595 -410 l 1,11,-1
 595 -400 l 1,12,-1
 628 -330 l 1,13,-1
 740 -330 l 2,14,15
 830 -330 830 -330 830 -240 c 2,16,-1
 830 930 l 2,17,18
 830 1020 830 1020 740 1020 c 2,19,-1
 450 1020 l 2,20,21
 360 1020 360 1020 360 930 c 2,22,-1
 360 61 l 1,23,-1
 190 -20 l 1,0,-1
EndSplineSet
Validated: 1
EndChar

StartChar: kgreenlandic
Encoding: 312 312 210
Width: 1170
Flags: W
HStem: -20 21G<200 251.975 830 881.975> 676 80<539 817.979> 1100 20G<328.025 380 856.384 934>
VStem: 200 180<61 668.068 755 1039> 830 180<61 652.025>
DStem2: 380 755 539 756 0.809916 0.586546<129.363 622.287>
LayerCount: 2
Fore
SplineSet
210 -20 m 1,0,-1
 200 -20 l 1,1,-1
 200 1039 l 1,2,-1
 370 1120 l 1,3,-1
 380 1120 l 1,4,-1
 380 755 l 1,5,-1
 884 1120 l 1,6,-1
 894 1120 l 1,7,-1
 982 1076 l 1,8,-1
 539 756 l 1,9,-1
 730 756 l 2,10,11
 1010 756 1010 756 1010 476 c 2,12,-1
 1010 61 l 1,13,-1
 840 -20 l 1,14,-1
 830 -20 l 1,15,-1
 830 586 l 2,16,17
 830 676 830 676 740 676 c 2,18,-1
 470 676 l 2,19,20
 380 676 380 676 380 586 c 2,21,-1
 380 61 l 1,22,-1
 210 -20 l 1,0,-1
EndSplineSet
Validated: 1
EndChar

StartChar: ij
Encoding: 307 307 211
Width: 1100
Flags: W
HStem: -410 80<518 707.979> -20 21G<200 251.975> 1100 20G<328.025 380 848.025 900> 1220 245<206.097 373.903 726.097 893.903>
VStem: 170 240<1257.13 1427.87> 200 180<61 1039> 690 240<1257.13 1427.87> 720 180<-306.025 1039>
LayerCount: 2
Fore
SplineSet
485 -410 m 1,0,-1
 485 -400 l 1,1,-1
 518 -330 l 1,2,-1
 630 -330 l 2,3,4
 720 -330 720 -330 720 -240 c 2,5,-1
 720 1039 l 1,6,-1
 890 1120 l 1,7,-1
 900 1120 l 1,8,-1
 900 -130 l 2,9,10
 900 -410 900 -410 620 -410 c 2,11,-1
 485 -410 l 1,0,-1
200 -20 m 1,12,-1
 200 1039 l 1,13,-1
 370 1120 l 1,14,-1
 380 1120 l 1,15,-1
 380 61 l 1,16,-1
 210 -20 l 1,17,-1
 200 -20 l 1,12,-1
810 1465 m 128,-1,19
 860 1465 860 1465 895 1429 c 128,-1,20
 930 1393 930 1393 930 1342.5 c 128,-1,21
 930 1292 930 1292 895 1256 c 128,-1,22
 860 1220 860 1220 810 1220 c 128,-1,23
 760 1220 760 1220 725 1256 c 128,-1,24
 690 1292 690 1292 690 1342.5 c 128,-1,25
 690 1393 690 1393 725 1429 c 128,-1,18
 760 1465 760 1465 810 1465 c 128,-1,19
290 1465 m 128,-1,27
 340 1465 340 1465 375 1429 c 128,-1,28
 410 1393 410 1393 410 1342.5 c 128,-1,29
 410 1292 410 1292 375 1256 c 128,-1,30
 340 1220 340 1220 290 1220 c 128,-1,31
 240 1220 240 1220 205 1256 c 128,-1,32
 170 1292 170 1292 170 1342.5 c 128,-1,33
 170 1393 170 1393 205 1429 c 128,-1,26
 240 1465 240 1465 290 1465 c 128,-1,27
EndSplineSet
Validated: 1
EndChar

StartChar: hbar
Encoding: 295 295 212
Width: 1210
Flags: W
HStem: -20 21G<200 251.975 850 901.975> 1020 80<390.743 837.979> 1270 80<73 200 380 547> 1510 20G<328.025 380>
VStem: 200 180<61 1012.07 1079 1270 1350 1449> 850 180<61 996.025>
LayerCount: 2
Fore
SplineSet
210 -20 m 1,0,-1
 200 -20 l 1,1,-1
 200 1270 l 1,2,-1
 40 1270 l 1,3,-1
 40 1280 l 1,4,-1
 73 1350 l 1,5,-1
 200 1350 l 1,6,-1
 200 1449 l 1,7,-1
 370 1530 l 1,8,-1
 380 1530 l 1,9,-1
 380 1350 l 1,10,-1
 580 1350 l 1,11,-1
 580 1340 l 1,12,-1
 547 1270 l 1,13,-1
 380 1270 l 1,14,-1
 380 1079 l 1,15,16
 429 1100 429 1100 480 1100 c 2,17,-1
 750 1100 l 2,18,19
 1030 1100 1030 1100 1030 820 c 2,20,-1
 1030 61 l 1,21,-1
 860 -20 l 1,22,-1
 850 -20 l 1,23,-1
 850 930 l 2,24,25
 850 1020 850 1020 760 1020 c 2,26,-1
 470 1020 l 2,27,28
 380 1020 380 1020 380 930 c 2,29,-1
 380 61 l 1,30,-1
 210 -20 l 1,0,-1
EndSplineSet
Validated: 1
EndChar

StartChar: longs
Encoding: 383 383 213
Width: 820
Flags: W
HStem: -20 21G<220 271.975> 820 80<43 220> 1430 80<412.021 777>
VStem: 220 180<61 820 900 1406.03>
LayerCount: 2
Fore
SplineSet
230 -20 m 1,0,-1
 220 -20 l 1,1,-1
 220 820 l 1,2,-1
 10 820 l 1,3,-1
 10 830 l 1,4,-1
 43 900 l 1,5,-1
 220 900 l 1,6,-1
 220 1230 l 2,7,8
 220 1510 220 1510 500 1510 c 2,9,-1
 810 1510 l 1,10,-1
 810 1500 l 1,11,-1
 777 1430 l 1,12,-1
 490 1430 l 2,13,14
 400 1430 400 1430 400 1340 c 2,15,-1
 400 61 l 1,16,-1
 230 -20 l 1,0,-1
EndSplineSet
Validated: 1
EndChar

StartChar: florin
Encoding: 402 402 214
Width: 800
Flags: W
HStem: -410 80<-2 187.979> 820 80<380 718> 1430 80<392.021 757>
VStem: 200 180<-306.025 820 900 1406.03>
LayerCount: 2
Fore
SplineSet
-35 -410 m 1,0,-1
 -35 -400 l 1,1,-1
 -2 -330 l 1,2,-1
 110 -330 l 2,3,4
 200 -330 200 -330 200 -240 c 2,5,-1
 200 1230 l 2,6,7
 200 1510 200 1510 480 1510 c 2,8,-1
 790 1510 l 1,9,-1
 790 1500 l 1,10,-1
 757 1430 l 1,11,-1
 470 1430 l 2,12,13
 380 1430 380 1430 380 1340 c 2,14,-1
 380 900 l 1,15,-1
 751 900 l 1,16,-1
 751 890 l 1,17,-1
 718 820 l 1,18,-1
 380 820 l 1,19,-1
 380 -130 l 2,20,21
 380 -410 380 -410 100 -410 c 2,22,-1
 -35 -410 l 1,0,-1
EndSplineSet
Validated: 1
EndChar

StartChar: dcroat
Encoding: 273 273 215
Width: 1170
Flags: W
HStem: 0 80<366.787 797.979> 1020 80<366.787 799.365> 1270 80<643 810 990 1117> 1510 20G<938.025 990>
VStem: 160 190<103.975 996.025> 810 180<103.975 1012.07 1079 1270 1350 1449>
LayerCount: 2
Fore
SplineSet
440 0 m 2,0,1
 160 0 160 0 160 280 c 2,2,-1
 160 820 l 2,3,4
 160 1100 160 1100 440 1100 c 2,5,-1
 710 1100 l 2,6,7
 763 1100 763 1100 810 1079 c 1,8,-1
 810 1270 l 1,9,-1
 610 1270 l 1,10,-1
 610 1280 l 1,11,-1
 643 1350 l 1,12,-1
 810 1350 l 1,13,-1
 810 1449 l 1,14,-1
 980 1530 l 1,15,-1
 990 1530 l 1,16,-1
 990 1350 l 1,17,-1
 1150 1350 l 1,18,-1
 1150 1340 l 1,19,-1
 1117 1270 l 1,20,-1
 990 1270 l 1,21,-1
 990 280 l 2,22,23
 990 0 990 0 710 0 c 2,24,-1
 440 0 l 2,0,1
720 80 m 2,25,26
 810 80 810 80 810 170 c 2,27,-1
 810 930 l 2,28,29
 810 1020 810 1020 720 1020 c 2,30,-1
 440 1020 l 2,31,32
 350 1020 350 1020 350 930 c 2,33,-1
 350 170 l 2,34,35
 350 80 350 80 440 80 c 2,36,-1
 720 80 l 2,25,26
EndSplineSet
Validated: 1
EndChar

StartChar: germandbls
Encoding: 223 223 216
Width: 1159
Flags: W
HStem: -20 21G<180 231.975> 0 80<548 872.213> 801 80<547 799.365> 1430 80<372.021 797.979>
VStem: 180 180<61 1406.03> 810 180<902.215 1406.03> 889 190<103.975 791.75>
LayerCount: 2
Fore
SplineSet
799 0 m 2,0,-1
 515 0 l 1,1,-1
 515 10 l 1,2,-1
 548 80 l 1,3,-1
 799 80 l 2,4,5
 889 80 889 80 889 170 c 2,6,-1
 889 711 l 2,7,8
 889 801 889 801 799 801 c 2,9,-1
 514 801 l 1,10,-1
 514 811 l 1,11,-1
 547 881 l 1,12,-1
 720 881 l 2,13,14
 810 881 810 881 810 971 c 2,15,-1
 810 1340 l 2,16,17
 810 1430 810 1430 720 1430 c 2,18,-1
 450 1430 l 2,19,20
 360 1430 360 1430 360 1340 c 2,21,-1
 360 61 l 1,22,-1
 190 -20 l 1,23,-1
 180 -20 l 1,24,-1
 180 1230 l 2,25,26
 180 1510 180 1510 460 1510 c 2,27,-1
 710 1510 l 2,28,29
 990 1510 990 1510 990 1230 c 2,30,-1
 990 1041 l 2,31,32
 990 930 990 930 924 882 c 1,33,34
 1079 822 1079 822 1079 641 c 2,35,-1
 1079 280 l 2,36,37
 1079 0 1079 0 799 0 c 2,0,-1
EndSplineSet
Validated: 1
EndChar

StartChar: ae
Encoding: 230 230 217
Width: 1611
Flags: W
HStem: -20 21G<704 755.538> 0 80<306.787 698.336 884.501 1244.21> 660 80<306.787 698.365> 1020 80<277 691.75 846.695 1244.21>
VStem: 100 190<103.975 636.025> 704 180<86.3501 373 468 653.65 719 985.959> 1261 190<103.975 300 649 996.025>
DStem2: 884 468 884 373 0.902242 0.43123<0 418.198>
LayerCount: 2
Fore
SplineSet
1171 0 m 2,0,-1
 921 0 l 2,1,2
 849 0 849 0 795 19 c 1,3,-1
 714 -20 l 1,4,-1
 704 -20 l 1,5,-1
 704 21 l 1,6,7
 659 0 659 0 604 0 c 2,8,-1
 380 0 l 2,9,10
 100 0 100 0 100 280 c 2,11,-1
 100 460 l 2,12,13
 100 740 100 740 380 740 c 2,14,-1
 604 740 l 2,15,16
 663 740 663 740 704 719 c 1,17,-1
 704 930 l 2,18,19
 704 1020 704 1020 614 1020 c 2,20,-1
 244 1020 l 1,21,-1
 244 1030 l 1,22,-1
 277 1100 l 1,23,-1
 604 1100 l 2,24,25
 700 1100 700 1100 763 1067 c 1,26,27
 826 1100 826 1100 921 1100 c 2,28,-1
 1171 1100 l 2,29,30
 1451 1100 1451 1100 1451 820 c 2,31,-1
 1451 644 l 1,32,-1
 884 373 l 1,33,-1
 884 85 l 1,34,35
 900 80 900 80 921 80 c 2,36,-1
 1166 80 l 2,37,38
 1256 80 1256 80 1256 170 c 2,39,-1
 1256 300 l 1,40,-1
 1441 388 l 1,41,-1
 1451 388 l 1,42,-1
 1451 280 l 2,43,44
 1451 0 1451 0 1171 0 c 2,0,-1
380 80 m 2,45,-1
 619 80 l 2,46,47
 709 80 709 80 709 170 c 2,48,-1
 709 570 l 2,49,50
 709 660 709 660 619 660 c 2,51,-1
 380 660 l 2,52,53
 290 660 290 660 290 570 c 2,54,-1
 290 170 l 2,55,56
 290 80 290 80 380 80 c 2,45,-1
884 468 m 1,57,-1
 1261 649 l 1,58,-1
 1261 930 l 2,59,60
 1261 1020 1261 1020 1171 1020 c 2,61,-1
 921 1020 l 2,62,63
 868 1020 868 1020 846 988 c 1,64,65
 884 923 884 923 884 820 c 2,66,-1
 884 468 l 1,57,-1
EndSplineSet
Validated: 1
EndChar

StartChar: S
Encoding: 83 83 218
Width: 1120
Flags: W
HStem: 0 90<309.17 799.973> 799 90<382.688 799.973> 1110 21G<752 804.391> 1430 80<390.964 719.036>
VStem: 60 215<154.178 358> 153 200<916.188 1392.81> 752 205<1202 1389.69> 830 210<150.732 738.268>
LayerCount: 2
Fore
SplineSet
410 0 m 2,0,1
 60 0 60 0 60 358 c 1,2,-1
 265 455 l 1,3,-1
 275 455 l 1,4,-1
 275 230 l 2,5,6
 275 90 275 90 415 90 c 2,7,-1
 690 90 l 2,8,9
 830 90 830 90 830 230 c 2,10,-1
 830 659 l 2,11,12
 830 799 830 799 690 799 c 2,13,-1
 453 799 l 2,14,15
 153 799 153 799 153 1099 c 2,16,-1
 153 1210 l 2,17,18
 153 1510 153 1510 453 1510 c 2,19,-1
 657 1510 l 2,20,21
 957 1510 957 1510 957 1202 c 1,22,-1
 762 1110 l 1,23,-1
 752 1110 l 1,24,-1
 752 1295 l 2,25,26
 752 1430 752 1430 612 1430 c 2,27,-1
 493 1430 l 2,28,29
 353 1430 353 1430 353 1290 c 2,30,-1
 353 1029 l 2,31,32
 353 889 353 889 493 889 c 2,33,-1
 690 889 l 2,34,35
 1040 889 1040 889 1040 539 c 2,36,-1
 1040 350 l 2,37,38
 1040 0 1040 0 690 0 c 2,39,-1
 410 0 l 2,0,1
EndSplineSet
Validated: 1
EndChar

StartChar: s
Encoding: 115 115 219
Width: 910
Flags: W
HStem: 0 80<266.787 623.213> 562 80<318.635 623.213> 1030 70<325.109 578.891>
VStem: 60 195<105.831 285> 128 180<651.121 1019.79> 591 185<855 1018.11> 640 190<103.975 538.025>
LayerCount: 2
Fore
SplineSet
340 0 m 2,0,1
 60 0 60 0 60 285 c 1,2,-1
 245 373 l 1,3,-1
 255 373 l 1,4,-1
 255 170 l 2,5,6
 255 80 255 80 345 80 c 2,7,-1
 550 80 l 2,8,9
 640 80 640 80 640 170 c 2,10,-1
 640 472 l 2,11,12
 640 562 640 562 550 562 c 2,13,-1
 368 562 l 2,14,15
 128 562 128 562 128 802 c 2,16,-1
 128 860 l 2,17,18
 128 1100 128 1100 368 1100 c 2,19,-1
 536 1100 l 2,20,21
 776 1100 776 1100 776 855 c 1,22,-1
 601 772 l 1,23,-1
 591 772 l 1,24,-1
 591 945 l 2,25,26
 591 1030 591 1030 501 1030 c 2,27,-1
 398 1030 l 2,28,29
 308 1030 308 1030 308 940 c 2,30,-1
 308 732 l 2,31,32
 308 642 308 642 398 642 c 2,33,-1
 550 642 l 2,34,35
 830 642 830 642 830 362 c 2,36,-1
 830 280 l 2,37,38
 830 0 830 0 550 0 c 2,39,-1
 340 0 l 2,0,1
EndSplineSet
Validated: 1
EndChar

StartChar: Aringacute
Encoding: 506 506 220
Width: 1370
Flags: W
HStem: -20 21G<180 232.222 990 1042.22> 710 90<380 990> 1420 90<411.055 958.945> 1570 98<524.776 662.24> 1836 98<525.247 662.469>
VStem: 180 200<70 710 800 1359.27> 410 97<1686.75 1818.1> 673 97<1678.01 1825.38> 990 200<70 710 800 1359.27>
DStem2: 752 1626 880 1570 0.427336 0.904093<4.06987 343.991>
LayerCount: 2
Fore
SplineSet
190 -20 m 1,0,-1
 180 -20 l 1,1,-1
 180 1160 l 2,2,3
 180 1510 180 1510 530 1510 c 2,4,-1
 840 1510 l 2,5,6
 1190 1510 1190 1510 1190 1160 c 2,7,-1
 1190 70 l 1,8,-1
 1000 -20 l 1,9,-1
 990 -20 l 1,10,-1
 990 710 l 1,11,-1
 380 710 l 1,12,-1
 380 70 l 1,13,-1
 190 -20 l 1,0,-1
380 800 m 1,14,-1
 990 800 l 1,15,-1
 990 1280 l 2,16,17
 990 1420 990 1420 850 1420 c 2,18,-1
 520 1420 l 2,19,20
 380 1420 380 1420 380 1280 c 2,21,-1
 380 800 l 1,14,-1
591 1836 m 0,22,23
 556 1835 556 1835 532 1811 c 0,24,25
 507 1786 507 1786 507 1752 c 128,-1,26
 507 1718 507 1718 531 1694 c 128,-1,27
 555 1670 555 1670 590 1668 c 256,28,29
 626 1668 626 1668 648 1693 c 0,30,31
 672 1719 672 1719 673 1752 c 0,32,33
 672 1789 672 1789 648 1811 c 0,34,35
 622 1835 622 1835 591 1836 c 0,22,23
592 1934 m 0,36,37
 665 1934 665 1934 717 1881 c 0,38,39
 770 1826 770 1826 770 1753 c 0,40,41
 770 1677 770 1677 717 1624 c 0,42,43
 663 1570 663 1570 590 1570 c 256,44,45
 517 1570 517 1570 463 1624 c 0,46,47
 410 1677 410 1677 410 1753 c 0,48,49
 410 1827 410 1827 463 1881 c 0,50,51
 516 1934 516 1934 592 1934 c 0,36,37
909 1937 m 1,52,-1
 1029 1880 l 1,53,-1
 880 1570 l 1,54,-1
 870 1570 l 1,55,-1
 752 1626 l 1,56,-1
 899 1937 l 1,57,-1
 909 1937 l 1,52,-1
EndSplineSet
Validated: 1
EndChar

StartChar: aringacute
Encoding: 507 507 221
Width: 1064
Flags: W
HStem: -20 21G<704 755.975> 0 80<306.787 698.336> 660 80<306.787 698.365> 1020 80<277 691.979> 1160 98<350.776 488.24> 1426 98<351.247 488.469>
VStem: 100 190<103.975 636.025> 236 97<1276.75 1408.1> 499 97<1268.01 1415.38> 704 180<86.3501 653.65 719 996.025>
DStem2: 578 1216 706 1160 0.427336 0.904093<4.06987 343.991>
LayerCount: 2
Fore
SplineSet
380 0 m 2,0,1
 100 0 100 0 100 280 c 2,2,-1
 100 460 l 2,3,4
 100 740 100 740 380 740 c 2,5,-1
 604 740 l 2,6,7
 663 740 663 740 704 719 c 1,8,-1
 704 930 l 2,9,10
 704 1020 704 1020 614 1020 c 2,11,-1
 244 1020 l 1,12,-1
 244 1030 l 1,13,-1
 277 1100 l 1,14,-1
 604 1100 l 2,15,16
 884 1100 884 1100 884 820 c 2,17,-1
 884 61 l 1,18,-1
 714 -20 l 1,19,-1
 704 -20 l 1,20,-1
 704 21 l 1,21,22
 659 0 659 0 604 0 c 2,23,-1
 380 0 l 2,0,1
380 80 m 2,24,-1
 619 80 l 2,25,26
 709 80 709 80 709 170 c 2,27,-1
 709 570 l 2,28,29
 709 660 709 660 619 660 c 2,30,-1
 380 660 l 2,31,32
 290 660 290 660 290 570 c 2,33,-1
 290 170 l 2,34,35
 290 80 290 80 380 80 c 2,24,-1
417 1426 m 0,36,37
 382 1425 382 1425 358 1401 c 0,38,39
 333 1376 333 1376 333 1342 c 128,-1,40
 333 1308 333 1308 357 1284 c 128,-1,41
 381 1260 381 1260 416 1258 c 256,42,43
 452 1258 452 1258 474 1283 c 0,44,45
 498 1309 498 1309 499 1342 c 0,46,47
 498 1379 498 1379 474 1401 c 0,48,49
 448 1425 448 1425 417 1426 c 0,36,37
418 1524 m 0,50,51
 491 1524 491 1524 543 1471 c 0,52,53
 596 1416 596 1416 596 1343 c 0,54,55
 596 1267 596 1267 543 1214 c 0,56,57
 489 1160 489 1160 416 1160 c 256,58,59
 343 1160 343 1160 289 1214 c 0,60,61
 236 1267 236 1267 236 1343 c 0,62,63
 236 1417 236 1417 289 1471 c 0,64,65
 342 1524 342 1524 418 1524 c 0,50,51
735 1527 m 1,66,-1
 855 1470 l 1,67,-1
 706 1160 l 1,68,-1
 696 1160 l 1,69,-1
 578 1216 l 1,70,-1
 725 1527 l 1,71,-1
 735 1527 l 1,66,-1
EndSplineSet
Validated: 1
EndChar

StartChar: AEacute
Encoding: 508 508 222
Width: 1688
Flags: W
HStem: -20 21G<180 232.222> 0 90<1028 1600> 710 90<380 828 1028 1550> 1420 90<411.055 828 1028 1550>
VStem: 180 200<70 710 800 1359.27> 828 200<90 710 800 1420>
DStem2: 822 1626 950 1570 0.427336 0.904093<4.06987 343.991>
LayerCount: 2
Fore
SplineSet
1600 0 m 1,0,-1
 828 0 l 1,1,-1
 828 710 l 1,2,-1
 380 710 l 1,3,-1
 380 70 l 1,4,-1
 190 -20 l 1,5,-1
 180 -20 l 1,6,-1
 180 1160 l 2,7,8
 180 1510 180 1510 530 1510 c 2,9,-1
 1588 1510 l 1,10,-1
 1588 1500 l 1,11,-1
 1550 1420 l 1,12,-1
 1028 1420 l 1,13,-1
 1028 800 l 1,14,-1
 1588 800 l 1,15,-1
 1588 790 l 1,16,-1
 1550 710 l 1,17,-1
 1028 710 l 1,18,-1
 1028 90 l 1,19,-1
 1638 90 l 1,20,-1
 1638 80 l 1,21,-1
 1600 0 l 1,0,-1
828 1420 m 1,22,-1
 520 1420 l 2,23,24
 380 1420 380 1420 380 1280 c 2,25,-1
 380 800 l 1,26,-1
 828 800 l 1,27,-1
 828 1420 l 1,22,-1
979 1937 m 1,28,-1
 1099 1880 l 1,29,-1
 950 1570 l 1,30,-1
 940 1570 l 1,31,-1
 822 1626 l 1,32,-1
 969 1937 l 1,33,-1
 979 1937 l 1,28,-1
EndSplineSet
Validated: 1
EndChar

StartChar: aeacute
Encoding: 509 509 223
Width: 1611
Flags: W
HStem: -20 21G<704 755.538> 0 80<306.787 698.336 884.501 1244.21> 660 80<306.787 698.365> 1020 80<277 691.75 846.695 1244.21>
VStem: 100 190<103.975 636.025> 704 180<86.3501 373 468 653.65 719 985.959> 1261 190<103.975 300 649 996.025>
DStem2: 716 1216 844 1160 0.427336 0.904093<4.06987 343.991> 884 468 884 373 0.902242 0.43123<0 418.198>
LayerCount: 2
Fore
SplineSet
1171 0 m 2,0,-1
 921 0 l 2,1,2
 849 0 849 0 795 19 c 1,3,-1
 714 -20 l 1,4,-1
 704 -20 l 1,5,-1
 704 21 l 1,6,7
 659 0 659 0 604 0 c 2,8,-1
 380 0 l 2,9,10
 100 0 100 0 100 280 c 2,11,-1
 100 460 l 2,12,13
 100 740 100 740 380 740 c 2,14,-1
 604 740 l 2,15,16
 663 740 663 740 704 719 c 1,17,-1
 704 930 l 2,18,19
 704 1020 704 1020 614 1020 c 2,20,-1
 244 1020 l 1,21,-1
 244 1030 l 1,22,-1
 277 1100 l 1,23,-1
 604 1100 l 2,24,25
 700 1100 700 1100 763 1067 c 1,26,27
 826 1100 826 1100 921 1100 c 2,28,-1
 1171 1100 l 2,29,30
 1451 1100 1451 1100 1451 820 c 2,31,-1
 1451 644 l 1,32,-1
 884 373 l 1,33,-1
 884 85 l 1,34,35
 900 80 900 80 921 80 c 2,36,-1
 1166 80 l 2,37,38
 1256 80 1256 80 1256 170 c 2,39,-1
 1256 300 l 1,40,-1
 1441 388 l 1,41,-1
 1451 388 l 1,42,-1
 1451 280 l 2,43,44
 1451 0 1451 0 1171 0 c 2,0,-1
380 80 m 2,45,-1
 619 80 l 2,46,47
 709 80 709 80 709 170 c 2,48,-1
 709 570 l 2,49,50
 709 660 709 660 619 660 c 2,51,-1
 380 660 l 2,52,53
 290 660 290 660 290 570 c 2,54,-1
 290 170 l 2,55,56
 290 80 290 80 380 80 c 2,45,-1
884 468 m 1,57,-1
 1261 649 l 1,58,-1
 1261 930 l 2,59,60
 1261 1020 1261 1020 1171 1020 c 2,61,-1
 921 1020 l 2,62,63
 868 1020 868 1020 846 988 c 1,64,65
 884 923 884 923 884 820 c 2,66,-1
 884 468 l 1,57,-1
873 1527 m 1,67,-1
 993 1470 l 1,68,-1
 844 1160 l 1,69,-1
 834 1160 l 1,70,-1
 716 1216 l 1,71,-1
 863 1527 l 1,72,-1
 873 1527 l 1,67,-1
EndSplineSet
Validated: 1
EndChar

StartChar: Oslashacute
Encoding: 510 510 224
Width: 1330
Flags: W
HStem: 0 90<418.035 938.945> 1420 90<391.055 911.995>
VStem: 160 200<221.083 1359.27> 970 200<150.732 1288.92>
DStem2: 241 -36 349 -40 0.422823 0.906212<42.04 112.399 281.4 1510.78 1679.78 1750.14> 548 1626 676 1570 0.427336 0.904093<4.06987 343.991>
LayerCount: 2
Fore
SplineSet
820 0 m 2,0,-1
 510 0 l 2,1,2
 434 0 434 0 375 16 c 1,3,-1
 349 -40 l 1,4,-1
 250 -40 l 1,5,-1
 241 -36 l 1,6,-1
 284 57 l 1,7,8
 160 141 160 141 160 350 c 2,9,-1
 160 1160 l 2,10,11
 160 1510 160 1510 510 1510 c 2,12,-1
 820 1510 l 2,13,14
 896 1510 896 1510 955 1494 c 1,15,-1
 981 1550 l 1,16,-1
 1080 1550 l 1,17,-1
 1089 1546 l 1,18,-1
 1046 1453 l 1,19,20
 1170 1369 1170 1369 1170 1160 c 2,21,-1
 1170 350 l 2,22,23
 1170 0 1170 0 820 0 c 2,0,-1
500 90 m 2,24,-1
 830 90 l 2,25,26
 970 90 970 90 970 230 c 2,27,-1
 970 1291 l 1,28,-1
 417 106 l 1,29,30
 450 90 450 90 500 90 c 2,24,-1
360 219 m 1,31,-1
 913 1403 l 1,32,33
 881 1420 881 1420 830 1420 c 2,34,-1
 500 1420 l 2,35,36
 360 1420 360 1420 360 1280 c 2,37,-1
 360 219 l 1,31,-1
705 1937 m 1,38,-1
 825 1880 l 1,39,-1
 676 1570 l 1,40,-1
 666 1570 l 1,41,-1
 548 1626 l 1,42,-1
 695 1937 l 1,43,-1
 705 1937 l 1,38,-1
EndSplineSet
Validated: 1
EndChar

StartChar: oslashacute
Encoding: 511 511 225
Width: 1150
Flags: W
HStem: 0 80<411 797.979> 1020 80<352.021 739>
VStem: 160 180<168.367 996.025> 810 180<103.975 931.633>
DStem2: 279 34 355 -40 0.422379 0.906419<-34.9742 7.04971 143.6 1041.87 1179.45 1220.45> 449 1216 577 1160 0.427336 0.904093<4.06987 343.991>
LayerCount: 2
Fore
SplineSet
710 0 m 2,0,-1
 440 0 l 2,1,2
 406 0 406 0 376 4 c 1,3,-1
 355 -40 l 1,4,-1
 256 -40 l 1,5,-1
 247 -36 l 1,6,-1
 279 34 l 1,7,8
 160 97 160 97 160 280 c 2,9,-1
 160 820 l 2,10,11
 160 1100 160 1100 440 1100 c 2,12,-1
 710 1100 l 2,13,14
 744 1100 744 1100 774 1096 c 1,15,-1
 795 1140 l 1,16,-1
 894 1140 l 1,17,-1
 903 1136 l 1,18,-1
 871 1066 l 1,19,20
 990 1003 990 1003 990 820 c 2,21,-1
 990 280 l 2,22,23
 990 0 990 0 710 0 c 2,0,-1
430 80 m 2,24,-1
 720 80 l 2,25,26
 810 80 810 80 810 170 c 2,27,-1
 810 936 l 1,28,-1
 411 81 l 1,29,30
 420 80 420 80 430 80 c 2,24,-1
340 164 m 1,31,-1
 739 1019 l 1,32,33
 730 1020 730 1020 720 1020 c 2,34,-1
 430 1020 l 2,35,36
 340 1020 340 1020 340 930 c 2,37,-1
 340 164 l 1,31,-1
606 1527 m 1,38,-1
 726 1470 l 1,39,-1
 577 1160 l 1,40,-1
 567 1160 l 1,41,-1
 449 1216 l 1,42,-1
 596 1527 l 1,43,-1
 606 1527 l 1,38,-1
EndSplineSet
Validated: 1
EndChar

StartChar: Scommaaccent
Encoding: 536 536 226
Width: 1120
Flags: W
HStem: -427 21G<475.857 537.613> 0 90<309.17 799.973> 799 90<382.688 799.973> 1110 21G<752 804.391> 1430 80<390.964 719.036>
VStem: 60 215<154.178 358> 153 200<916.188 1392.81> 752 205<1202 1389.69> 830 210<150.732 738.268>
DStem2: 400 -371 528 -427 0.427336 0.904093<4.06987 343.991>
LayerCount: 2
Fore
SplineSet
410 0 m 2,0,1
 60 0 60 0 60 358 c 1,2,-1
 265 455 l 1,3,-1
 275 455 l 1,4,-1
 275 230 l 2,5,6
 275 90 275 90 415 90 c 2,7,-1
 690 90 l 2,8,9
 830 90 830 90 830 230 c 2,10,-1
 830 659 l 2,11,12
 830 799 830 799 690 799 c 2,13,-1
 453 799 l 2,14,15
 153 799 153 799 153 1099 c 2,16,-1
 153 1210 l 2,17,18
 153 1510 153 1510 453 1510 c 2,19,-1
 657 1510 l 2,20,21
 957 1510 957 1510 957 1202 c 1,22,-1
 762 1110 l 1,23,-1
 752 1110 l 1,24,-1
 752 1295 l 2,25,26
 752 1430 752 1430 612 1430 c 2,27,-1
 493 1430 l 2,28,29
 353 1430 353 1430 353 1290 c 2,30,-1
 353 1029 l 2,31,32
 353 889 353 889 493 889 c 2,33,-1
 690 889 l 2,34,35
 1040 889 1040 889 1040 539 c 2,36,-1
 1040 350 l 2,37,38
 1040 0 1040 0 690 0 c 2,39,-1
 410 0 l 2,0,1
557 -60 m 1,40,-1
 677 -117 l 1,41,-1
 528 -427 l 1,42,-1
 518 -427 l 1,43,-1
 400 -371 l 1,44,-1
 547 -60 l 1,45,-1
 557 -60 l 1,40,-1
EndSplineSet
Validated: 1
EndChar

StartChar: scommaaccent
Encoding: 537 537 227
Width: 910
Flags: W
HStem: -427 21G<372.857 434.613> 0 80<266.787 623.213> 562 80<318.635 623.213> 1030 70<325.109 578.891>
VStem: 60 195<105.831 285> 128 180<651.121 1019.79> 591 185<855 1018.11> 640 190<103.975 538.025>
DStem2: 297 -371 425 -427 0.427336 0.904093<4.06987 343.991>
LayerCount: 2
Fore
SplineSet
340 0 m 2,0,1
 60 0 60 0 60 285 c 1,2,-1
 245 373 l 1,3,-1
 255 373 l 1,4,-1
 255 170 l 2,5,6
 255 80 255 80 345 80 c 2,7,-1
 550 80 l 2,8,9
 640 80 640 80 640 170 c 2,10,-1
 640 472 l 2,11,12
 640 562 640 562 550 562 c 2,13,-1
 368 562 l 2,14,15
 128 562 128 562 128 802 c 2,16,-1
 128 860 l 2,17,18
 128 1100 128 1100 368 1100 c 2,19,-1
 536 1100 l 2,20,21
 776 1100 776 1100 776 855 c 1,22,-1
 601 772 l 1,23,-1
 591 772 l 1,24,-1
 591 945 l 2,25,26
 591 1030 591 1030 501 1030 c 2,27,-1
 398 1030 l 2,28,29
 308 1030 308 1030 308 940 c 2,30,-1
 308 732 l 2,31,32
 308 642 308 642 398 642 c 2,33,-1
 550 642 l 2,34,35
 830 642 830 642 830 362 c 2,36,-1
 830 280 l 2,37,38
 830 0 830 0 550 0 c 2,39,-1
 340 0 l 2,0,1
454 -60 m 1,40,-1
 574 -117 l 1,41,-1
 425 -427 l 1,42,-1
 415 -427 l 1,43,-1
 297 -371 l 1,44,-1
 444 -60 l 1,45,-1
 454 -60 l 1,40,-1
EndSplineSet
Validated: 1
EndChar

StartChar: uni021A
Encoding: 538 538 228
Width: 1070
Flags: W
HStem: -427 21G<461.857 523.613> -20 21G<435 487.222> 1420 90<48 435 635 1022>
VStem: 435 200<70 1420>
DStem2: 386 -371 514 -427 0.427336 0.904093<4.06987 343.991>
LayerCount: 2
Fore
SplineSet
435 -20 m 1,0,-1
 435 1420 l 1,1,-1
 10 1420 l 1,2,-1
 10 1430 l 1,3,-1
 48 1510 l 1,4,-1
 1060 1510 l 1,5,-1
 1060 1500 l 1,6,-1
 1022 1420 l 1,7,-1
 635 1420 l 1,8,-1
 635 70 l 1,9,-1
 445 -20 l 1,10,-1
 435 -20 l 1,0,-1
543 -60 m 1,11,-1
 663 -117 l 1,12,-1
 514 -427 l 1,13,-1
 504 -427 l 1,14,-1
 386 -371 l 1,15,-1
 533 -60 l 1,16,-1
 543 -60 l 1,11,-1
EndSplineSet
Validated: 1
EndChar

StartChar: uni021B
Encoding: 539 539 229
Width: 780
Flags: W
HStem: -427 21G<313.857 375.613> -20 21G<300 351.772> 1020 80<43 300 475 737> 1510 20G<423.228 475>
VStem: 300 175<59 1020 1100 1451>
DStem2: 238 -371 366 -427 0.427336 0.904093<4.06987 343.991>
LayerCount: 2
Fore
SplineSet
300 -20 m 1,0,-1
 300 1020 l 1,1,-1
 10 1020 l 1,2,-1
 10 1030 l 1,3,-1
 43 1100 l 1,4,-1
 300 1100 l 1,5,-1
 300 1451 l 1,6,-1
 465 1530 l 1,7,-1
 475 1530 l 1,8,-1
 475 1100 l 1,9,-1
 770 1100 l 1,10,-1
 770 1090 l 1,11,-1
 737 1020 l 1,12,-1
 475 1020 l 1,13,-1
 475 59 l 1,14,-1
 310 -20 l 1,15,-1
 300 -20 l 1,0,-1
395 -60 m 1,16,-1
 515 -117 l 1,17,-1
 366 -427 l 1,18,-1
 356 -427 l 1,19,-1
 238 -371 l 1,20,-1
 385 -60 l 1,21,-1
 395 -60 l 1,16,-1
EndSplineSet
Validated: 1
EndChar

StartChar: circumflex
Encoding: 710 710 230
Width: 600
Flags: W
HStem: 1170 354
VStem: 50 500
DStem2: 353 1524 301 1367 0.551466 -0.834197<102.293 333.357>
LayerCount: 2
Fore
SplineSet
343 1524 m 1,0,-1
 353 1524 l 1,1,-1
 550 1226 l 1,2,-1
 432 1170 l 1,3,-1
 422 1170 l 1,4,-1
 301 1367 l 1,5,-1
 178 1170 l 1,6,-1
 168 1170 l 1,7,-1
 50 1226 l 1,8,-1
 223 1467 l 1,9,-1
 343 1524 l 1,0,-1
EndSplineSet
Validated: 1
EndChar

StartChar: caron
Encoding: 711 711 231
Width: 600
Flags: W
HStem: 1170 354
VStem: 50 500
DStem2: 178 1524 50 1468 0.551466 -0.834197<0 231.064>
LayerCount: 2
Fore
SplineSet
168 1524 m 1,0,-1
 178 1524 l 1,1,-1
 299 1327 l 1,2,-1
 422 1524 l 1,3,-1
 432 1524 l 1,4,-1
 550 1468 l 1,5,-1
 377 1227 l 1,6,-1
 257 1170 l 1,7,-1
 247 1170 l 1,8,-1
 50 1468 l 1,9,-1
 168 1524 l 1,0,-1
EndSplineSet
Validated: 1
EndChar

StartChar: uni02C9
Encoding: 713 713 232
Width: 600
Flags: W
HStem: 1280 130<107 493>
VStem: 50 500
LayerCount: 2
Fore
SplineSet
107 1410 m 1,0,-1
 550 1410 l 1,1,-1
 550 1400 l 1,2,-1
 493 1280 l 1,3,-1
 50 1280 l 1,4,-1
 50 1290 l 1,5,-1
 107 1410 l 1,0,-1
EndSplineSet
Validated: 1
EndChar

StartChar: breve
Encoding: 728 728 233
Width: 600
Flags: W
HStem: 1250 140<163.496 437.521>
VStem: 50 500<1310.96 1356>
LayerCount: 2
Fore
SplineSet
114 1485 m 1,0,1
 184 1390 184 1390 300 1390 c 128,-1,2
 416 1390 416 1390 486 1485 c 1,3,-1
 550 1356 l 1,4,-1
 550 1346 l 1,5,6
 468 1250 468 1250 309 1250 c 128,-1,7
 150 1250 150 1250 50 1346 c 1,8,-1
 50 1356 l 1,9,-1
 114 1485 l 1,0,1
EndSplineSet
Validated: 1
EndChar

StartChar: dotaccent
Encoding: 729 729 234
Width: 340
Flags: W
HStem: 1220 245<86.0974 253.903>
VStem: 50 240<1257.13 1427.87>
LayerCount: 2
Fore
SplineSet
170 1465 m 128,-1,1
 220 1465 220 1465 255 1429 c 128,-1,2
 290 1393 290 1393 290 1342.5 c 128,-1,3
 290 1292 290 1292 255 1256 c 128,-1,4
 220 1220 220 1220 170 1220 c 128,-1,5
 120 1220 120 1220 85 1256 c 128,-1,6
 50 1292 50 1292 50 1342.5 c 128,-1,7
 50 1393 50 1393 85 1429 c 128,-1,0
 120 1465 120 1465 170 1465 c 128,-1,1
EndSplineSet
Validated: 1
EndChar

StartChar: ring
Encoding: 730 730 235
Width: 460
Flags: W
HStem: 1160 98<164.776 302.24> 1426 98<165.247 302.469>
VStem: 50 97<1276.75 1408.1> 313 97<1268.01 1415.38>
LayerCount: 2
Fore
SplineSet
231 1426 m 0,0,1
 196 1425 196 1425 172 1401 c 0,2,3
 147 1376 147 1376 147 1342 c 128,-1,4
 147 1308 147 1308 171 1284 c 128,-1,5
 195 1260 195 1260 230 1258 c 256,6,7
 266 1258 266 1258 288 1283 c 0,8,9
 312 1309 312 1309 313 1342 c 0,10,11
 312 1379 312 1379 288 1401 c 0,12,13
 262 1425 262 1425 231 1426 c 0,0,1
232 1524 m 0,14,15
 305 1524 305 1524 357 1471 c 0,16,17
 410 1416 410 1416 410 1343 c 0,18,19
 410 1267 410 1267 357 1214 c 0,20,21
 303 1160 303 1160 230 1160 c 256,22,23
 157 1160 157 1160 103 1214 c 0,24,25
 50 1267 50 1267 50 1343 c 0,26,27
 50 1417 50 1417 103 1471 c 0,28,29
 156 1524 156 1524 232 1524 c 0,14,15
EndSplineSet
Validated: 1
EndChar

StartChar: ogonek
Encoding: 731 731 236
Width: 379
Flags: W
HStem: -430 430 -20 20G<211 234>
VStem: 50 147<-290.173 -101.531>
LayerCount: 2
Fore
SplineSet
211 0 m 1,0,1
 271 0 l 1,2,3
 197 -98 197 -98 197 -184 c 0,4,5
 197 -291 197 -291 329 -349 c 1,6,-1
 158 -430 l 1,7,-1
 149 -430 l 1,8,9
 50 -354 50 -354 50 -236 c 0,10,11
 50 -94 50 -94 211 0 c 1,0,1
EndSplineSet
Validated: 1
EndChar

StartChar: tilde
Encoding: 732 732 237
Width: 600
Flags: W
HStem: 1220 125<342.268 416.951> 1338 125<183.049 257.732>
VStem: 50 128<1268 1337.47> 422 128<1345.53 1415>
LayerCount: 2
Fore
SplineSet
550 1463 m 1,0,1
 550 1220 550 1220 388 1220 c 0,2,3
 317 1220 317 1220 254 1299 c 0,4,5
 224 1337 224 1337 207 1338 c 0,6,7
 179 1338 179 1338 178 1268 c 1,8,-1
 60 1220 l 1,9,-1
 50 1220 l 1,10,11
 50 1463 50 1463 212 1463 c 24,12,13
 283 1463 283 1463 346 1384 c 0,14,15
 376 1346 376 1346 393 1345 c 0,16,17
 421 1345 421 1345 422 1415 c 1,18,-1
 540 1463 l 1,19,-1
 550 1463 l 1,0,1
EndSplineSet
Validated: 1
EndChar

StartChar: hungarumlaut
Encoding: 733 733 238
Width: 556
Flags: W
HStem: 1170 322
VStem: 50 456
DStem2: 50 1217 159 1170 0.42738 0.904072<4.09298 304.179> 265 1217 374 1170 0.42738 0.904072<4.09298 304.179>
LayerCount: 2
Fore
SplineSet
405 1492 m 1,0,-1
 506 1444 l 1,1,-1
 374 1170 l 1,2,-1
 364 1170 l 1,3,-1
 265 1217 l 1,4,-1
 395 1492 l 1,5,-1
 405 1492 l 1,0,-1
190 1492 m 1,6,-1
 291 1444 l 1,7,-1
 159 1170 l 1,8,-1
 149 1170 l 1,9,-1
 50 1217 l 1,10,-1
 180 1492 l 1,11,-1
 190 1492 l 1,6,-1
EndSplineSet
Validated: 1
EndChar

StartChar: uni1E9E
Encoding: 7838 7838 239
Width: 1250
Flags: W
HStem: -20 21G<200 252.222> 0 90<623 929.973> 836 89<841 927.025> 1420 90<400 880.272>
VStem: 200 200<70 1420> 960 210<150.732 781.77>
DStem2: 612 846 841 925 0.444577 0.895741<172.572 608.874>
LayerCount: 2
Fore
SplineSet
820 0 m 2,0,-1
 585 0 l 1,1,-1
 585 10 l 1,2,-1
 623 90 l 1,3,-1
 820 90 l 2,4,5
 960 90 960 90 960 230 c 2,6,-1
 960 696 l 2,7,8
 960 836 960 836 820 836 c 2,9,-1
 612 836 l 1,10,-1
 612 846 l 1,11,-1
 882 1390 l 1,12,13
 845 1420 845 1420 782 1420 c 2,14,-1
 400 1420 l 1,15,-1
 400 70 l 1,16,-1
 210 -20 l 1,17,-1
 200 -20 l 1,18,-1
 200 1440 l 1,19,-1
 348 1510 l 1,20,-1
 730 1510 l 2,21,22
 979 1510 979 1510 1051 1334 c 1,23,-1
 841 925 l 1,24,25
 1170 925 1170 925 1170 576 c 2,26,-1
 1170 350 l 2,27,28
 1170 0 1170 0 820 0 c 2,0,-1
EndSplineSet
Validated: 1
EndChar

StartChar: uni203D
Encoding: 8253 8253 240
Width: 1270
Flags: W
HStem: -20 245<511.097 678.903> 1420 90<391.797 879.973>
VStem: 150 215<1134 1356.8> 475 240<17.1285 187.871> 498 203<399 596.325 683 845.891> 518 180<399 590.642 683 1059> 910 210<908.75 1359.27>
LayerCount: 2
Fore
SplineSet
595 -20 m 128,-1,1
 545 -20 545 -20 510 16 c 128,-1,2
 475 52 475 52 475 102.5 c 128,-1,3
 475 153 475 153 510 189 c 128,-1,4
 545 225 545 225 595 225 c 128,-1,5
 645 225 645 225 680 189 c 128,-1,6
 715 153 715 153 715 102.5 c 128,-1,7
 715 52 715 52 680 16 c 128,-1,0
 645 -20 645 -20 595 -20 c 128,-1,1
530 1510 m 2,8,-1
 770 1510 l 2,9,10
 1120 1510 1120 1510 1120 1160 c 2,11,-1
 1120 1115 l 2,12,13
 1120 801 1120 801 791 636 c 0,14,15
 701 591 701 591 701 399 c 1,16,-1
 508 306 l 1,17,-1
 498 306 l 1,18,19
 498 396 498 396 518 466 c 1,20,-1
 518 1059 l 1,21,-1
 688 1140 l 1,22,-1
 698 1140 l 1,23,-1
 698 683 l 1,24,25
 910 784 910 784 910 1017 c 2,26,-1
 910 1280 l 2,27,28
 910 1420 910 1420 770 1420 c 2,29,-1
 505 1420 l 2,30,31
 365 1420 365 1420 365 1280 c 2,32,-1
 365 1134 l 1,33,-1
 160 1036 l 1,34,-1
 150 1036 l 1,35,-1
 150 1160 l 2,36,37
 150 1510 150 1510 530 1510 c 2,8,-1
EndSplineSet
Validated: 1
EndChar

StartChar: afii61352
Encoding: 8470 8470 241
Width: 1950
Flags: W
HStem: -20 21G<180 232.222 990 1042.22> 0 120<1398 1748> 179 61<1477.41 1668.59> 709 61<1477.41 1668.59> 1420 90<411.055 958.945>
VStem: 180 200<70 1359.27> 990 200<70 1359.27> 1346 130<241.5 707.5> 1670 130<241.5 707.5>
LayerCount: 2
Fore
SplineSet
1476 684 m 2,0,-1
 1476 265 l 2,1,2
 1476 240 1476 240 1500 240 c 2,3,-1
 1646 240 l 2,4,5
 1670 240 1670 240 1670 265 c 2,6,-1
 1670 684 l 2,7,8
 1670 709 1670 709 1646 709 c 2,9,-1
 1500 709 l 2,10,11
 1476 709 1476 709 1476 684 c 2,0,-1
1506 770 m 2,12,-1
 1640 770 l 2,13,14
 1800 770 1800 770 1800 610 c 2,15,-1
 1800 339 l 2,16,17
 1800 179 1800 179 1640 179 c 2,18,-1
 1506 179 l 2,19,20
 1346 179 1346 179 1346 339 c 2,21,-1
 1346 610 l 2,22,23
 1346 770 1346 770 1506 770 c 2,12,-1
1346 0 m 1,24,-1
 1346 10 l 1,25,-1
 1398 120 l 1,26,-1
 1800 120 l 1,27,-1
 1800 110 l 1,28,-1
 1748 0 l 1,29,-1
 1346 0 l 1,24,-1
190 -20 m 1,30,-1
 180 -20 l 1,31,-1
 180 1160 l 2,32,33
 180 1510 180 1510 530 1510 c 2,34,-1
 840 1510 l 2,35,36
 1190 1510 1190 1510 1190 1160 c 2,37,-1
 1190 70 l 1,38,-1
 1000 -20 l 1,39,-1
 990 -20 l 1,40,-1
 990 1280 l 2,41,42
 990 1420 990 1420 850 1420 c 2,43,-1
 520 1420 l 2,44,45
 380 1420 380 1420 380 1280 c 2,46,-1
 380 70 l 1,47,-1
 190 -20 l 1,30,-1
EndSplineSet
Validated: 1
EndChar

StartChar: uni2117
Encoding: 8471 8471 242
Width: 1401
Flags: W
HStem: 386 48<545.181 850.676> 791 71<629 844.469> 1267 71<629 844.469> 1478 52<544.168 856.773>
VStem: 150 50<794.694 1125.05> 489 140<582 791 862 1267> 848 145<863.782 1265.22> 1200 51<785.868 1126.58>
LayerCount: 2
Fore
SplineSet
798 1267 m 2,0,-1
 629 1267 l 1,1,-1
 629 862 l 1,2,-1
 798 862 l 2,3,4
 848 862 848 862 848 912 c 2,5,-1
 848 1217 l 2,6,7
 848 1267 848 1267 798 1267 c 2,0,-1
578 1338 m 1,8,-1
 799 1338 l 2,9,10
 993 1338 993 1338 993 1142 c 2,11,-1
 993 987 l 2,12,13
 993 791 993 791 799 791 c 2,14,-1
 629 791 l 1,15,-1
 629 582 l 1,16,-1
 499 531 l 1,17,-1
 489 531 l 1,18,-1
 489 1294 l 1,19,-1
 578 1338 l 1,8,-1
701 1530 m 0,20,21
 943 1530 943 1530 1099 1357 c 0,22,23
 1251 1188 1251 1188 1251 953 c 0,24,25
 1251 701 1251 701 1090 549 c 0,26,27
 919 386 919 386 699 386 c 0,28,29
 476 386 476 386 311 549 c 0,30,31
 150 708 150 708 150 953 c 0,32,33
 150 1197 150 1197 308 1362 c 0,34,35
 469 1530 469 1530 701 1530 c 0,20,21
699 1478 m 0,36,37
 499 1478 499 1478 350 1330 c 0,38,39
 200 1181 200 1181 200 953 c 0,40,41
 200 750 200 750 347 587 c 0,42,43
 485 434 485 434 701 434 c 0,44,45
 902 434 902 434 1054 587 c 0,46,47
 1200 734 1200 734 1200 953 c 0,48,49
 1200 1185 1200 1185 1056 1327 c 0,50,51
 903 1478 903 1478 699 1478 c 0,36,37
EndSplineSet
Validated: 1
EndChar

StartChar: integral
Encoding: 8747 8747 243
Width: 908
Flags: W
HStem: -410 90<88 322.945> 1690 90<585.055 820>
VStem: 354 200<-259.268 1629.27>
LayerCount: 2
Fore
SplineSet
50 -410 m 1,0,-1
 50 -400 l 1,1,-1
 88 -320 l 1,2,-1
 214 -320 l 2,3,4
 354 -320 354 -320 354 -180 c 2,5,-1
 354 1430 l 2,6,7
 354 1780 354 1780 704 1780 c 2,8,-1
 858 1780 l 1,9,-1
 858 1770 l 1,10,-1
 820 1690 l 1,11,-1
 694 1690 l 2,12,13
 554 1690 554 1690 554 1550 c 2,14,-1
 554 -60 l 2,15,16
 554 -410 554 -410 204 -410 c 2,17,-1
 50 -410 l 1,0,-1
EndSplineSet
Validated: 1
EndChar

StartChar: Agrave
Encoding: 192 192 244
Width: 1370
Flags: W
HStem: -20 21G<180 232.222 990 1042.22> 710 90<380 990> 1420 90<411.055 958.945>
VStem: 180 200<70 710 800 1359.27> 990 200<70 710 800 1359.27>
DStem2: 655 1937 525 1880 0.427336 -0.904093<0 339.921>
LayerCount: 2
Fore
SplineSet
190 -20 m 1,0,-1
 180 -20 l 1,1,-1
 180 1160 l 2,2,3
 180 1510 180 1510 530 1510 c 2,4,-1
 840 1510 l 2,5,6
 1190 1510 1190 1510 1190 1160 c 2,7,-1
 1190 70 l 1,8,-1
 1000 -20 l 1,9,-1
 990 -20 l 1,10,-1
 990 710 l 1,11,-1
 380 710 l 1,12,-1
 380 70 l 1,13,-1
 190 -20 l 1,0,-1
380 800 m 1,14,-1
 990 800 l 1,15,-1
 990 1280 l 2,16,17
 990 1420 990 1420 850 1420 c 2,18,-1
 520 1420 l 2,19,20
 380 1420 380 1420 380 1280 c 2,21,-1
 380 800 l 1,14,-1
645 1937 m 1,22,-1
 655 1937 l 1,23,-1
 802 1626 l 1,24,-1
 684 1570 l 1,25,-1
 674 1570 l 1,26,-1
 525 1880 l 1,27,-1
 645 1937 l 1,22,-1
EndSplineSet
Validated: 1
EndChar

StartChar: Aacute
Encoding: 193 193 245
Width: 1370
Flags: W
HStem: -20 21G<180 232.222 990 1042.22> 710 90<380 990> 1420 90<411.055 958.945>
VStem: 180 200<70 710 800 1359.27> 990 200<70 710 800 1359.27>
DStem2: 566 1626 694 1570 0.427336 0.904093<4.06987 343.991>
LayerCount: 2
Fore
SplineSet
190 -20 m 1,0,-1
 180 -20 l 1,1,-1
 180 1160 l 2,2,3
 180 1510 180 1510 530 1510 c 2,4,-1
 840 1510 l 2,5,6
 1190 1510 1190 1510 1190 1160 c 2,7,-1
 1190 70 l 1,8,-1
 1000 -20 l 1,9,-1
 990 -20 l 1,10,-1
 990 710 l 1,11,-1
 380 710 l 1,12,-1
 380 70 l 1,13,-1
 190 -20 l 1,0,-1
380 800 m 1,14,-1
 990 800 l 1,15,-1
 990 1280 l 2,16,17
 990 1420 990 1420 850 1420 c 2,18,-1
 520 1420 l 2,19,20
 380 1420 380 1420 380 1280 c 2,21,-1
 380 800 l 1,14,-1
723 1937 m 1,22,-1
 843 1880 l 1,23,-1
 694 1570 l 1,24,-1
 684 1570 l 1,25,-1
 566 1626 l 1,26,-1
 713 1937 l 1,27,-1
 723 1937 l 1,22,-1
EndSplineSet
Validated: 1
EndChar

StartChar: Acircumflex
Encoding: 194 194 246
Width: 1370
Flags: W
HStem: -20 21G<180 232.222 990 1042.22> 710 90<380 990> 1420 90<411.055 958.945>
VStem: 180 200<70 710 800 1359.27> 990 200<70 710 800 1359.27>
DStem2: 734 1934 682 1777 0.551466 -0.834197<102.293 333.357>
LayerCount: 2
Fore
SplineSet
190 -20 m 1,0,-1
 180 -20 l 1,1,-1
 180 1160 l 2,2,3
 180 1510 180 1510 530 1510 c 2,4,-1
 840 1510 l 2,5,6
 1190 1510 1190 1510 1190 1160 c 2,7,-1
 1190 70 l 1,8,-1
 1000 -20 l 1,9,-1
 990 -20 l 1,10,-1
 990 710 l 1,11,-1
 380 710 l 1,12,-1
 380 70 l 1,13,-1
 190 -20 l 1,0,-1
380 800 m 1,14,-1
 990 800 l 1,15,-1
 990 1280 l 2,16,17
 990 1420 990 1420 850 1420 c 2,18,-1
 520 1420 l 2,19,20
 380 1420 380 1420 380 1280 c 2,21,-1
 380 800 l 1,14,-1
724 1934 m 1,22,-1
 734 1934 l 1,23,-1
 931 1636 l 1,24,-1
 813 1580 l 1,25,-1
 803 1580 l 1,26,-1
 682 1777 l 1,27,-1
 559 1580 l 1,28,-1
 549 1580 l 1,29,-1
 431 1636 l 1,30,-1
 604 1877 l 1,31,-1
 724 1934 l 1,22,-1
EndSplineSet
Validated: 1
EndChar

StartChar: Atilde
Encoding: 195 195 247
Width: 1370
Flags: W
HStem: -20 21G<180 232.222 990 1042.22> 710 90<380 990> 1420 90<411.055 958.945> 1630 125<740.268 814.951> 1748 125<581.049 655.732>
VStem: 180 200<70 710 800 1359.27> 448 128<1678 1747.47> 820 128<1755.53 1825> 990 200<70 710 800 1359.27>
LayerCount: 2
Fore
SplineSet
190 -20 m 1,0,-1
 180 -20 l 1,1,-1
 180 1160 l 2,2,3
 180 1510 180 1510 530 1510 c 2,4,-1
 840 1510 l 2,5,6
 1190 1510 1190 1510 1190 1160 c 2,7,-1
 1190 70 l 1,8,-1
 1000 -20 l 1,9,-1
 990 -20 l 1,10,-1
 990 710 l 1,11,-1
 380 710 l 1,12,-1
 380 70 l 1,13,-1
 190 -20 l 1,0,-1
380 800 m 1,14,-1
 990 800 l 1,15,-1
 990 1280 l 2,16,17
 990 1420 990 1420 850 1420 c 2,18,-1
 520 1420 l 2,19,20
 380 1420 380 1420 380 1280 c 2,21,-1
 380 800 l 1,14,-1
948 1873 m 1,22,23
 948 1630 948 1630 786 1630 c 0,24,25
 715 1630 715 1630 652 1709 c 0,26,27
 622 1747 622 1747 605 1748 c 0,28,29
 577 1748 577 1748 576 1678 c 1,30,-1
 458 1630 l 1,31,-1
 448 1630 l 1,32,33
 448 1873 448 1873 610 1873 c 24,34,35
 681 1873 681 1873 744 1794 c 0,36,37
 774 1756 774 1756 791 1755 c 0,38,39
 819 1755 819 1755 820 1825 c 1,40,-1
 938 1873 l 1,41,-1
 948 1873 l 1,22,23
EndSplineSet
Validated: 1
EndChar

